# 3ds Max Wavefront OBJ Exporter v0.97b - (c)2007 guruware
# File Created: 29.01.2020 12:20:16

mtllib Arbol_04.mtl

#
# object Arbol_04
#

v  -0.6631 15.3821 0.4538
v  0.6287 15.3821 0.4538
v  0.6287 15.3821 -0.7462
v  -0.6631 15.3821 -0.7462
v  -0.6631 0.3532 0.4538
v  0.6287 0.3532 0.4538
v  0.6287 0.3532 -0.7462
v  -0.6631 0.3532 -0.7462
v  0.0000 17.0709 -0.0000
v  0.0000 16.3512 -1.7375
v  -1.2286 16.3512 -1.2286
v  -1.7375 16.3512 -0.0000
v  -1.2286 16.3512 1.2286
v  0.0000 16.3512 1.7375
v  1.2286 16.3512 1.2286
v  1.7375 16.3512 0.0000
v  1.2286 16.3512 -1.2286
v  0.0000 14.6137 -2.4572
v  -1.7375 14.6137 -1.7375
v  -2.4572 14.6137 0.0000
v  -1.7375 14.6137 1.7375
v  0.0000 14.6137 2.4572
v  1.7375 14.6137 1.7375
v  2.4572 14.6137 0.0000
v  1.7375 14.6137 -1.7375
v  0.0000 12.8762 -1.7375
v  -1.2286 12.8762 -1.2286
v  -1.7375 12.8762 -0.0000
v  -1.2286 12.8762 1.2286
v  0.0000 12.8762 1.7375
v  1.2286 12.8762 1.2286
v  1.7375 12.8762 0.0000
v  1.2286 12.8762 -1.2286
v  0.0000 12.1565 -0.0000
v  -0.3108 13.7509 0.2950
v  4.1128 15.3372 0.4409
v  2.6870 15.5537 3.4365
v  -0.4416 15.7656 4.5411
v  -3.4402 15.8487 3.1079
v  -4.5523 15.7543 -0.0238
v  -3.1265 15.5378 -3.0193
v  0.0020 15.3260 -4.1240
v  3.0006 15.2429 -2.6907
v  6.1271 19.5840 0.3286
v  4.1108 19.8902 4.5649
v  -0.3136 20.1898 6.1271
v  -4.5543 20.3073 4.1002
v  -6.1272 20.1739 -0.3286
v  -4.1108 19.8677 -4.5649
v  0.3136 19.5681 -6.1271
v  4.5543 19.4506 -4.1002
v  4.5523 24.0036 0.0238
v  3.1265 24.2201 3.0193
v  -0.0020 24.4320 4.1240
v  -3.0006 24.5151 2.6907
v  -4.1128 24.4207 -0.4409
v  -2.6870 24.2042 -3.4365
v  0.4415 23.9924 -4.5411
v  3.4402 23.9093 -3.1079
v  0.3108 26.0070 -0.2950
v  0.8268 19.8858 0.1853
v  3.6563 21.9374 0.3037
v  2.7817 21.7930 2.3694
v  0.8401 21.2940 3.3862
v  -1.2600 20.6740 2.8785
v  -2.5360 20.2231 1.0837
v  -2.3908 20.1522 -1.1583
v  -0.8923 20.4945 -2.7984
v  1.2582 21.0899 -3.0694
v  3.0546 21.6597 -1.8442
v  4.5109 25.3279 0.2518
v  3.1710 25.1067 3.4166
v  0.1963 24.3423 4.9745
v  -3.0212 23.3924 4.1966
v  -4.9762 22.7015 1.4469
v  -4.7537 22.5928 -1.9881
v  -2.4580 23.1173 -4.5010
v  0.8368 24.0294 -4.9160
v  3.5891 24.9025 -3.0390
v  2.9908 28.4710 0.0539
v  1.8125 28.2764 2.8370
v  -0.8034 27.6042 4.2070
v  -3.6329 26.7689 3.5230
v  -5.3520 26.1614 1.1049
v  -5.1564 26.0658 -1.9157
v  -3.1376 26.5270 -4.1256
v  -0.2402 27.3291 -4.4906
v  2.1801 28.0969 -2.8399
v  -1.9554 29.7122 -0.3056
v  -0.6162 24.9165 -0.0041
v  1.3991 26.5161 0.0758
v  0.6217 26.3779 1.7158
v  -1.0378 25.9383 2.3206
v  -2.6074 25.4547 1.5359
v  -3.1675 25.2104 -0.1786
v  -2.3902 25.3485 -1.8187
v  -0.7306 25.7882 -2.4235
v  0.8389 26.2718 -1.6388
v  1.6977 29.0721 0.0143
v  0.5983 28.8767 2.3337
v  -1.7486 28.2550 3.1890
v  -3.9683 27.5710 2.0792
v  -4.7605 27.2256 -0.3455
v  -3.6611 27.4210 -2.6649
v  -1.3141 28.0428 -3.5202
v  0.9056 28.7267 -2.4105
v  0.1048 31.0873 -0.1526
v  -0.6726 30.9492 1.4874
v  -2.3321 30.5095 2.0922
v  -3.9017 30.0259 1.3075
v  -4.4618 29.7816 -0.4070
v  -3.6844 29.9198 -2.0471
v  -2.0249 30.3595 -2.6519
v  -0.4553 30.8431 -1.8672
v  -2.4466 31.3812 -0.3271
# 115 vertices

vn -0.5774 0.5774 0.5774
vn 0.5774 0.5774 0.5774
vn 0.5774 0.5774 -0.5774
vn -0.5774 0.5774 -0.5774
vn -0.7071 0.0000 0.7071
vn 0.7071 0.0000 0.7071
vn 0.7071 0.0000 -0.7071
vn -0.7071 0.0000 -0.7071
vn 0.0000 1.0000 -0.0000
vn 0.0000 0.6630 -0.7486
vn -0.5293 0.6630 -0.5294
vn -0.7486 0.6630 -0.0000
vn -0.5294 0.6630 0.5294
vn 0.0000 0.6630 0.7486
vn 0.5294 0.6630 0.5294
vn 0.7486 0.6630 0.0000
vn 0.5294 0.6630 -0.5294
vn 0.0000 -0.0000 -1.0000
vn -0.7071 -0.0000 -0.7071
vn -1.0000 0.0000 0.0000
vn -0.7071 -0.0000 0.7071
vn 0.0000 -0.0000 1.0000
vn 0.7071 -0.0000 0.7071
vn 1.0000 0.0000 0.0000
vn 0.7071 -0.0000 -0.7071
vn 0.0000 -0.6630 -0.7486
vn -0.5293 -0.6630 -0.5294
vn -0.7486 -0.6630 -0.0000
vn -0.5294 -0.6630 0.5294
vn 0.0000 -0.6630 0.7486
vn 0.5294 -0.6630 0.5294
vn 0.7486 -0.6630 0.0000
vn 0.5294 -0.6630 -0.5294
vn 0.0000 -1.0000 -0.0000
vn -0.0506 -0.9976 0.0480
vn 0.7131 -0.6973 0.0719
vn 0.4674 -0.6600 0.5881
vn -0.0718 -0.6235 0.7785
vn -0.5886 -0.6092 0.5315
vn -0.7802 -0.6254 -0.0082
vn -0.5345 -0.6628 -0.5245
vn 0.0047 -0.6993 -0.7148
vn 0.5215 -0.7136 -0.4678
vn 0.9974 -0.0480 0.0535
vn 0.6692 0.0018 0.7431
vn -0.0511 0.0506 0.9974
vn -0.7414 0.0697 0.6675
vn -0.9974 0.0480 -0.0535
vn -0.6692 -0.0018 -0.7431
vn 0.0511 -0.0506 -0.9974
vn 0.7414 -0.0697 -0.6675
vn 0.7802 0.6254 0.0082
vn 0.5345 0.6628 0.5245
vn -0.0047 0.6993 0.7148
vn -0.5215 0.7136 0.4678
vn -0.7131 0.6973 -0.0719
vn -0.4674 0.6600 -0.5881
vn 0.0718 0.6235 -0.7785
vn 0.5886 0.6092 -0.5315
vn 0.0506 0.9976 -0.0480
vn 0.2721 -0.9611 0.0480
vn 0.8545 -0.5145 0.0716
vn 0.6727 -0.5445 0.5010
vn 0.2692 -0.6482 0.7123
vn -0.1673 -0.7771 0.6068
vn -0.4325 -0.8708 0.2337
vn -0.4024 -0.8855 -0.2323
vn -0.0909 -0.8144 -0.5732
vn 0.3561 -0.6906 -0.6295
vn 0.7294 -0.5722 -0.3748
vn 0.9915 0.1151 0.0606
vn 0.7289 0.0717 0.6809
vn 0.1459 -0.0781 0.9862
vn -0.4848 -0.2643 0.8337
vn -0.8679 -0.3997 0.2948
vn -0.8243 -0.4210 -0.3784
vn -0.3744 -0.3182 -0.8710
vn 0.2714 -0.1394 -0.9523
vn 0.8108 0.0317 -0.5844
vn 0.6666 0.7452 0.0196
vn 0.4415 0.7080 0.5511
vn -0.0581 0.5797 0.8128
vn -0.5985 0.4201 0.6821
vn -0.9268 0.3041 0.2203
vn -0.8895 0.2858 -0.3566
vn -0.5039 0.3739 -0.7786
vn 0.0495 0.5271 -0.8484
vn 0.5117 0.6737 -0.5331
vn -0.2721 0.9611 -0.0480
vn 0.8992 -0.4317 0.0719
vn 0.6544 -0.4752 0.5881
vn 0.1321 -0.6136 0.7785
vn -0.3620 -0.7658 0.5315
vn -0.5383 -0.8427 -0.0082
vn -0.2936 -0.7992 -0.5245
vn 0.2288 -0.6608 -0.7148
vn 0.7228 -0.5086 -0.4678
vn 0.9601 0.2745 0.0535
vn 0.6332 0.2164 0.7431
vn -0.0646 0.0315 0.9974
vn -0.7246 -0.1718 0.6675
vn -0.9601 -0.2745 -0.0535
vn -0.6332 -0.2164 -0.7431
vn 0.0646 -0.0315 -0.9974
vn 0.7246 0.1718 -0.6675
vn 0.5383 0.8427 0.0082
vn 0.2936 0.7992 0.5245
vn -0.2288 0.6608 0.7148
vn -0.7228 0.5086 0.4678
vn -0.8992 0.4317 -0.0719
vn -0.6544 0.4752 -0.5881
vn -0.1321 0.6136 -0.7785
vn 0.3620 0.7658 -0.5315
# 113 vertex normals

vt 0.0150 0.5473 0.0000
vt 0.0236 0.5473 0.0000
vt 0.0236 0.5552 0.0000
vt 0.0150 0.5552 0.0000
vt 0.1118 0.2521 0.0000
vt 0.1203 0.2521 0.0000
vt 0.1203 0.3515 0.0000
vt 0.1118 0.3515 0.0000
vt 0.1360 0.2473 0.0000
vt 0.1439 0.2473 0.0000
vt 0.1439 0.3467 0.0000
vt 0.1360 0.3467 0.0000
vt 0.1118 0.1505 0.0000
vt 0.1203 0.1505 0.0000
vt 0.1203 0.2499 0.0000
vt 0.1118 0.2499 0.0000
vt 0.1360 0.1457 0.0000
vt 0.1439 0.1457 0.0000
vt 0.1439 0.2451 0.0000
vt 0.1360 0.2451 0.0000
vt 0.5521 0.4742 0.0000
vt 0.5521 0.4634 0.0000
vt 0.5629 0.4634 0.0000
vt 0.5629 0.4742 0.0000
vt 0.5736 0.4634 0.0000
vt 0.5736 0.4742 0.0000
vt 0.5844 0.4634 0.0000
vt 0.5844 0.4742 0.0000
vt 0.5951 0.4634 0.0000
vt 0.5951 0.4742 0.0000
vt 0.6059 0.4634 0.0000
vt 0.6059 0.4742 0.0000
vt 0.6167 0.4634 0.0000
vt 0.6167 0.4742 0.0000
vt 0.6274 0.4634 0.0000
vt 0.6274 0.4742 0.0000
vt 0.6382 0.4634 0.0000
vt 0.5521 0.4527 0.0000
vt 0.5629 0.4527 0.0000
vt 0.5736 0.4527 0.0000
vt 0.5844 0.4527 0.0000
vt 0.5951 0.4527 0.0000
vt 0.6059 0.4527 0.0000
vt 0.6167 0.4527 0.0000
vt 0.6274 0.4527 0.0000
vt 0.6382 0.4527 0.0000
vt 0.5521 0.4419 0.0000
vt 0.5629 0.4419 0.0000
vt 0.5736 0.4419 0.0000
vt 0.5844 0.4419 0.0000
vt 0.5951 0.4419 0.0000
vt 0.6059 0.4419 0.0000
vt 0.6167 0.4419 0.0000
vt 0.6274 0.4419 0.0000
vt 0.6382 0.4419 0.0000
vt 0.5521 0.4311 0.0000
vt 0.5629 0.4311 0.0000
vt 0.5736 0.4311 0.0000
vt 0.5844 0.4311 0.0000
vt 0.5951 0.4311 0.0000
vt 0.6059 0.4311 0.0000
vt 0.6167 0.4311 0.0000
vt 0.6274 0.4311 0.0000
vt 0.0053 0.6791 0.0000
vt 0.0053 0.6522 0.0000
vt 0.0322 0.6522 0.0000
vt 0.0322 0.6791 0.0000
vt 0.0591 0.6522 0.0000
vt 0.0591 0.6791 0.0000
vt 0.0860 0.6522 0.0000
vt 0.0860 0.6791 0.0000
vt 0.1129 0.6522 0.0000
vt 0.1129 0.6791 0.0000
vt 0.1398 0.6522 0.0000
vt 0.1398 0.6791 0.0000
vt 0.1667 0.6522 0.0000
vt 0.1667 0.6791 0.0000
vt 0.1936 0.6522 0.0000
vt 0.1936 0.6791 0.0000
vt 0.2206 0.6522 0.0000
vt 0.0053 0.6253 0.0000
vt 0.0322 0.6253 0.0000
vt 0.0591 0.6253 0.0000
vt 0.0860 0.6253 0.0000
vt 0.1129 0.6253 0.0000
vt 0.1398 0.6253 0.0000
vt 0.1667 0.6253 0.0000
vt 0.1936 0.6253 0.0000
vt 0.2206 0.6253 0.0000
vt 0.0053 0.5984 0.0000
vt 0.0322 0.5984 0.0000
vt 0.0591 0.5984 0.0000
vt 0.0860 0.5984 0.0000
vt 0.1129 0.5984 0.0000
vt 0.1398 0.5984 0.0000
vt 0.1667 0.5984 0.0000
vt 0.1936 0.5984 0.0000
vt 0.2206 0.5984 0.0000
vt 0.0053 0.5715 0.0000
vt 0.0322 0.5715 0.0000
vt 0.0591 0.5715 0.0000
vt 0.0860 0.5715 0.0000
vt 0.1129 0.5715 0.0000
vt 0.1398 0.5715 0.0000
vt 0.1667 0.5715 0.0000
vt 0.1936 0.5715 0.0000
vt 0.2376 0.5615 0.0000
vt 0.2376 0.5398 0.0000
vt 0.2593 0.5398 0.0000
vt 0.2593 0.5615 0.0000
vt 0.2810 0.5398 0.0000
vt 0.2810 0.5615 0.0000
vt 0.3027 0.5398 0.0000
vt 0.3027 0.5615 0.0000
vt 0.3244 0.5398 0.0000
vt 0.3244 0.5615 0.0000
vt 0.3461 0.5398 0.0000
vt 0.3461 0.5615 0.0000
vt 0.3678 0.5398 0.0000
vt 0.3678 0.5615 0.0000
vt 0.3895 0.5398 0.0000
vt 0.3895 0.5615 0.0000
vt 0.4112 0.5398 0.0000
vt 0.4112 0.5615 0.0000
vt 0.4329 0.5398 0.0000
vt 0.2376 0.5181 0.0000
vt 0.2593 0.5181 0.0000
vt 0.2810 0.5181 0.0000
vt 0.3027 0.5181 0.0000
vt 0.3244 0.5181 0.0000
vt 0.3461 0.5181 0.0000
vt 0.3678 0.5181 0.0000
vt 0.3895 0.5181 0.0000
vt 0.4112 0.5181 0.0000
vt 0.4329 0.5181 0.0000
vt 0.2376 0.4964 0.0000
vt 0.2593 0.4964 0.0000
vt 0.2810 0.4964 0.0000
vt 0.3027 0.4964 0.0000
vt 0.3244 0.4964 0.0000
vt 0.3461 0.4964 0.0000
vt 0.3678 0.4964 0.0000
vt 0.3895 0.4964 0.0000
vt 0.4112 0.4964 0.0000
vt 0.4329 0.4964 0.0000
vt 0.2376 0.4747 0.0000
vt 0.2593 0.4747 0.0000
vt 0.2810 0.4747 0.0000
vt 0.3027 0.4747 0.0000
vt 0.3244 0.4747 0.0000
vt 0.3461 0.4747 0.0000
vt 0.3678 0.4747 0.0000
vt 0.3895 0.4747 0.0000
vt 0.4112 0.4747 0.0000
vt 0.6005 0.5433 0.0000
vt 0.6005 0.5286 0.0000
vt 0.6152 0.5286 0.0000
vt 0.6152 0.5433 0.0000
vt 0.6300 0.5286 0.0000
vt 0.6300 0.5433 0.0000
vt 0.6447 0.5286 0.0000
vt 0.6447 0.5433 0.0000
vt 0.6594 0.5286 0.0000
vt 0.6594 0.5433 0.0000
vt 0.6741 0.5286 0.0000
vt 0.6741 0.5433 0.0000
vt 0.6889 0.5286 0.0000
vt 0.6889 0.5433 0.0000
vt 0.7036 0.5286 0.0000
vt 0.7036 0.5433 0.0000
vt 0.7183 0.5286 0.0000
vt 0.6005 0.5138 0.0000
vt 0.6152 0.5138 0.0000
vt 0.6300 0.5138 0.0000
vt 0.6447 0.5138 0.0000
vt 0.6594 0.5138 0.0000
vt 0.6741 0.5138 0.0000
vt 0.6889 0.5138 0.0000
vt 0.7036 0.5138 0.0000
vt 0.7183 0.5138 0.0000
vt 0.6005 0.4991 0.0000
vt 0.6152 0.4991 0.0000
vt 0.6300 0.4991 0.0000
vt 0.6447 0.4991 0.0000
vt 0.6594 0.4991 0.0000
vt 0.6741 0.4991 0.0000
vt 0.6889 0.4991 0.0000
vt 0.7036 0.4991 0.0000
vt 0.7183 0.4991 0.0000
vt 0.6005 0.4844 0.0000
vt 0.6152 0.4844 0.0000
vt 0.6300 0.4844 0.0000
vt 0.6447 0.4844 0.0000
vt 0.6594 0.4844 0.0000
vt 0.6741 0.4844 0.0000
vt 0.6889 0.4844 0.0000
vt 0.7036 0.4844 0.0000
# 197 texture coords

o Arbol_04
g Arbol_04
usemtl Material__8
s 4
f 1/1/1 2/2/2 3/3/3 4/4/4 
s 8
f 5/5/5 6/6/6 2/7/2 1/8/1 
s 16
f 6/9/6 7/10/7 3/11/3 2/12/2 
s 32
f 7/13/7 8/14/8 4/15/4 3/16/3 
s 64
f 8/17/8 5/18/5 1/19/1 4/20/4 
s 1
f 9/21/9 10/22/10 11/23/11 
f 9/24/9 11/23/11 12/25/12 
f 9/26/9 12/25/12 13/27/13 
f 9/28/9 13/27/13 14/29/14 
f 9/30/9 14/29/14 15/31/15 
f 9/32/9 15/31/15 16/33/16 
f 9/34/9 16/33/16 17/35/17 
f 9/36/9 17/35/17 10/37/10 
f 10/22/10 18/38/18 19/39/19 11/23/11 
f 11/23/11 19/39/19 20/40/20 12/25/12 
f 12/25/12 20/40/20 21/41/21 13/27/13 
f 13/27/13 21/41/21 22/42/22 14/29/14 
f 14/29/14 22/42/22 23/43/23 15/31/15 
f 15/31/15 23/43/23 24/44/24 16/33/16 
f 16/33/16 24/44/24 25/45/25 17/35/17 
f 17/35/17 25/45/25 18/46/18 10/37/10 
f 18/38/18 26/47/26 27/48/27 19/39/19 
f 19/39/19 27/48/27 28/49/28 20/40/20 
f 20/40/20 28/49/28 29/50/29 21/41/21 
f 21/41/21 29/50/29 30/51/30 22/42/22 
f 22/42/22 30/51/30 31/52/31 23/43/23 
f 23/43/23 31/52/31 32/53/32 24/44/24 
f 24/44/24 32/53/32 33/54/33 25/45/25 
f 25/45/25 33/54/33 26/55/26 18/46/18 
f 34/56/34 27/48/27 26/47/26 
f 34/57/34 28/49/28 27/48/27 
f 34/58/34 29/50/29 28/49/28 
f 34/59/34 30/51/30 29/50/29 
f 34/60/34 31/52/31 30/51/30 
f 34/61/34 32/53/32 31/52/31 
f 34/62/34 33/54/33 32/53/32 
f 34/63/34 26/55/26 33/54/33 
f 35/64/35 36/65/36 37/66/37 
f 35/67/35 37/66/37 38/68/38 
f 35/69/35 38/68/38 39/70/39 
f 35/71/35 39/70/39 40/72/40 
f 35/73/35 40/72/40 41/74/41 
f 35/75/35 41/74/41 42/76/42 
f 35/77/35 42/76/42 43/78/43 
f 35/79/35 43/78/43 36/80/36 
f 36/65/36 44/81/44 45/82/45 37/66/37 
f 37/66/37 45/82/45 46/83/46 38/68/38 
f 38/68/38 46/83/46 47/84/47 39/70/39 
f 39/70/39 47/84/47 48/85/48 40/72/40 
f 40/72/40 48/85/48 49/86/49 41/74/41 
f 41/74/41 49/86/49 50/87/50 42/76/42 
f 42/76/42 50/87/50 51/88/51 43/78/43 
f 43/78/43 51/88/51 44/89/44 36/80/36 
f 44/81/44 52/90/52 53/91/53 45/82/45 
f 45/82/45 53/91/53 54/92/54 46/83/46 
f 46/83/46 54/92/54 55/93/55 47/84/47 
f 47/84/47 55/93/55 56/94/56 48/85/48 
f 48/85/48 56/94/56 57/95/57 49/86/49 
f 49/86/49 57/95/57 58/96/58 50/87/50 
f 50/87/50 58/96/58 59/97/59 51/88/51 
f 51/88/51 59/97/59 52/98/52 44/89/44 
f 60/99/60 53/91/53 52/90/52 
f 60/100/60 54/92/54 53/91/53 
f 60/101/60 55/93/55 54/92/54 
f 60/102/60 56/94/56 55/93/55 
f 60/103/60 57/95/57 56/94/56 
f 60/104/60 58/96/58 57/95/57 
f 60/105/60 59/97/59 58/96/58 
f 60/106/60 52/98/52 59/97/59 
f 61/107/61 62/108/62 63/109/63 
f 61/110/61 63/109/63 64/111/64 
f 61/112/61 64/111/64 65/113/65 
f 61/114/61 65/113/65 66/115/66 
f 61/116/61 66/115/66 67/117/67 
f 61/118/61 67/117/67 68/119/68 
f 61/120/61 68/119/68 69/121/69 
f 61/122/61 69/121/69 70/123/70 
f 61/124/61 70/123/70 62/125/62 
f 62/108/62 71/126/71 72/127/72 63/109/63 
f 63/109/63 72/127/72 73/128/73 64/111/64 
f 64/111/64 73/128/73 74/129/74 65/113/65 
f 65/113/65 74/129/74 75/130/75 66/115/66 
f 66/115/66 75/130/75 76/131/76 67/117/67 
f 67/117/67 76/131/76 77/132/77 68/119/68 
f 68/119/68 77/132/77 78/133/78 69/121/69 
f 69/121/69 78/133/78 79/134/79 70/123/70 
f 70/123/70 79/134/79 71/135/71 62/125/62 
f 71/126/71 80/136/80 81/137/81 72/127/72 
f 72/127/72 81/137/81 82/138/82 73/128/73 
f 73/128/73 82/138/82 83/139/83 74/129/74 
f 74/129/74 83/139/83 84/140/84 75/130/75 
f 75/130/75 84/140/84 85/141/85 76/131/76 
f 76/131/76 85/141/85 86/142/86 77/132/77 
f 77/132/77 86/142/86 87/143/87 78/133/78 
f 78/133/78 87/143/87 88/144/88 79/134/79 
f 79/134/79 88/144/88 80/145/80 71/135/71 
f 89/146/89 81/137/81 80/136/80 
f 89/147/89 82/138/82 81/137/81 
f 89/148/89 83/139/83 82/138/82 
f 89/149/89 84/140/84 83/139/83 
f 89/150/89 85/141/85 84/140/84 
f 89/151/89 86/142/86 85/141/85 
f 89/152/89 87/143/87 86/142/86 
f 89/153/89 88/144/88 87/143/87 
f 89/154/89 80/145/80 88/144/88 
f 90/155/61 91/156/90 92/157/91 
f 90/158/61 92/157/91 93/159/92 
f 90/160/61 93/159/92 94/161/93 
f 90/162/61 94/161/93 95/163/94 
f 90/164/61 95/163/94 96/165/95 
f 90/166/61 96/165/95 97/167/96 
f 90/168/61 97/167/96 98/169/97 
f 90/170/61 98/169/97 91/171/90 
f 91/156/90 99/172/98 100/173/99 92/157/91 
f 92/157/91 100/173/99 101/174/100 93/159/92 
f 93/159/92 101/174/100 102/175/101 94/161/93 
f 94/161/93 102/175/101 103/176/102 95/163/94 
f 95/163/94 103/176/102 104/177/103 96/165/95 
f 96/165/95 104/177/103 105/178/104 97/167/96 
f 97/167/96 105/178/104 106/179/105 98/169/97 
f 98/169/97 106/179/105 99/180/98 91/171/90 
f 99/172/98 107/181/106 108/182/107 100/173/99 
f 100/173/99 108/182/107 109/183/108 101/174/100 
f 101/174/100 109/183/108 110/184/109 102/175/101 
f 102/175/101 110/184/109 111/185/110 103/176/102 
f 103/176/102 111/185/110 112/186/111 104/177/103 
f 104/177/103 112/186/111 113/187/112 105/178/104 
f 105/178/104 113/187/112 114/188/113 106/179/105 
f 106/179/105 114/188/113 107/189/106 99/180/98 
f 115/190/89 108/182/107 107/181/106 
f 115/191/89 109/183/108 108/182/107 
f 115/192/89 110/184/109 109/183/108 
f 115/193/89 111/185/110 110/184/109 
f 115/194/89 112/186/111 111/185/110 
f 115/195/89 113/187/112 112/186/111 
f 115/196/89 114/188/113 113/187/112 
f 115/197/89 107/189/106 114/188/113 
# 71 polygons - 66 triangles

