# 3ds Max Wavefront OBJ Exporter v0.97b - (c)2007 guruware
# File Created: 29.01.2020 12:19:56

mtllib Arbol_03.mtl

#
# object Arbol_03
#

v  -0.4800 20.0507 0.5136
v  -0.6820 20.0507 0.0258
v  -0.6820 0.3445 0.0258
v  -0.4800 0.3445 0.5136
v  0.0078 20.0507 0.7156
v  0.0078 0.3445 0.7156
v  0.4956 20.0507 0.5136
v  0.4956 0.3445 0.5136
v  0.6976 20.0507 0.0258
v  0.6976 0.3445 0.0258
v  0.4956 20.0507 -0.4620
v  0.4956 0.3445 -0.4620
v  0.0078 20.0507 -0.6640
v  0.0078 0.3445 -0.6640
v  -0.4800 20.0507 -0.4620
v  -0.4800 0.3445 -0.4620
v  3.3104 16.1410 -3.3104
v  4.6816 16.1410 0.0000
v  6.7071 9.3640 0.0000
v  4.7427 9.3640 -4.7427
v  -3.3104 16.1410 3.3104
v  -4.6816 16.1410 0.0000
v  -6.7072 9.3640 0.0000
v  -4.7427 9.3640 4.7427
v  -0.0000 16.1410 -4.6816
v  -0.0000 9.3640 -6.7072
v  -0.0000 16.1410 4.6816
v  -0.0000 9.3640 6.7072
v  -3.3104 16.1410 -3.3104
v  -4.7427 9.3640 -4.7427
v  3.3104 16.1410 3.3104
v  4.7427 9.3640 4.7427
v  2.4582 27.5885 -2.4582
v  3.4764 27.5885 0.0000
v  4.9805 22.5562 0.0000
v  3.5217 22.5562 -3.5217
v  0.8901 36.7847 -0.8902
v  1.2589 36.7847 0.0000
v  -0.0000 45.9810 0.0000
v  -2.4582 27.5885 2.4582
v  -3.4764 27.5885 0.0000
v  -4.9805 22.5562 0.0000
v  -3.5217 22.5562 3.5217
v  -0.8902 36.7847 0.8902
v  -1.2589 36.7847 0.0000
v  -0.0000 27.5885 -3.4764
v  -0.0000 22.5562 -4.9805
v  -0.0000 36.7847 -1.2589
v  -0.0000 27.5885 3.4764
v  -0.0000 22.5562 4.9805
v  -0.0000 36.7847 1.2589
v  -2.4582 27.5885 -2.4582
v  -3.5217 22.5562 -3.5217
v  -0.8902 36.7847 -0.8902
v  2.4582 27.5885 2.4582
v  3.5217 22.5562 3.5217
v  0.8901 36.7847 0.8902
v  2.8318 22.2547 -2.8318
v  4.0048 22.2547 0.0000
v  5.7375 16.4574 0.0000
v  4.0570 16.4574 -4.0570
v  -2.8318 22.2547 2.8318
v  -4.0048 22.2547 0.0000
v  -5.7375 16.4574 0.0000
v  -4.0570 16.4574 4.0570
v  -0.0000 22.2547 -4.0048
v  -0.0000 16.4574 -5.7375
v  -0.0000 22.2547 4.0048
v  -0.0000 16.4574 5.7375
v  -2.8318 22.2547 -2.8318
v  -4.0570 16.4574 -4.0570
v  2.8318 22.2547 2.8318
v  4.0570 16.4574 4.0570
# 73 vertices

vn -0.7071 0.0000 0.7071
vn -1.0000 0.0000 0.0000
vn 0.0000 0.0000 1.0000
vn 0.7071 0.0000 0.7071
vn 1.0000 0.0000 0.0001
vn 0.7071 0.0000 -0.7071
vn 0.0000 0.0000 -1.0000
vn -0.7071 0.0000 -0.7071
vn 0.6775 0.2864 -0.6775
vn 0.9581 0.2864 0.0000
vn -0.6775 0.2864 0.6775
vn -0.9581 0.2864 0.0000
vn -0.0000 0.2864 -0.9581
vn 0.0000 0.2864 0.9581
vn -0.6775 0.2864 -0.6775
vn 0.6775 0.2864 0.6775
vn 0.6824 0.2622 -0.6824
vn 0.9650 0.2622 0.0000
vn 0.6946 0.1875 -0.6946
vn 0.9823 0.1875 0.0000
vn 0.0000 1.0000 0.0000
vn -0.6824 0.2622 0.6824
vn -0.9650 0.2622 0.0000
vn -0.6946 0.1875 0.6946
vn -0.9823 0.1875 0.0000
vn -0.0000 0.2622 -0.9650
vn -0.0000 0.1875 -0.9823
vn -0.0000 0.2622 0.9650
vn -0.0000 0.2864 0.9581
vn 0.0000 0.1875 0.9823
vn -0.6824 0.2622 -0.6824
vn -0.6946 0.1875 -0.6946
vn 0.6824 0.2622 0.6824
vn 0.6946 0.1875 0.6946
# 34 vertex normals

vt 0.5067 0.0053 0.0000
vt 0.5145 0.0053 0.0000
vt 0.5145 0.1313 0.0000
vt 0.5067 0.1313 0.0000
vt 0.4989 0.0053 0.0000
vt 0.4989 0.1313 0.0000
vt 0.5537 0.0053 0.0000
vt 0.5615 0.0053 0.0000
vt 0.5615 0.1313 0.0000
vt 0.5537 0.1313 0.0000
vt 0.5458 0.0053 0.0000
vt 0.5458 0.1313 0.0000
vt 0.5380 0.0053 0.0000
vt 0.5380 0.1313 0.0000
vt 0.5302 0.0053 0.0000
vt 0.5302 0.1313 0.0000
vt 0.5224 0.0053 0.0000
vt 0.5224 0.1313 0.0000
vt 0.3647 0.1764 0.0000
vt 0.3447 0.1475 0.0000
vt 0.3684 0.1232 0.0000
vt 0.3958 0.1628 0.0000
vt 0.2464 0.1283 0.0000
vt 0.2170 0.1475 0.0000
vt 0.1933 0.1231 0.0000
vt 0.2336 0.0968 0.0000
vt 0.3724 0.2102 0.0000
vt 0.4064 0.2102 0.0000
vt 0.2809 0.1216 0.0000
vt 0.2809 0.0876 0.0000
vt 0.1970 0.1763 0.0000
vt 0.1893 0.2101 0.0000
vt 0.1553 0.2101 0.0000
vt 0.1658 0.1627 0.0000
vt 0.3153 0.1283 0.0000
vt 0.3281 0.0968 0.0000
vt 0.2038 0.7674 0.0000
vt 0.1835 0.7437 0.0000
vt 0.2033 0.7204 0.0000
vt 0.2308 0.7532 0.0000
vt 0.1573 0.7915 0.0000
vt 0.1487 0.7834 0.0000
vt 0.1238 0.8247 0.0000
vt 0.0941 0.7277 0.0000
vt 0.0663 0.7422 0.0000
vt 0.0471 0.7183 0.0000
vt 0.0843 0.6987 0.0000
vt 0.1115 0.7777 0.0000
vt 0.1000 0.7828 0.0000
vt 0.2130 0.7967 0.0000
vt 0.2431 0.7950 0.0000
vt 0.1625 0.8014 0.0000
vt 0.1252 0.7231 0.0000
vt 0.1256 0.6924 0.0000
vt 0.1245 0.7760 0.0000
vt 0.0454 0.7652 0.0000
vt 0.0354 0.7943 0.0000
vt 0.0053 0.7918 0.0000
vt 0.0188 0.7504 0.0000
vt 0.0912 0.7906 0.0000
vt 0.0857 0.8003 0.0000
vt 0.1561 0.7285 0.0000
vt 0.1667 0.6998 0.0000
vt 0.1373 0.7780 0.0000
vt 0.9199 0.5894 0.0000
vt 0.9028 0.5647 0.0000
vt 0.9231 0.5439 0.0000
vt 0.9465 0.5777 0.0000
vt 0.8187 0.5482 0.0000
vt 0.7935 0.5646 0.0000
vt 0.7733 0.5438 0.0000
vt 0.8077 0.5213 0.0000
vt 0.9264 0.6183 0.0000
vt 0.9555 0.6183 0.0000
vt 0.8482 0.5425 0.0000
vt 0.8482 0.5134 0.0000
vt 0.7764 0.5893 0.0000
vt 0.7699 0.6183 0.0000
vt 0.7408 0.6183 0.0000
vt 0.7498 0.5777 0.0000
vt 0.8776 0.5482 0.0000
vt 0.8886 0.5213 0.0000
# 82 texture coords

o Arbol_03
g Arbol_03
usemtl Material__8
s 1
f 1/1/1 2/2/2 3/3/2 4/4/1 
f 5/5/3 1/1/1 4/4/1 6/6/3 
f 7/7/4 5/8/3 6/9/3 8/10/4 
f 9/11/5 7/7/4 8/10/4 10/12/5 
f 11/13/6 9/11/5 10/12/5 12/14/6 
f 13/15/7 11/13/6 12/14/6 14/16/7 
f 15/17/8 13/15/7 14/16/7 16/18/8 
f 2/2/2 15/17/8 16/18/8 3/3/2 
f 17/19/9 18/20/10 19/21/10 20/22/9 
f 21/23/11 22/24/12 23/25/12 24/26/11 
f 25/27/13 17/19/9 20/22/9 26/28/13 
f 27/29/14 21/23/11 24/26/11 28/30/14 
f 29/31/15 25/32/13 26/33/13 30/34/15 
f 31/35/16 27/29/14 28/30/14 32/36/16 
f 22/24/12 29/31/15 30/34/15 23/25/12 
f 18/20/10 31/35/16 32/36/16 19/21/10 
f 33/37/17 34/38/18 35/39/10 36/40/9 
f 37/41/19 38/42/20 34/38/18 33/37/17 
f 37/41/19 39/43/21 38/42/20 
f 40/44/22 41/45/23 42/46/12 43/47/11 
f 44/48/24 45/49/25 41/45/23 40/44/22 
f 44/48/24 39/43/21 45/49/25 
f 46/50/26 33/37/17 36/40/9 47/51/13 
f 48/52/27 37/41/19 33/37/17 46/50/26 
f 48/52/27 39/43/21 37/41/19 
f 49/53/28 40/44/22 43/47/11 50/54/29 
f 51/55/30 44/48/24 40/44/22 49/53/28 
f 51/55/30 39/43/21 44/48/24 
f 52/56/31 46/57/26 47/58/13 53/59/15 
f 54/60/32 48/61/27 46/57/26 52/56/31 
f 54/60/32 39/43/21 48/61/27 
f 55/62/33 49/53/28 50/54/29 56/63/16 
f 57/64/34 51/55/30 49/53/28 55/62/33 
f 57/64/34 39/43/21 51/55/30 
f 41/45/23 52/56/31 53/59/15 42/46/12 
f 45/49/25 54/60/32 52/56/31 41/45/23 
f 45/49/25 39/43/21 54/60/32 
f 34/38/18 55/62/33 56/63/16 35/39/10 
f 38/42/20 57/64/34 55/62/33 34/38/18 
f 38/42/20 39/43/21 57/64/34 
f 58/65/9 59/66/10 60/67/10 61/68/9 
f 62/69/11 63/70/12 64/71/12 65/72/11 
f 66/73/13 58/65/9 61/68/9 67/74/13 
f 68/75/29 62/69/11 65/72/11 69/76/14 
f 70/77/15 66/78/13 67/79/13 71/80/15 
f 72/81/16 68/75/29 69/76/14 73/82/16 
f 63/70/12 70/77/15 71/80/15 64/71/12 
f 59/66/10 72/81/16 73/82/16 60/67/10 
# 40 polygons - 8 triangles

