# 3ds Max Wavefront OBJ Exporter v0.97b - (c)2007 guruware
# File Created: 29.01.2020 12:19:29

mtllib Arbol_02.mtl

#
# object Arbol_02
#

v  -0.7199 16.2416 0.7704
v  -1.0230 16.2416 0.0387
v  -1.0230 -0.3676 0.0387
v  -0.7199 -0.3676 0.7704
v  0.0117 16.2416 1.0734
v  0.0117 -0.3676 1.0734
v  0.7433 16.2416 0.7704
v  0.7433 -0.3676 0.7704
v  1.0464 16.2416 0.0387
v  1.0464 -0.3676 0.0387
v  0.7433 16.2416 -0.6929
v  0.7433 -0.3676 -0.6929
v  0.0117 16.2416 -0.9960
v  0.0117 -0.3676 -0.9960
v  -0.7199 16.2416 -0.6929
v  -0.7199 -0.3676 -0.6929
v  4.9655 12.9464 -4.9655
v  7.0222 12.9464 0.0000
v  10.0605 7.2345 0.0000
v  7.1139 7.2345 -7.1139
v  -4.9655 12.9464 4.9655
v  -7.0222 12.9464 0.0000
v  -10.0605 7.2345 0.0000
v  -7.1139 7.2345 7.1139
v  -0.0000 12.9464 -7.0222
v  -0.0000 7.2345 -10.0605
v  -0.0000 12.9464 7.0222
v  -0.0000 7.2345 10.0605
v  -4.9655 12.9464 -4.9655
v  -7.1139 7.2345 -7.1139
v  4.9655 12.9464 4.9655
v  7.1139 7.2345 7.1139
v  3.6872 22.5948 -3.6872
v  5.2145 22.5948 0.0000
v  7.4706 18.3534 0.0000
v  5.2825 18.3534 -5.2825
v  1.3352 30.3458 -1.3352
v  1.8883 30.3458 0.0000
v  -0.0000 38.0968 0.0000
v  -3.6872 22.5948 3.6872
v  -5.2145 22.5948 0.0000
v  -7.4706 18.3534 0.0000
v  -5.2825 18.3534 5.2825
v  -1.3352 30.3458 1.3352
v  -1.8883 30.3458 0.0000
v  -0.0000 22.5948 -5.2145
v  -0.0000 18.3534 -7.4706
v  -0.0000 30.3458 -1.8882
v  -0.0000 22.5948 5.2144
v  -0.0000 18.3534 7.4706
v  -0.0000 30.3458 1.8883
v  -3.6872 22.5948 -3.6872
v  -5.2825 18.3534 -5.2825
v  -1.3352 30.3458 -1.3352
v  3.6872 22.5948 3.6872
v  5.2825 18.3534 5.2825
v  1.3352 30.3458 1.3352
v  4.2476 18.0993 -4.2476
v  6.0070 18.0993 0.0000
v  8.6061 13.2131 0.0000
v  6.0854 13.2131 -6.0854
v  -4.2476 18.0993 4.2476
v  -6.0071 18.0993 0.0000
v  -8.6061 13.2131 0.0000
v  -6.0854 13.2131 6.0854
v  -0.0000 18.0993 -6.0070
v  -0.0000 13.2131 -8.6061
v  -0.0000 18.0993 6.0070
v  -0.0000 13.2131 8.6061
v  -4.2476 18.0993 -4.2476
v  -6.0854 13.2131 -6.0854
v  4.2476 18.0993 4.2476
v  6.0854 13.2131 6.0854
# 73 vertices

vn -0.7071 0.0000 0.7071
vn -1.0000 0.0000 0.0001
vn 0.0000 0.0000 1.0000
vn 0.7071 0.0000 0.7071
vn 1.0000 0.0000 0.0000
vn 0.7071 0.0000 -0.7071
vn 0.0000 0.0000 -1.0000
vn -0.7071 0.0000 -0.7071
vn 0.6243 0.4696 -0.6243
vn 0.8829 0.4696 0.0000
vn -0.6243 0.4696 0.6243
vn -0.8829 0.4696 0.0000
vn -0.0000 0.4696 -0.8829
vn 0.0000 0.4696 0.8829
vn -0.6243 0.4696 -0.6243
vn 0.6243 0.4696 0.6243
vn 0.6362 0.4364 -0.6362
vn 0.8998 0.4364 0.0000
vn 0.6692 0.3229 -0.6692
vn 0.9464 0.3229 0.0000
vn -0.0000 1.0000 0.0000
vn -0.6362 0.4364 0.6362
vn -0.8998 0.4364 0.0000
vn -0.6692 0.3229 0.6692
vn -0.9464 0.3229 0.0000
vn -0.0000 0.4364 -0.8998
vn -0.0000 0.3229 -0.9464
vn 0.0000 0.4364 0.8998
vn -0.0000 0.3229 0.9464
vn -0.6362 0.4364 -0.6362
vn -0.6692 0.3229 -0.6692
vn 0.6362 0.4364 0.6362
vn 0.6692 0.3229 0.6692
vn -0.0000 0.4696 0.8829
# 34 vertex normals

vt 0.6556 0.3053 0.0000
vt 0.6623 0.3053 0.0000
vt 0.6623 0.4137 0.0000
vt 0.6556 0.4137 0.0000
vt 0.6489 0.3053 0.0000
vt 0.6489 0.4137 0.0000
vt 0.6960 0.3053 0.0000
vt 0.7027 0.3053 0.0000
vt 0.7027 0.4137 0.0000
vt 0.6960 0.4137 0.0000
vt 0.6893 0.3053 0.0000
vt 0.6893 0.4137 0.0000
vt 0.6825 0.3053 0.0000
vt 0.6825 0.4137 0.0000
vt 0.6758 0.3053 0.0000
vt 0.6758 0.4137 0.0000
vt 0.6691 0.3053 0.0000
vt 0.6691 0.4137 0.0000
vt 0.3791 0.1015 0.0000
vt 0.3563 0.0687 0.0000
vt 0.3833 0.0410 0.0000
vt 0.4145 0.0860 0.0000
vt 0.2444 0.0468 0.0000
vt 0.2109 0.0686 0.0000
vt 0.1840 0.0409 0.0000
vt 0.2299 0.0110 0.0000
vt 0.3878 0.1400 0.0000
vt 0.4264 0.1400 0.0000
vt 0.2836 0.0391 0.0000
vt 0.2837 0.0005 0.0000
vt 0.1882 0.1014 0.0000
vt 0.1795 0.1399 0.0000
vt 0.1408 0.1399 0.0000
vt 0.1528 0.0859 0.0000
vt 0.3229 0.0468 0.0000
vt 0.3374 0.0110 0.0000
vt 0.3537 0.3415 0.0000
vt 0.3335 0.3179 0.0000
vt 0.3532 0.2946 0.0000
vt 0.3807 0.3274 0.0000
vt 0.3073 0.3657 0.0000
vt 0.2987 0.3576 0.0000
vt 0.2738 0.3988 0.0000
vt 0.2441 0.3019 0.0000
vt 0.2163 0.3163 0.0000
vt 0.1971 0.2925 0.0000
vt 0.2343 0.2729 0.0000
vt 0.2615 0.3518 0.0000
vt 0.2500 0.3570 0.0000
vt 0.3629 0.3708 0.0000
vt 0.3930 0.3691 0.0000
vt 0.3125 0.3755 0.0000
vt 0.2751 0.2972 0.0000
vt 0.2755 0.2666 0.0000
vt 0.2744 0.3502 0.0000
vt 0.1954 0.3394 0.0000
vt 0.1854 0.3685 0.0000
vt 0.1553 0.3659 0.0000
vt 0.1688 0.3245 0.0000
vt 0.2411 0.3648 0.0000
vt 0.2357 0.3745 0.0000
vt 0.3061 0.3027 0.0000
vt 0.3166 0.2740 0.0000
vt 0.2873 0.3522 0.0000
vt 0.3591 0.2660 0.0000
vt 0.3396 0.2379 0.0000
vt 0.3627 0.2142 0.0000
vt 0.3894 0.2527 0.0000
vt 0.2439 0.2191 0.0000
vt 0.2153 0.2378 0.0000
vt 0.1923 0.2141 0.0000
vt 0.2315 0.1885 0.0000
vt 0.3665 0.2989 0.0000
vt 0.3996 0.2989 0.0000
vt 0.2775 0.2126 0.0000
vt 0.2775 0.1795 0.0000
vt 0.1958 0.2659 0.0000
vt 0.1884 0.2988 0.0000
vt 0.1553 0.2988 0.0000
vt 0.1656 0.2527 0.0000
vt 0.3110 0.2192 0.0000
vt 0.3235 0.1885 0.0000
# 82 texture coords

o Arbol_02
g Arbol_02
usemtl Material__8
s 1
f 1/1/1 2/2/2 3/3/2 4/4/1 
f 5/5/3 1/1/1 4/4/1 6/6/3 
f 7/7/4 5/8/3 6/9/3 8/10/4 
f 9/11/5 7/7/4 8/10/4 10/12/5 
f 11/13/6 9/11/5 10/12/5 12/14/6 
f 13/15/7 11/13/6 12/14/6 14/16/7 
f 15/17/8 13/15/7 14/16/7 16/18/8 
f 2/2/2 15/17/8 16/18/8 3/3/2 
f 17/19/9 18/20/10 19/21/10 20/22/9 
f 21/23/11 22/24/12 23/25/12 24/26/11 
f 25/27/13 17/19/9 20/22/9 26/28/13 
f 27/29/14 21/23/11 24/26/11 28/30/14 
f 29/31/15 25/32/13 26/33/13 30/34/15 
f 31/35/16 27/29/14 28/30/14 32/36/16 
f 22/24/12 29/31/15 30/34/15 23/25/12 
f 18/20/10 31/35/16 32/36/16 19/21/10 
f 33/37/17 34/38/18 35/39/10 36/40/9 
f 37/41/19 38/42/20 34/38/18 33/37/17 
f 37/41/19 39/43/21 38/42/20 
f 40/44/22 41/45/23 42/46/12 43/47/11 
f 44/48/24 45/49/25 41/45/23 40/44/22 
f 44/48/24 39/43/21 45/49/25 
f 46/50/26 33/37/17 36/40/9 47/51/13 
f 48/52/27 37/41/19 33/37/17 46/50/26 
f 48/52/27 39/43/21 37/41/19 
f 49/53/28 40/44/22 43/47/11 50/54/14 
f 51/55/29 44/48/24 40/44/22 49/53/28 
f 51/55/29 39/43/21 44/48/24 
f 52/56/30 46/57/26 47/58/13 53/59/15 
f 54/60/31 48/61/27 46/57/26 52/56/30 
f 54/60/31 39/43/21 48/61/27 
f 55/62/32 49/53/28 50/54/14 56/63/16 
f 57/64/33 51/55/29 49/53/28 55/62/32 
f 57/64/33 39/43/21 51/55/29 
f 41/45/23 52/56/30 53/59/15 42/46/12 
f 45/49/25 54/60/31 52/56/30 41/45/23 
f 45/49/25 39/43/21 54/60/31 
f 34/38/18 55/62/32 56/63/16 35/39/10 
f 38/42/20 57/64/33 55/62/32 34/38/18 
f 38/42/20 39/43/21 57/64/33 
f 58/65/9 59/66/10 60/67/10 61/68/9 
f 62/69/11 63/70/12 64/71/12 65/72/11 
f 66/73/13 58/65/9 61/68/9 67/74/13 
f 68/75/34 62/69/11 65/72/11 69/76/14 
f 70/77/15 66/78/13 67/79/13 71/80/15 
f 72/81/16 68/75/34 69/76/14 73/82/16 
f 63/70/12 70/77/15 71/80/15 64/71/12 
f 59/66/10 72/81/16 73/82/16 60/67/10 
# 40 polygons - 8 triangles

