# 3ds Max Wavefront OBJ Exporter v0.97b - (c)2007 guruware
# File Created: 29.01.2020 12:20:47

mtllib Arbol_05.mtl

#
# object Arbol_05
#

v  3.6565 0.1705 -0.9970
v  1.5127 0.1705 -3.1409
v  1.5127 32.8343 -1.7593
v  2.2749 32.8343 -0.9970
v  -0.6312 0.1705 -0.9970
v  0.7504 32.8343 -0.9970
v  1.5127 0.1705 1.1469
v  1.5127 32.8343 -0.2348
v  1.9776 21.6407 -0.9970
v  1.4530 20.8532 -2.2993
v  -1.4664 23.5271 -1.8690
v  -1.1152 24.0544 -0.9970
v  0.6042 19.5792 -1.8019
v  -2.0348 22.6740 -1.5360
v  0.6042 19.5792 -0.1922
v  -2.0348 22.6740 -0.4581
v  1.4530 20.8532 0.3052
v  -1.4664 23.5271 -0.1251
v  -4.3707 24.4299 -1.5230
v  -4.1588 24.7479 -0.9970
v  -4.7135 23.9153 -1.3221
v  -4.7135 23.9153 -0.6720
v  -4.3707 24.4299 -0.4711
v  -9.1403 32.7411 0.0000
v  -9.1403 30.9822 -4.2464
v  -12.1430 30.9822 -3.0026
v  -13.3867 30.9822 0.0000
v  -12.1430 30.9822 3.0027
v  -9.1403 30.9822 4.2464
v  -6.1376 30.9822 3.0027
v  -4.8939 30.9822 0.0000
v  -6.1376 30.9822 -3.0026
v  -9.1403 26.7358 -6.0053
v  -13.3867 26.7358 -4.2464
v  -15.1456 26.7358 0.0000
v  -13.3867 26.7358 4.2464
v  -9.1403 26.7358 6.0053
v  -4.8939 26.7358 4.2464
v  -3.1350 26.7358 0.0000
v  -4.8939 26.7358 -4.2464
v  -9.1403 22.4894 -4.2464
v  -12.1430 22.4894 -3.0026
v  -13.3867 22.4894 0.0000
v  -12.1430 22.4894 3.0027
v  -9.1403 22.4894 4.2464
v  -6.1376 22.4894 3.0027
v  -4.8939 22.4894 0.0000
v  -6.1376 22.4894 -3.0026
v  -9.1403 20.7305 0.0000
v  -2.0744 42.6711 0.0000
v  -0.8964 40.6704 -5.6052
v  -4.3119 38.6594 -3.9635
v  -5.7266 37.8265 0.0000
v  -4.3119 38.6594 3.9635
v  -0.8964 40.6704 5.6052
v  2.5190 42.6813 3.9635
v  3.9337 43.5143 0.0000
v  2.5190 42.6813 -3.9635
v  1.9475 35.8402 -7.9270
v  -2.8827 32.9963 -5.6052
v  -4.8835 31.8183 0.0000
v  -2.8827 32.9963 5.6052
v  1.9475 35.8402 7.9270
v  6.7777 38.6841 5.6052
v  8.7784 39.8621 0.0000
v  6.7777 38.6841 -5.6052
v  4.7914 31.0100 -5.6052
v  1.3759 28.9990 -3.9635
v  -0.0388 28.1661 0.0000
v  1.3759 28.9990 3.9635
v  4.7914 31.0100 5.6052
v  8.2068 33.0209 3.9635
v  9.6216 33.8539 0.0000
v  8.2068 33.0209 -3.9635
v  5.9694 29.0092 0.0000
v  6.6075 32.5130 0.0000
v  7.4674 31.0525 -4.0918
v  4.9741 29.5845 -2.8934
v  3.9414 28.9765 0.0000
v  4.9741 29.5845 2.8934
v  7.4674 31.0525 4.0918
v  9.9607 32.5205 2.8934
v  10.9935 33.1286 0.0000
v  9.9607 32.5205 -2.8934
v  9.5435 27.5265 -5.7867
v  6.0174 25.4504 -4.0918
v  4.5569 24.5905 0.0000
v  6.0174 25.4504 4.0918
v  9.5435 27.5265 5.7867
v  13.0695 29.6025 4.0918
v  14.5301 30.4625 0.0000
v  13.0695 29.6025 -4.0918
v  11.6195 24.0004 -4.0918
v  9.1263 22.5324 -2.8934
v  8.0935 21.9244 0.0000
v  9.1263 22.5324 2.8934
v  11.6195 24.0004 4.0918
v  14.1128 25.4684 2.8934
v  15.1456 26.0765 0.0000
v  14.1128 25.4684 -2.8934
v  12.4795 22.5399 0.0000
v  2.2099 23.7808 -1.2822
v  1.9725 24.0748 -1.8023
v  5.9451 27.4217 -1.4686
v  6.0302 27.3163 -1.2822
v  1.5884 24.5505 -1.6036
v  5.8074 27.5922 -1.3974
v  1.5884 24.5505 -0.9607
v  5.8074 27.5922 -1.1670
v  1.9725 24.0748 -0.7621
v  5.9451 27.4217 -1.0957
# 111 vertices

vn 0.9991 0.0423 -0.0000
vn 0.0000 0.0423 -0.9991
vn -0.9991 0.0423 0.0000
vn 0.0000 0.0423 0.9991
vn 0.6153 0.7883 -0.0000
vn 0.0798 0.2426 -0.9668
vn 0.1023 0.3825 -0.9183
vn 0.4384 0.8988 -0.0000
vn -0.6632 -0.5192 -0.5390
vn -0.5109 -0.5888 -0.6263
vn -0.6632 -0.5192 0.5390
vn -0.5109 -0.5888 0.6263
vn 0.0798 0.2426 0.9668
vn 0.1023 0.3825 0.9183
vn -0.0295 0.2737 -0.9614
vn 0.2222 0.9750 0.0000
vn -0.3886 -0.7453 -0.5418
vn -0.3886 -0.7453 0.5418
vn -0.0295 0.2737 0.9614
vn 0.0000 1.0000 -0.0000
vn 0.0000 0.6630 -0.7486
vn -0.5294 0.6630 -0.5294
vn -0.7486 0.6630 0.0000
vn -0.5294 0.6630 0.5294
vn 0.0000 0.6630 0.7486
vn 0.5294 0.6630 0.5294
vn 0.7486 0.6630 0.0000
vn 0.5294 0.6630 -0.5294
vn 0.0000 -0.0000 -1.0000
vn -0.7071 -0.0000 -0.7071
vn -1.0000 -0.0000 -0.0000
vn -0.7071 -0.0000 0.7071
vn 0.0000 -0.0000 1.0000
vn 0.7071 -0.0000 0.7071
vn 1.0000 -0.0000 0.0000
vn 0.7071 -0.0000 -0.7071
vn 0.0000 -0.6630 -0.7486
vn -0.5294 -0.6630 -0.5294
vn -0.7486 -0.6630 0.0000
vn -0.5294 -0.6630 0.5294
vn 0.0000 -0.6630 0.7486
vn 0.5294 -0.6630 0.5294
vn 0.7486 -0.6630 0.0000
vn 0.5294 -0.6630 -0.5294
vn 0.0000 -1.0000 -0.0000
vn -0.5074 0.8617 0.0000
vn -0.3364 0.5713 -0.7486
vn -0.7925 0.3028 -0.5294
vn -0.9815 0.1915 -0.0000
vn -0.7925 0.3028 0.5294
vn -0.3364 0.5713 0.7486
vn 0.1198 0.8399 0.5294
vn 0.3087 0.9512 0.0000
vn 0.1198 0.8399 -0.5294
vn 0.0000 0.0000 -1.0000
vn -0.6093 -0.3588 -0.7071
vn -0.8617 -0.5074 0.0000
vn -0.6093 -0.3588 0.7071
vn 0.0000 0.0000 1.0000
vn 0.6093 0.3588 0.7071
vn 0.8617 0.5074 0.0000
vn 0.6093 0.3588 -0.7071
vn 0.3364 -0.5713 -0.7486
vn -0.1198 -0.8399 -0.5294
vn -0.3087 -0.9512 0.0000
vn -0.1198 -0.8399 0.5294
vn 0.3364 -0.5713 0.7486
vn 0.7925 -0.3028 0.5294
vn 0.9815 -0.1915 0.0000
vn 0.7925 -0.3028 -0.5294
vn 0.5074 -0.8617 0.0000
vn -0.5074 0.8617 -0.0000
vn -0.9815 0.1915 0.0000
vn 0.3087 0.9512 -0.0000
vn -0.0000 0.0000 -1.0000
vn -0.8617 -0.5074 -0.0000
vn -0.0000 -0.0000 1.0000
vn 0.6792 -0.7339 -0.0000
vn 0.2461 -0.1975 -0.9489
vn -0.4546 0.6704 -0.5864
vn -0.4546 0.6704 0.5864
vn 0.2461 -0.1975 0.9489
# 82 vertex normals

vt 0.4166 0.0065 0.0000
vt 0.4366 0.0053 0.0000
vt 0.4431 0.2215 0.0000
vt 0.4360 0.2219 0.0000
vt 0.4567 0.0053 0.0000
vt 0.4502 0.2215 0.0000
vt 0.4767 0.0065 0.0000
vt 0.4573 0.2219 0.0000
vt 0.4966 0.0089 0.0000
vt 0.4644 0.2227 0.0000
vt 0.5928 0.2831 0.0000
vt 0.6035 0.2843 0.0000
vt 0.5961 0.3101 0.0000
vt 0.5894 0.3084 0.0000
vt 0.5521 0.2875 0.0000
vt 0.5615 0.2830 -0.0000
vt 0.5678 0.3096 -0.0000
vt 0.5609 0.3117 0.0000
vt 0.5717 0.2811 0.0000
vt 0.5753 0.3083 0.0000
vt 0.5821 0.2816 0.0000
vt 0.5825 0.3078 0.0000
vt 0.5894 0.3299 0.0000
vt 0.5853 0.3282 0.0000
vt 0.5730 0.3289 -0.0000
vt 0.5690 0.3295 0.0000
vt 0.5768 0.3282 0.0000
vt 0.5808 0.3278 0.0000
vt 0.2453 0.6889 0.0000
vt 0.2317 0.6616 0.0000
vt 0.2540 0.6597 0.0000
vt 0.2656 0.6882 0.0000
vt 0.2777 0.6599 0.0000
vt 0.2895 0.6884 0.0000
vt 0.3019 0.6601 0.0000
vt 0.3141 0.6886 0.0000
vt 0.3264 0.6602 0.0000
vt 0.3386 0.6886 0.0000
vt 0.3508 0.6601 0.0000
vt 0.3632 0.6884 0.0000
vt 0.3750 0.6599 0.0000
vt 0.3871 0.6882 0.0000
vt 0.3987 0.6597 0.0000
vt 0.4074 0.6889 0.0000
vt 0.4210 0.6616 0.0000
vt 0.2231 0.6302 0.0000
vt 0.2513 0.6302 0.0000
vt 0.2771 0.6302 0.0000
vt 0.3019 0.6302 0.0000
vt 0.3264 0.6302 0.0000
vt 0.3508 0.6302 0.0000
vt 0.3756 0.6302 0.0000
vt 0.4014 0.6302 0.0000
vt 0.4296 0.6302 0.0000
vt 0.2317 0.5988 0.0000
vt 0.2540 0.6007 0.0000
vt 0.2777 0.6005 0.0000
vt 0.3019 0.6002 0.0000
vt 0.3264 0.6002 0.0000
vt 0.3508 0.6002 0.0000
vt 0.3750 0.6005 0.0000
vt 0.3987 0.6007 0.0000
vt 0.4210 0.5988 0.0000
vt 0.2453 0.5715 0.0000
vt 0.2656 0.5722 0.0000
vt 0.2895 0.5720 0.0000
vt 0.3141 0.5718 0.0000
vt 0.3386 0.5718 0.0000
vt 0.3632 0.5720 0.0000
vt 0.3871 0.5722 0.0000
vt 0.4074 0.5715 0.0000
vt 0.6395 0.1556 0.0000
vt 0.6216 0.1195 0.0000
vt 0.6510 0.1170 0.0000
vt 0.6663 0.1546 0.0000
vt 0.6823 0.1173 0.0000
vt 0.6981 0.1549 0.0000
vt 0.7143 0.1175 0.0000
vt 0.7303 0.1550 0.0000
vt 0.7465 0.1176 0.0000
vt 0.7627 0.1550 0.0000
vt 0.7787 0.1175 0.0000
vt 0.7950 0.1549 0.0000
vt 0.8107 0.1173 0.0000
vt 0.8267 0.1546 0.0000
vt 0.8420 0.1170 0.0000
vt 0.8535 0.1556 0.0000
vt 0.8714 0.1195 0.0000
vt 0.6102 0.0780 0.0000
vt 0.6474 0.0780 0.0000
vt 0.6814 0.0780 0.0000
vt 0.7141 0.0780 0.0000
vt 0.7465 0.0780 0.0000
vt 0.7789 0.0780 0.0000
vt 0.8116 0.0780 0.0000
vt 0.8456 0.0780 0.0000
vt 0.8828 0.0780 0.0000
vt 0.6216 0.0365 0.0000
vt 0.6510 0.0391 0.0000
vt 0.6823 0.0388 0.0000
vt 0.7143 0.0386 0.0000
vt 0.7465 0.0385 0.0000
vt 0.7787 0.0386 0.0000
vt 0.8107 0.0388 0.0000
vt 0.8420 0.0391 0.0000
vt 0.8714 0.0365 0.0000
vt 0.6395 0.0005 0.0000
vt 0.6663 0.0015 0.0000
vt 0.6981 0.0012 0.0000
vt 0.7303 0.0010 0.0000
vt 0.7627 0.0010 0.0000
vt 0.7950 0.0012 0.0000
vt 0.8267 0.0015 0.0000
vt 0.8535 0.0005 0.0000
vt 0.0558 0.5589 0.0000
vt 0.0427 0.5325 0.0000
vt 0.0642 0.5307 0.0000
vt 0.0753 0.5581 0.0000
vt 0.0871 0.5309 0.0000
vt 0.0985 0.5584 0.0000
vt 0.1104 0.5311 0.0000
vt 0.1221 0.5585 0.0000
vt 0.1339 0.5311 0.0000
vt 0.1457 0.5585 0.0000
vt 0.1574 0.5311 0.0000
vt 0.1693 0.5584 0.0000
vt 0.1807 0.5309 0.0000
vt 0.1924 0.5581 0.0000
vt 0.2036 0.5307 0.0000
vt 0.2120 0.5589 0.0000
vt 0.2251 0.5325 0.0000
vt 0.0344 0.5023 0.0000
vt 0.0615 0.5023 0.0000
vt 0.0864 0.5023 0.0000
vt 0.1103 0.5023 0.0000
vt 0.1339 0.5023 0.0000
vt 0.1575 0.5023 0.0000
vt 0.1814 0.5023 0.0000
vt 0.2062 0.5023 0.0000
vt 0.2334 0.5023 0.0000
vt 0.0427 0.4720 0.0000
vt 0.0642 0.4738 0.0000
vt 0.0871 0.4736 0.0000
vt 0.1104 0.4734 0.0000
vt 0.1339 0.4734 0.0000
vt 0.1574 0.4734 0.0000
vt 0.1807 0.4736 0.0000
vt 0.2036 0.4738 0.0000
vt 0.2251 0.4720 0.0000
vt 0.0558 0.4457 0.0000
vt 0.0753 0.4464 0.0000
vt 0.0985 0.4462 0.0000
vt 0.1221 0.4461 0.0000
vt 0.1457 0.4461 0.0000
vt 0.1693 0.4462 0.0000
vt 0.1924 0.4464 0.0000
vt 0.2120 0.4457 0.0000
vt 0.9368 0.6831 0.0000
vt 0.9410 0.6838 -0.0000
vt 0.9342 0.7175 -0.0000
vt 0.9327 0.7173 0.0000
vt 0.9198 0.6838 -0.0000
vt 0.9240 0.6831 -0.0000
vt 0.9281 0.7173 -0.0000
vt 0.9266 0.7175 -0.0000
vt 0.9283 0.6828 0.0000
vt 0.9296 0.7172 0.0000
vt 0.9325 0.6828 0.0000
vt 0.9312 0.7172 0.0000
# 169 texture coords

o Arbol_05
g Arbol_05
usemtl Material__8
s 8
f 1/1/1 2/2/2 3/3/2 4/4/1 
f 2/2/2 5/5/3 6/6/3 3/3/2 
f 5/5/3 7/7/4 8/8/4 6/6/3 
f 7/7/4 1/9/1 4/10/1 8/8/4 
f 9/11/5 10/12/6 11/13/7 12/14/8 
f 10/15/6 13/16/9 14/17/10 11/18/7 
f 13/16/9 15/19/11 16/20/12 14/17/10 
f 15/19/11 17/21/13 18/22/14 16/20/12 
f 17/21/13 9/11/5 12/14/8 18/22/14 
f 11/13/7 19/23/15 20/24/16 12/14/8 
f 14/17/10 21/25/17 19/26/15 11/18/7 
f 16/20/12 22/27/18 21/25/17 14/17/10 
f 18/22/14 23/28/19 22/27/18 16/20/12 
f 12/14/8 20/24/16 23/28/19 18/22/14 
s 1
f 24/29/20 25/30/21 26/31/22 
f 24/32/20 26/31/22 27/33/23 
f 24/34/20 27/33/23 28/35/24 
f 24/36/20 28/35/24 29/37/25 
f 24/38/20 29/37/25 30/39/26 
f 24/40/20 30/39/26 31/41/27 
f 24/42/20 31/41/27 32/43/28 
f 24/44/20 32/43/28 25/45/21 
f 25/30/21 33/46/29 34/47/30 26/31/22 
f 26/31/22 34/47/30 35/48/31 27/33/23 
f 27/33/23 35/48/31 36/49/32 28/35/24 
f 28/35/24 36/49/32 37/50/33 29/37/25 
f 29/37/25 37/50/33 38/51/34 30/39/26 
f 30/39/26 38/51/34 39/52/35 31/41/27 
f 31/41/27 39/52/35 40/53/36 32/43/28 
f 32/43/28 40/53/36 33/54/29 25/45/21 
f 33/46/29 41/55/37 42/56/38 34/47/30 
f 34/47/30 42/56/38 43/57/39 35/48/31 
f 35/48/31 43/57/39 44/58/40 36/49/32 
f 36/49/32 44/58/40 45/59/41 37/50/33 
f 37/50/33 45/59/41 46/60/42 38/51/34 
f 38/51/34 46/60/42 47/61/43 39/52/35 
f 39/52/35 47/61/43 48/62/44 40/53/36 
f 40/53/36 48/62/44 41/63/37 33/54/29 
f 49/64/45 42/56/38 41/55/37 
f 49/65/45 43/57/39 42/56/38 
f 49/66/45 44/58/40 43/57/39 
f 49/67/45 45/59/41 44/58/40 
f 49/68/45 46/60/42 45/59/41 
f 49/69/45 47/61/43 46/60/42 
f 49/70/45 48/62/44 47/61/43 
f 49/71/45 41/63/37 48/62/44 
f 50/72/46 51/73/47 52/74/48 
f 50/75/46 52/74/48 53/76/49 
f 50/77/46 53/76/49 54/78/50 
f 50/79/46 54/78/50 55/80/51 
f 50/81/46 55/80/51 56/82/52 
f 50/83/46 56/82/52 57/84/53 
f 50/85/46 57/84/53 58/86/54 
f 50/87/46 58/86/54 51/88/47 
f 51/73/47 59/89/55 60/90/56 52/74/48 
f 52/74/48 60/90/56 61/91/57 53/76/49 
f 53/76/49 61/91/57 62/92/58 54/78/50 
f 54/78/50 62/92/58 63/93/59 55/80/51 
f 55/80/51 63/93/59 64/94/60 56/82/52 
f 56/82/52 64/94/60 65/95/61 57/84/53 
f 57/84/53 65/95/61 66/96/62 58/86/54 
f 58/86/54 66/96/62 59/97/55 51/88/47 
f 59/89/55 67/98/63 68/99/64 60/90/56 
f 60/90/56 68/99/64 69/100/65 61/91/57 
f 61/91/57 69/100/65 70/101/66 62/92/58 
f 62/92/58 70/101/66 71/102/67 63/93/59 
f 63/93/59 71/102/67 72/103/68 64/94/60 
f 64/94/60 72/103/68 73/104/69 65/95/61 
f 65/95/61 73/104/69 74/105/70 66/96/62 
f 66/96/62 74/105/70 67/106/63 59/97/55 
f 75/107/71 68/99/64 67/98/63 
f 75/108/71 69/100/65 68/99/64 
f 75/109/71 70/101/66 69/100/65 
f 75/110/71 71/102/67 70/101/66 
f 75/111/71 72/103/68 71/102/67 
f 75/112/71 73/104/69 72/103/68 
f 75/113/71 74/105/70 73/104/69 
f 75/114/71 67/106/63 74/105/70 
f 76/115/72 77/116/47 78/117/48 
f 76/118/72 78/117/48 79/119/73 
f 76/120/72 79/119/73 80/121/50 
f 76/122/72 80/121/50 81/123/51 
f 76/124/72 81/123/51 82/125/52 
f 76/126/72 82/125/52 83/127/74 
f 76/128/72 83/127/74 84/129/54 
f 76/130/72 84/129/54 77/131/47 
f 77/116/47 85/132/75 86/133/56 78/117/48 
f 78/117/48 86/133/56 87/134/76 79/119/73 
f 79/119/73 87/134/76 88/135/58 80/121/50 
f 80/121/50 88/135/58 89/136/77 81/123/51 
f 81/123/51 89/136/77 90/137/60 82/125/52 
f 82/125/52 90/137/60 91/138/61 83/127/74 
f 83/127/74 91/138/61 92/139/62 84/129/54 
f 84/129/54 92/139/62 85/140/75 77/131/47 
f 85/132/75 93/141/63 94/142/64 86/133/56 
f 86/133/56 94/142/64 95/143/65 87/134/76 
f 87/134/76 95/143/65 96/144/66 88/135/58 
f 88/135/58 96/144/66 97/145/67 89/136/77 
f 89/136/77 97/145/67 98/146/68 90/137/60 
f 90/137/60 98/146/68 99/147/69 91/138/61 
f 91/138/61 99/147/69 100/148/70 92/139/62 
f 92/139/62 100/148/70 93/149/63 85/140/75 
f 101/150/71 94/142/64 93/141/63 
f 101/151/71 95/143/65 94/142/64 
f 101/152/71 96/144/66 95/143/65 
f 101/153/71 97/145/67 96/144/66 
f 101/154/71 98/146/68 97/145/67 
f 101/155/71 99/147/69 98/146/68 
f 101/156/71 100/148/70 99/147/69 
f 101/157/71 93/149/63 100/148/70 
s 8
f 102/158/78 103/159/79 104/160/79 105/161/78 
f 103/162/79 106/163/80 107/164/80 104/165/79 
f 106/163/80 108/166/81 109/167/81 107/164/80 
f 108/166/81 110/168/82 111/169/82 109/167/81 
f 110/168/82 102/158/78 105/161/78 111/169/82 
# 67 polygons - 48 triangles

