# 3ds Max Wavefront OBJ Exporter v0.97b - (c)2007 guruware
# File Created: 29.01.2020 12:15:16

mtllib Captus_02.mtl

#
# object Captus_02
#

v  2.5512 -0.0604 3.1357
v  1.6335 -0.0604 1.2302
v  1.9725 5.9706 0.3234
v  3.1465 6.3015 2.7519
v  -0.4283 -0.0604 0.7596
v  -0.6746 5.8155 -0.2720
v  -2.0818 -0.0604 2.0782
v  -2.8014 5.9531 1.4141
v  -2.0818 -0.0604 4.1931
v  -2.8064 6.2797 4.1120
v  -0.4283 -0.0604 5.5117
v  -0.6859 6.5494 5.7901
v  1.6336 -0.0604 5.0411
v  1.9633 6.5591 5.1848
v  2.1036 23.9356 -2.6284
v  0.8793 22.5508 -5.0167
v  -1.4702 24.4044 -2.9898
v  -2.0248 21.9021 -5.5329
v  -4.4218 22.4779 -3.7882
v  -4.5065 23.8446 -1.0965
v  -2.2155 24.9731 0.5154
v  0.7263 25.0136 -0.1663
v  2.0665 19.1052 -4.4771
v  1.7432 20.8445 -5.0891
v  3.3581 22.5405 -1.9110
v  3.7689 20.7325 -1.0952
v  -1.9111 18.3428 -5.2390
v  -2.0596 20.0500 -5.7901
v  -5.1689 19.0195 -2.8072
v  -5.1868 20.7552 -3.4862
v  -5.2534 20.6256 0.9871
v  -5.2834 22.4292 0.0877
v  -2.1011 21.9518 3.2868
v  -2.2768 23.8113 2.2404
v  1.9142 21.9994 2.3601
v  1.5690 23.8609 1.3509
v  2.1404 13.6659 -1.9738
v  3.6310 14.6523 1.0568
v  -1.2729 13.2038 -2.6915
v  -4.0387 13.6140 -0.5557
v  -4.0743 14.5876 2.8252
v  -1.3528 15.3914 4.9053
v  2.0764 15.4202 4.1183
v  2.0958 9.8746 -0.6734
v  3.4323 10.5037 2.0725
v  -0.9364 9.5799 -1.3376
v  -3.3810 9.8415 0.5802
v  -3.3972 10.4624 3.6357
v  -0.9727 10.9750 5.5281
v  2.0667 10.9934 4.8325
v  2.7363 14.6555 1.8475
v  2.5211 14.3950 2.3464
v  3.7290 15.1175 3.1132
v  3.8401 15.3798 2.3800
v  2.5093 13.8097 2.4895
v  4.0950 14.5283 3.4839
v  2.7098 13.3405 2.1689
v  4.6626 14.0559 3.2132
v  2.9716 13.3406 1.6262
v  5.0043 14.0561 2.5048
v  3.0976 13.8100 1.2699
v  4.8629 14.5287 1.8921
v  2.9929 14.3952 1.3684
v  4.3447 15.1178 1.8366
v  3.9945 18.5575 2.4552
v  3.9080 18.8066 3.2743
v  4.4803 19.4221 2.6898
v  4.3873 19.3666 3.7182
v  5.0716 19.8159 3.4527
v  5.4454 19.8161 2.6777
v  5.2274 19.3670 1.9767
v  4.5817 18.8069 1.8777
v  3.9999 18.0181 3.6323
v  3.8712 18.3998 3.5209
v  3.9440 18.1323 2.4308
v  4.0375 17.8185 2.4758
v  4.8350 18.4668 4.3253
v  4.5883 19.0013 4.1448
v  5.9137 18.8269 4.0329
v  5.5553 19.4838 3.8327
v  6.4238 18.8272 2.9753
v  6.0439 19.4840 2.8196
v  5.9813 18.4673 1.9489
v  5.6864 19.0018 1.8684
v  4.9193 18.0184 1.7266
v  4.7518 18.4002 1.6953
v  4.2334 17.4236 3.6628
v  4.2379 17.3613 2.5724
v  5.0786 17.5641 4.3403
v  6.1368 17.6769 4.0948
v  6.6114 17.6771 3.1110
v  6.1448 17.5645 2.1298
v  5.0886 17.4240 1.8901
v  4.1409 15.8144 3.4139
v  4.1909 16.0127 2.5494
v  4.3124 16.6149 3.5988
v  4.3211 16.7021 2.6123
v  4.7241 15.3690 3.9147
v  5.0683 16.4194 4.2080
v  5.5014 15.0120 3.6746
v  6.0195 16.2628 3.9813
v  5.8874 15.0121 2.8744
v  6.4498 16.2630 3.0893
v  5.5914 15.3694 2.1167
v  6.0351 16.4198 2.2038
v  4.8364 15.8147 1.9720
v  5.0877 16.6152 1.9915
v  -0.9647 10.9347 1.9353
v  -0.9223 10.4494 0.9237
v  -3.7640 11.3138 0.6150
v  -3.4484 11.8658 1.9353
v  -0.8268 9.3589 0.6739
v  -4.4733 10.0736 0.2889
v  -0.7504 8.4844 1.3739
v  -5.0421 9.0789 1.2026
v  -0.7504 8.4844 2.4967
v  -5.0421 9.0789 2.6681
v  -0.8268 9.3589 3.1968
v  -4.4733 10.0736 3.5818
v  -0.9223 10.4494 2.9469
v  -3.7640 11.3138 3.2557
v  -4.7951 17.6401 1.9353
v  -5.3859 18.0072 0.4908
v  -6.0655 19.0513 1.9353
v  -6.7137 18.8321 0.1340
v  -7.7785 19.4936 1.1336
v  -7.7785 19.4936 2.7370
v  -6.7137 18.8321 3.7366
v  -5.3859 18.0072 3.3799
v  -5.5673 16.4832 -0.0359
v  -5.3897 17.2370 0.0470
v  -4.5541 16.8783 1.9353
v  -4.6426 16.2689 1.9353
v  -7.6453 16.9649 -0.5228
v  -7.2673 18.0430 -0.4193
v  -9.3117 17.3511 0.8414
v  -8.7730 18.6894 0.8874
v  -9.3117 17.3511 3.0293
v  -8.7730 18.6894 2.9832
v  -7.6453 16.9649 4.3934
v  -7.2673 18.0430 4.2899
v  -5.5673 16.4832 3.9065
v  -5.3897 17.2370 3.8236
v  -5.7844 15.3200 0.1018
v  -4.9022 15.3577 1.9353
v  -7.7667 15.2351 -0.3511
v  -9.3564 15.1671 0.9178
v  -9.3564 15.1671 2.9529
v  -7.7667 15.2351 4.2217
v  -5.7844 15.3200 3.7689
v  -4.9107 12.4296 0.4439
v  -4.3685 12.9005 1.9353
v  -5.6014 13.8222 0.2728
v  -4.8576 14.1183 1.9353
v  -6.1292 11.3713 0.0755
v  -7.2727 13.1566 -0.1378
v  -7.1063 10.5227 1.1076
v  -8.6130 12.6229 1.0127
v  -7.1063 10.5227 2.7630
v  -8.6130 12.6229 2.8579
v  -6.1292 11.3713 3.7951
v  -7.2727 13.1566 4.0084
v  -4.9107 12.4296 3.4267
v  -5.6014 13.8222 3.5978
# 164 vertices

vn 0.9956 -0.0921 0.0171
vn 0.6275 -0.1501 -0.7640
vn 0.6331 -0.1812 -0.7526
vn 0.9967 -0.0775 0.0248
vn -0.2185 -0.1776 -0.9595
vn -0.2155 -0.2306 -0.9489
vn -0.8962 -0.1532 -0.4164
vn -0.8957 -0.1867 -0.4037
vn -0.8891 -0.0959 0.4475
vn -0.8864 -0.0842 0.4552
vn -0.2144 -0.0494 0.9755
vn -0.2132 -0.0014 0.9770
vn 0.6172 -0.0478 0.7854
vn 0.6169 0.0016 0.7870
vn 0.5665 0.7430 -0.3564
vn 0.3221 0.5000 -0.8039
vn -0.1172 0.8836 -0.4533
vn -0.2128 0.3913 -0.8953
vn -0.6549 0.4876 -0.5774
vn -0.6837 0.7266 -0.0674
vn -0.2524 0.9337 0.2539
vn 0.3143 0.9413 0.1231
vn 0.6421 -0.2320 -0.7307
vn 0.5712 0.0441 -0.8197
vn 0.9126 0.3808 -0.1490
vn 0.9954 0.0956 -0.0071
vn -0.2027 -0.3873 -0.8994
vn -0.2224 -0.1122 -0.9685
vn -0.8919 -0.2494 -0.3774
vn -0.8736 0.0265 -0.4859
vn -0.8998 0.0743 0.4300
vn -0.8941 0.3586 0.2683
vn -0.2343 0.3376 0.9116
vn -0.2644 0.6351 0.7257
vn 0.6029 0.3470 0.7184
vn 0.5409 0.6451 0.5398
vn 0.6427 -0.2853 -0.7110
vn 0.9992 -0.0252 0.0322
vn -0.2004 -0.4094 -0.8901
vn -0.8834 -0.2992 -0.3608
vn -0.8843 -0.0421 0.4650
vn -0.2179 0.1654 0.9619
vn 0.6134 0.1728 0.7707
vn 0.6355 -0.2344 -0.7356
vn 0.9983 -0.0521 0.0270
vn -0.2091 -0.3211 -0.9237
vn -0.8893 -0.2441 -0.3868
vn -0.8863 -0.0640 0.4586
vn -0.2158 0.0820 0.9730
vn 0.6171 0.0872 0.7821
vn -0.4583 0.8609 -0.2209
vn -0.6573 0.5098 0.5551
vn -0.7551 0.3792 0.5348
vn -0.6351 0.7092 -0.3062
vn -0.4042 -0.3026 0.8632
vn -0.3415 -0.2957 0.8921
vn 0.0693 -0.8786 0.4725
vn 0.2455 -0.7837 0.5705
vn 0.4130 -0.8785 -0.2402
vn 0.5994 -0.7836 -0.1633
vn 0.4240 -0.3023 -0.8537
vn 0.4857 -0.2954 -0.8227
vn 0.0252 0.5100 -0.8598
vn -0.0516 0.3795 -0.9238
vn -0.8621 0.2898 -0.4158
vn -0.9271 0.3699 0.0611
vn -0.6040 0.7419 -0.2912
vn -0.6195 0.6577 0.4285
vn -0.1067 0.9502 0.2928
vn 0.1626 0.9503 -0.2655
vn -0.0504 0.6579 -0.7514
vn -0.5293 0.3700 -0.7635
vn -0.8498 -0.2303 0.4741
vn -0.9321 0.0124 0.3620
vn -0.8941 -0.1206 -0.4313
vn -0.8343 -0.3768 -0.4025
vn -0.2096 0.0881 0.9738
vn -0.3721 0.3693 0.8516
vn 0.5753 0.3336 0.7468
vn 0.3653 0.6800 0.6357
vn 0.9426 0.3337 -0.0145
vn 0.7248 0.6801 -0.1096
vn 0.6317 0.0885 -0.7702
vn 0.4348 0.3696 -0.8212
vn -0.1579 -0.2300 -0.9603
vn -0.2969 0.0127 -0.9548
vn -0.8561 -0.2172 0.4690
vn -0.8595 -0.2989 -0.4147
vn -0.1726 -0.0709 0.9824
vn 0.6373 0.0277 0.7701
vn 0.9994 0.0278 0.0194
vn 0.6615 -0.0706 -0.7466
vn -0.1658 -0.2169 -0.9620
vn -0.8659 0.1800 0.4667
vn -0.8394 0.3627 -0.4048
vn -0.8906 -0.0246 0.4542
vn -0.9004 0.0252 -0.4344
vn -0.2601 -0.2240 0.9392
vn -0.2022 -0.1534 0.9673
vn 0.4817 -0.5358 0.6935
vn 0.6043 -0.2613 0.7527
vn 0.8427 -0.5356 -0.0548
vn 0.9653 -0.2611 0.0043
vn 0.5732 -0.2237 -0.7883
vn 0.6312 -0.1531 -0.7604
vn -0.1738 0.1803 -0.9681
vn -0.1989 -0.0243 -0.9797
vn 0.3510 0.9364 -0.0000
vn 0.2567 0.5632 -0.7854
vn 0.3749 0.4516 -0.8097
vn 0.5707 0.8212 -0.0000
vn 0.0419 -0.2997 -0.9531
vn -0.0273 -0.3050 -0.9520
vn -0.1105 -0.9117 -0.3956
vn -0.3253 -0.8534 -0.4073
vn -0.1105 -0.9117 0.3957
vn -0.3253 -0.8534 0.4074
vn 0.0419 -0.2997 0.9531
vn -0.0273 -0.3050 0.9520
vn 0.2567 0.5632 0.7854
vn 0.3749 0.4516 0.8097
vn 0.8919 0.4521 -0.0000
vn 0.7316 0.5051 -0.4578
vn 0.5310 0.8474 -0.0000
vn 0.2515 0.7125 -0.6550
vn -0.1962 0.9303 -0.3099
vn -0.1962 0.9303 0.3099
vn 0.2515 0.7125 0.6550
vn 0.7316 0.5051 0.4578
vn 0.5910 -0.1291 -0.7963
vn 0.6696 0.1312 -0.7310
vn 0.9985 0.0542 -0.0000
vn 0.9778 -0.2097 -0.0000
vn -0.2461 0.0461 -0.9681
vn -0.0986 0.3578 -0.9286
vn -0.8879 0.1817 -0.4226
vn -0.7144 0.5642 -0.4138
vn -0.8879 0.1817 0.4226
vn -0.7144 0.5642 0.4138
vn -0.2461 0.0461 0.9681
vn -0.0986 0.3578 0.9286
vn 0.5910 -0.1291 0.7963
vn 0.6696 0.1312 0.7310
vn 0.5965 -0.1149 -0.7944
vn 0.9918 -0.1280 -0.0000
vn -0.2549 -0.1170 -0.9599
vn -0.8995 -0.1310 -0.4167
vn -0.8995 -0.1310 0.4167
vn -0.2549 -0.1170 0.9599
vn 0.5965 -0.1149 0.7944
vn 0.5369 0.2780 -0.7965
vn 0.8545 0.5195 -0.0000
vn 0.5998 0.0812 -0.7960
vn 0.9800 0.1990 -0.0000
vn -0.1322 -0.2507 -0.9590
vn -0.2078 -0.1924 -0.9591
vn -0.6306 -0.6556 -0.4154
vn -0.8125 -0.4090 -0.4155
vn -0.6306 -0.6556 0.4154
vn -0.8125 -0.4090 0.4155
vn -0.1322 -0.2507 0.9590
vn -0.2078 -0.1924 0.9591
vn 0.5369 0.2779 0.7965
vn 0.5998 0.0813 0.7960
# 164 vertex normals

vt 0.2612 0.5562 0.0000
vt 0.2749 0.5568 0.0000
vt 0.2798 0.5935 0.0000
vt 0.2633 0.5944 0.0000
vt 0.2877 0.5554 0.0000
vt 0.2959 0.5908 0.0000
vt 0.1907 0.5533 0.0000
vt 0.2034 0.5554 0.0000
vt 0.1969 0.5918 0.0000
vt 0.1809 0.5883 0.0000
vt 0.2171 0.5554 0.0000
vt 0.2134 0.5934 0.0000
vt 0.2317 0.5548 0.0000
vt 0.2300 0.5940 0.0000
vt 0.2466 0.5551 0.0000
vt 0.2466 0.5944 0.0000
vt 0.2695 0.7056 0.0000
vt 0.2904 0.7020 0.0000
vt 0.2835 0.7232 0.0000
vt 0.3096 0.7023 0.0000
vt 0.2997 0.7218 0.0000
vt 0.1622 0.6988 0.0000
vt 0.1814 0.6993 0.0000
vt 0.1713 0.7188 0.0000
vt 0.2021 0.7038 0.0000
vt 0.1876 0.7209 0.0000
vt 0.2243 0.7074 0.0000
vt 0.2100 0.7251 0.0000
vt 0.2472 0.7080 0.0000
vt 0.2352 0.7274 0.0000
vt 0.2605 0.7264 0.0000
vt 0.2915 0.6792 0.0000
vt 0.2914 0.6905 0.0000
vt 0.2692 0.6942 0.0000
vt 0.2690 0.6827 0.0000
vt 0.3154 0.6768 0.0000
vt 0.3144 0.6905 0.0000
vt 0.1814 0.6766 0.0000
vt 0.1810 0.6878 0.0000
vt 0.1580 0.6868 0.0000
vt 0.1576 0.6731 0.0000
vt 0.2037 0.6810 0.0000
vt 0.2030 0.6925 0.0000
vt 0.2255 0.6842 0.0000
vt 0.2249 0.6960 0.0000
vt 0.2471 0.6848 0.0000
vt 0.2471 0.6966 0.0000
vt 0.2877 0.6430 0.0000
vt 0.2672 0.6447 0.0000
vt 0.3085 0.6398 0.0000
vt 0.1868 0.6407 0.0000
vt 0.1662 0.6365 0.0000
vt 0.2073 0.6433 0.0000
vt 0.2273 0.6449 0.0000
vt 0.2471 0.6453 0.0000
vt 0.2839 0.6182 0.0000
vt 0.2654 0.6196 0.0000
vt 0.3023 0.6149 0.0000
vt 0.1917 0.6162 0.0000
vt 0.1735 0.6121 0.0000
vt 0.2102 0.6184 0.0000
vt 0.2286 0.6195 0.0000
vt 0.2470 0.6199 0.0000
vt 0.1166 0.4379 0.0000
vt 0.1218 0.4360 0.0000
vt 0.1242 0.4501 0.0000
vt 0.1174 0.4507 0.0000
vt 0.1273 0.4319 0.0000
vt 0.1309 0.4486 0.0000
vt 0.1342 0.4281 0.0000
vt 0.1375 0.4471 0.0000
vt 0.1423 0.4271 0.0000
vt 0.1440 0.4463 0.0000
vt 0.1500 0.4290 0.0000
vt 0.1507 0.4460 0.0000
vt 0.1563 0.4315 0.0000
vt 0.1576 0.4458 0.0000
vt 0.1618 0.4321 0.0000
vt 0.1644 0.4446 0.0000
vt 0.1157 0.4892 0.0000
vt 0.1235 0.4904 0.0000
vt 0.1184 0.4977 0.0000
vt 0.1320 0.4939 0.0000
vt 0.1245 0.4995 0.0000
vt 0.1419 0.4959 0.0000
vt 0.1353 0.5029 0.0000
vt 0.1522 0.4946 0.0000
vt 0.1481 0.5033 0.0000
vt 0.1612 0.4901 0.0000
vt 0.1604 0.4996 0.0000
vt 0.1686 0.4846 0.0000
vt 0.1697 0.4938 0.0000
vt 0.1759 0.4815 0.0000
vt 0.1754 0.4903 0.0000
vt 0.1233 0.4819 0.0000
vt 0.1235 0.4860 0.0000
vt 0.1141 0.4850 0.0000
vt 0.1136 0.4806 0.0000
vt 0.1324 0.4845 0.0000
vt 0.1324 0.4893 0.0000
vt 0.1413 0.4858 0.0000
vt 0.1417 0.4910 0.0000
vt 0.1501 0.4846 0.0000
vt 0.1511 0.4898 0.0000
vt 0.1585 0.4811 0.0000
vt 0.1597 0.4858 0.0000
vt 0.1666 0.4763 0.0000
vt 0.1675 0.4804 0.0000
vt 0.1757 0.4726 0.0000
vt 0.1763 0.4770 0.0000
vt 0.1235 0.4756 0.0000
vt 0.1143 0.4744 0.0000
vt 0.1323 0.4769 0.0000
vt 0.1406 0.4773 0.0000
vt 0.1487 0.4763 0.0000
vt 0.1567 0.4738 0.0000
vt 0.1648 0.4703 0.0000
vt 0.1734 0.4667 0.0000
vt 0.1242 0.4588 0.0000
vt 0.1166 0.4586 0.0000
vt 0.1239 0.4674 0.0000
vt 0.1154 0.4666 0.0000
vt 0.1315 0.4581 0.0000
vt 0.1319 0.4675 0.0000
vt 0.1386 0.4571 0.0000
vt 0.1396 0.4670 0.0000
vt 0.1455 0.4562 0.0000
vt 0.1471 0.4661 0.0000
vt 0.1526 0.4553 0.0000
vt 0.1546 0.4645 0.0000
vt 0.1599 0.4541 0.0000
vt 0.1624 0.4624 0.0000
vt 0.1672 0.4520 0.0000
vt 0.1703 0.4595 0.0000
vt 0.3830 0.7099 0.0000
vt 0.3930 0.7074 0.0000
vt 0.3948 0.7340 0.0000
vt 0.3820 0.7339 0.0000
vt 0.4039 0.7008 0.0000
vt 0.4076 0.7325 0.0000
vt 0.4175 0.6951 0.0000
vt 0.4200 0.7309 0.0000
vt 0.4328 0.6946 0.0000
vt 0.4323 0.7306 0.0000
vt 0.4467 0.6996 0.0000
vt 0.4448 0.7314 0.0000
vt 0.4580 0.7055 0.0000
vt 0.4577 0.7323 0.0000
vt 0.4681 0.7075 0.0000
vt 0.4705 0.7314 0.0000
vt 0.3731 0.8078 0.0000
vt 0.3872 0.8074 0.0000
vt 0.3830 0.8230 0.0000
vt 0.4008 0.8169 0.0000
vt 0.4190 0.8225 0.0000
vt 0.4053 0.8341 0.0000
vt 0.4384 0.8219 0.0000
vt 0.4291 0.8374 0.0000
vt 0.4560 0.8153 0.0000
vt 0.4526 0.8328 0.0000
vt 0.4708 0.8066 0.0000
vt 0.4711 0.8238 0.0000
vt 0.4849 0.8020 0.0000
vt 0.4825 0.8185 0.0000
vt 0.3873 0.7927 0.0000
vt 0.3873 0.7999 0.0000
vt 0.3697 0.7988 0.0000
vt 0.3692 0.7897 0.0000
vt 0.4036 0.7995 0.0000
vt 0.4028 0.8084 0.0000
vt 0.4200 0.8035 0.0000
vt 0.4197 0.8134 0.0000
vt 0.4365 0.8030 0.0000
vt 0.4373 0.8129 0.0000
vt 0.4527 0.7981 0.0000
vt 0.4540 0.8070 0.0000
vt 0.4687 0.7908 0.0000
vt 0.4695 0.7985 0.0000
vt 0.4863 0.7856 0.0000
vt 0.4866 0.7938 0.0000
vt 0.3887 0.7812 0.0000
vt 0.3717 0.7777 0.0000
vt 0.4048 0.7854 0.0000
vt 0.4202 0.7877 0.0000
vt 0.4354 0.7873 0.0000
vt 0.4507 0.7841 0.0000
vt 0.4665 0.7791 0.0000
vt 0.4832 0.7742 0.0000
vt 0.3930 0.7501 0.0000
vt 0.3789 0.7484 0.0000
vt 0.3908 0.7660 0.0000
vt 0.3753 0.7632 0.0000
vt 0.4068 0.7502 0.0000
vt 0.4059 0.7678 0.0000
vt 0.4201 0.7497 0.0000
vt 0.4202 0.7684 0.0000
vt 0.4333 0.7493 0.0000
vt 0.4343 0.7680 0.0000
vt 0.4466 0.7490 0.0000
vt 0.4486 0.7666 0.0000
vt 0.4603 0.7482 0.0000
vt 0.4634 0.7640 0.0000
vt 0.4743 0.7457 0.0000
vt 0.4787 0.7602 0.0000
# 204 texture coords

o Captus_02
g Captus_02
usemtl Material__8
s 2
f 1/1/1 2/2/2 3/3/3 4/4/4 
s 4
f 2/2/2 5/5/5 6/6/6 3/3/3 
s 2
f 5/7/5 7/8/7 8/9/8 6/10/6 
s 4
f 7/8/7 9/11/9 10/12/10 8/9/8 
s 2
f 9/11/9 11/13/11 12/14/12 10/12/10 
s 4
f 11/13/11 13/15/13 14/16/14 12/14/12 
s 8
f 13/15/13 1/1/1 4/4/4 14/16/14 
s 3
f 15/17/15 16/18/16 17/19/17 
s 5
f 16/18/16 18/20/18 17/21/17 
s 3
f 18/22/18 19/23/19 17/24/17 
s 5
f 19/23/19 20/25/20 17/26/17 
s 3
f 20/25/20 21/27/21 17/28/17 
s 5
f 21/27/21 22/29/22 17/30/17 
s 9
f 22/29/22 15/17/15 17/31/17 
s 2
f 23/32/23 24/33/24 25/34/25 26/35/26 
s 4
f 27/36/27 28/37/28 24/33/24 23/32/23 
s 2
f 29/38/29 30/39/30 28/40/28 27/41/27 
s 4
f 31/42/31 32/43/32 30/39/30 29/38/29 
s 2
f 33/44/33 34/45/34 32/43/32 31/42/31 
s 4
f 35/46/35 36/47/36 34/45/34 33/44/33 
s 8
f 26/35/26 25/34/25 36/47/36 35/46/35 
s 2
f 24/33/24 16/18/16 15/17/15 25/34/25 
s 4
f 28/37/28 18/20/18 16/18/16 24/33/24 
s 2
f 30/39/30 19/23/19 18/22/18 28/40/28 
s 4
f 32/43/32 20/25/20 19/23/19 30/39/30 
s 2
f 34/45/34 21/27/21 20/25/20 32/43/32 
s 4
f 36/47/36 22/29/22 21/27/21 34/45/34 
s 8
f 25/34/25 15/17/15 22/29/22 36/47/36 
s 2
f 37/48/37 23/32/23 26/35/26 38/49/38 
s 4
f 39/50/39 27/36/27 23/32/23 37/48/37 
s 2
f 40/51/40 29/38/29 27/41/27 39/52/39 
s 4
f 41/53/41 31/42/31 29/38/29 40/51/40 
s 2
f 42/54/42 33/44/33 31/42/31 41/53/41 
s 4
f 43/55/43 35/46/35 33/44/33 42/54/42 
s 8
f 38/49/38 26/35/26 35/46/35 43/55/43 
s 2
f 3/3/3 44/56/44 45/57/45 4/4/4 
s 4
f 6/6/6 46/58/46 44/56/44 3/3/3 
s 2
f 8/9/8 47/59/47 46/60/46 6/10/6 
s 4
f 10/12/10 48/61/48 47/59/47 8/9/8 
s 2
f 12/14/12 49/62/49 48/61/48 10/12/10 
s 4
f 14/16/14 50/63/50 49/62/49 12/14/12 
s 8
f 4/4/4 45/57/45 50/63/50 14/16/14 
s 2
f 44/56/44 37/48/37 38/49/38 45/57/45 
s 4
f 46/58/46 39/50/39 37/48/37 44/56/44 
s 2
f 47/59/47 40/51/40 39/52/39 46/60/46 
s 4
f 48/61/48 41/53/41 40/51/40 47/59/47 
s 2
f 49/62/49 42/54/42 41/53/41 48/61/48 
s 4
f 50/63/50 43/55/43 42/54/42 49/62/49 
s 8
f 45/57/45 38/49/38 43/55/43 50/63/50 
s 2
f 51/64/51 52/65/52 53/66/53 54/67/54 
s 4
f 52/65/52 55/68/55 56/69/56 53/66/53 
s 2
f 55/68/55 57/70/57 58/71/58 56/69/56 
s 4
f 57/70/57 59/72/59 60/73/60 58/71/58 
s 2
f 59/72/59 61/74/61 62/75/62 60/73/60 
s 4
f 61/74/61 63/76/63 64/77/64 62/75/62 
s 8
f 63/76/63 51/78/51 54/79/54 64/77/64 
s 3
f 65/80/65 66/81/66 67/82/67 
s 5
f 66/81/66 68/83/68 67/84/67 
s 3
f 68/83/68 69/85/69 67/86/67 
s 5
f 69/85/69 70/87/70 67/88/67 
s 3
f 70/87/70 71/89/71 67/90/67 
s 5
f 71/89/71 72/91/72 67/92/67 
s 9
f 72/91/72 65/93/65 67/94/67 
s 2
f 73/95/73 74/96/74 75/97/75 76/98/76 
s 4
f 77/99/77 78/100/78 74/96/74 73/95/73 
s 2
f 79/101/79 80/102/80 78/100/78 77/99/77 
s 4
f 81/103/81 82/104/82 80/102/80 79/101/79 
s 2
f 83/105/83 84/106/84 82/104/82 81/103/81 
s 4
f 85/107/85 86/108/86 84/106/84 83/105/83 
s 8
f 76/109/76 75/110/75 86/108/86 85/107/85 
s 2
f 74/96/74 66/81/66 65/80/65 75/97/75 
s 4
f 78/100/78 68/83/68 66/81/66 74/96/74 
s 2
f 80/102/80 69/85/69 68/83/68 78/100/78 
s 4
f 82/104/82 70/87/70 69/85/69 80/102/80 
s 2
f 84/106/84 71/89/71 70/87/70 82/104/82 
s 4
f 86/108/86 72/91/72 71/89/71 84/106/84 
s 8
f 75/110/75 65/93/65 72/91/72 86/108/86 
s 2
f 87/111/87 73/95/73 76/98/76 88/112/88 
s 4
f 89/113/89 77/99/77 73/95/73 87/111/87 
s 2
f 90/114/90 79/101/79 77/99/77 89/113/89 
s 4
f 91/115/91 81/103/81 79/101/79 90/114/90 
s 2
f 92/116/92 83/105/83 81/103/81 91/115/91 
s 4
f 93/117/93 85/107/85 83/105/83 92/116/92 
s 8
f 88/118/88 76/109/76 85/107/85 93/117/93 
s 2
f 53/66/53 94/119/94 95/120/95 54/67/54 
f 94/119/94 96/121/96 97/122/97 95/120/95 
f 96/121/96 87/111/87 88/112/88 97/122/97 
s 4
f 56/69/56 98/123/98 94/119/94 53/66/53 
f 98/123/98 99/124/99 96/121/96 94/119/94 
f 99/124/99 89/113/89 87/111/87 96/121/96 
s 2
f 58/71/58 100/125/100 98/123/98 56/69/56 
f 100/125/100 101/126/101 99/124/99 98/123/98 
f 101/126/101 90/114/90 89/113/89 99/124/99 
s 4
f 60/73/60 102/127/102 100/125/100 58/71/58 
f 102/127/102 103/128/103 101/126/101 100/125/100 
f 103/128/103 91/115/91 90/114/90 101/126/101 
s 2
f 62/75/62 104/129/104 102/127/102 60/73/60 
f 104/129/104 105/130/105 103/128/103 102/127/102 
f 105/130/105 92/116/92 91/115/91 103/128/103 
s 4
f 64/77/64 106/131/106 104/129/104 62/75/62 
f 106/131/106 107/132/107 105/130/105 104/129/104 
f 107/132/107 93/117/93 92/116/92 105/130/105 
s 8
f 54/79/54 95/133/95 106/131/106 64/77/64 
f 95/133/95 97/134/97 107/132/107 106/131/106 
f 97/134/97 88/118/88 93/117/93 107/132/107 
s 2
f 108/135/108 109/136/109 110/137/110 111/138/111 
s 4
f 109/136/109 112/139/112 113/140/113 110/137/110 
s 2
f 112/139/112 114/141/114 115/142/115 113/140/113 
s 4
f 114/141/114 116/143/116 117/144/117 115/142/115 
s 2
f 116/143/116 118/145/118 119/146/119 117/144/117 
s 4
f 118/145/118 120/147/120 121/148/121 119/146/119 
s 8
f 120/147/120 108/149/108 111/150/111 121/148/121 
s 3
f 122/151/122 123/152/123 124/153/124 
s 5
f 123/152/123 125/154/125 124/153/124 
s 3
f 125/154/125 126/155/126 124/156/124 
s 5
f 126/155/126 127/157/127 124/158/124 
s 3
f 127/157/127 128/159/128 124/160/124 
s 5
f 128/159/128 129/161/129 124/162/124 
s 9
f 129/161/129 122/163/122 124/164/124 
s 2
f 130/165/130 131/166/131 132/167/132 133/168/133 
s 4
f 134/169/134 135/170/135 131/166/131 130/165/130 
s 2
f 136/171/136 137/172/137 135/170/135 134/169/134 
s 4
f 138/173/138 139/174/139 137/172/137 136/171/136 
s 2
f 140/175/140 141/176/141 139/174/139 138/173/138 
s 4
f 142/177/142 143/178/143 141/176/141 140/175/140 
s 8
f 133/179/133 132/180/132 143/178/143 142/177/142 
s 2
f 131/166/131 123/152/123 122/151/122 132/167/132 
s 4
f 135/170/135 125/154/125 123/152/123 131/166/131 
s 2
f 137/172/137 126/155/126 125/154/125 135/170/135 
s 4
f 139/174/139 127/157/127 126/155/126 137/172/137 
s 2
f 141/176/141 128/159/128 127/157/127 139/174/139 
s 4
f 143/178/143 129/161/129 128/159/128 141/176/141 
s 8
f 132/180/132 122/163/122 129/161/129 143/178/143 
s 2
f 144/181/144 130/165/130 133/168/133 145/182/145 
s 4
f 146/183/146 134/169/134 130/165/130 144/181/144 
s 2
f 147/184/147 136/171/136 134/169/134 146/183/146 
s 4
f 148/185/148 138/173/138 136/171/136 147/184/147 
s 2
f 149/186/149 140/175/140 138/173/138 148/185/148 
s 4
f 150/187/150 142/177/142 140/175/140 149/186/149 
s 8
f 145/188/145 133/179/133 142/177/142 150/187/150 
s 2
f 110/137/110 151/189/151 152/190/152 111/138/111 
f 151/189/151 153/191/153 154/192/154 152/190/152 
f 153/191/153 144/181/144 145/182/145 154/192/154 
s 4
f 113/140/113 155/193/155 151/189/151 110/137/110 
f 155/193/155 156/194/156 153/191/153 151/189/151 
f 156/194/156 146/183/146 144/181/144 153/191/153 
s 2
f 115/142/115 157/195/157 155/193/155 113/140/113 
f 157/195/157 158/196/158 156/194/156 155/193/155 
f 158/196/158 147/184/147 146/183/146 156/194/156 
s 4
f 117/144/117 159/197/159 157/195/157 115/142/115 
f 159/197/159 160/198/160 158/196/158 157/195/157 
f 160/198/160 148/185/148 147/184/147 158/196/158 
s 2
f 119/146/119 161/199/161 159/197/159 117/144/117 
f 161/199/161 162/200/162 160/198/160 159/197/159 
f 162/200/162 149/186/149 148/185/148 160/198/160 
s 4
f 121/148/121 163/201/163 161/199/161 119/146/119 
f 163/201/163 164/202/164 162/200/162 161/199/161 
f 164/202/164 150/187/150 149/186/149 162/200/162 
s 8
f 111/150/111 152/203/152 163/201/163 121/148/121 
f 152/203/152 154/204/154 164/202/164 163/201/163 
f 154/204/154 145/188/145 150/187/150 164/202/164 
# 140 polygons - 21 triangles

