# 3ds Max Wavefront OBJ Exporter v0.97b - (c)2007 guruware
# File Created: 29.01.2020 12:16:25

mtllib Captus_03.mtl

#
# object Captus_03
#

v  2.8213 -1.3643 -2.8993
v  2.3152 -1.3700 -4.1051
v  7.0972 4.5425 -5.2989
v  7.5977 4.3321 -3.6611
v  1.2719 -0.7224 -4.5545
v  5.7736 5.4536 -5.9042
v  0.4769 0.0910 -3.9091
v  4.6235 6.3794 -5.0212
v  0.5288 0.4575 -2.6549
v  4.5131 6.6226 -3.3149
v  1.4274 0.1541 -1.7496
v  5.5255 6.0002 -2.0701
v  2.4089 -0.7096 -1.8451
v  6.8982 4.9809 -2.2242
v  8.0614 6.2334 -5.3332
v  7.5813 7.6240 -4.1561
v  8.4460 6.0099 -3.9525
v  6.9616 7.0103 -5.8427
v  5.9749 7.7557 -5.0975
v  5.8443 7.9082 -3.6586
v  6.6259 7.3204 -2.6054
v  7.7836 6.4753 -2.7362
v  0.7236 0.2017 1.2106
v  0.6186 1.6784 -0.2268
v  -0.4993 4.7917 3.5105
v  -0.3143 2.8839 5.1287
v  -0.9966 2.2346 -1.3844
v  -2.4891 5.5002 2.1346
v  -2.9056 1.4514 -1.3904
v  -4.7852 4.4760 2.0371
v  -3.6711 -0.0814 -0.2404
v  -5.6588 2.4903 3.2915
v  -2.7314 -1.1852 1.2328
v  -4.4519 1.0383 4.9531
v  -0.7606 -1.0836 1.8455
v  -2.0734 1.2135 5.7708
v  -1.3434 5.1045 4.6293
v  -3.7200 4.1624 5.7449
v  -1.1744 3.4879 5.9532
v  -3.0153 5.7034 3.4851
v  -4.9310 4.8334 3.3821
v  -5.6481 3.1499 4.3980
v  -4.6331 1.9083 5.7292
v  -2.6421 2.0587 6.4211
v  -2.8436 0.5710 0.0849
v  -2.9576 0.0635 -1.4024
v  -4.8198 3.3123 -2.1105
v  -4.6022 3.8192 -0.2762
v  -4.0660 -0.8536 -2.0452
v  -6.1962 2.2234 -2.9008
v  -5.3342 -1.4896 -1.3594
v  -7.6952 1.3723 -2.0519
v  -5.8069 -1.3656 0.1385
v  -8.1877 1.4001 -0.2031
v  -5.1483 -0.5482 1.3169
v  -7.3031 2.2857 1.2534
v  -3.8097 0.2869 1.2968
v  -5.7074 3.3624 1.2209
v  -5.6486 3.9860 -1.8623
v  -7.3929 3.9513 -0.6404
v  -5.4485 4.3865 -0.3254
v  -6.8074 3.0800 -2.5245
v  -8.0522 2.3507 -1.8134
v  -8.4459 2.3473 -0.2644
v  -7.6891 3.0416 0.9513
v  -6.3552 3.9489 0.9242
v  3.4457 -0.3586 -2.4539
v  1.9137 -0.3587 -5.6353
v  2.5128 8.1552 -5.3190
v  4.3840 7.8466 -1.4679
v  -1.5289 -0.3587 -6.4211
v  -1.6940 8.2416 -6.2688
v  -4.2896 -0.3587 -4.2195
v  -5.0688 8.0408 -3.6023
v  -4.2897 -0.3586 -0.6883
v  -5.0703 7.7040 0.6727
v  -1.5308 -0.2843 1.5233
v  -1.6972 7.4848 3.3370
v  1.9137 -0.3586 0.7275
v  2.5103 7.5483 2.3843
v  2.0317 10.2420 -4.1139
v  -0.5499 11.6227 -0.3437
v  3.5995 9.9181 -0.9035
v  -1.4946 10.3327 -4.9052
v  -4.3240 10.1219 -2.6815
v  -4.3259 9.7684 0.8827
v  -1.5364 9.4817 3.0863
v  1.9908 9.5479 2.2912
v  2.7655 -1.2956 0.0624
v  2.7811 -0.4411 -0.9898
v  4.8340 1.3882 0.7959
v  4.7498 0.2757 2.0086
v  1.9358 0.5839 -1.2587
v  3.8193 2.6599 0.4877
v  0.8661 1.0076 -0.5419
v  2.4696 3.1333 1.3162
v  0.3776 0.5109 0.6209
v  1.8013 2.4519 2.6574
v  0.8530 -0.5154 1.3720
v  2.3177 1.1288 3.5015
v  1.9007 -1.3361 1.1055
v  3.6299 0.1603 3.2128
v  5.0073 1.8447 1.6030
v  4.0833 2.3298 3.1092
v  4.9241 0.8993 2.6009
v  4.1602 2.9144 1.3499
v  3.0206 3.3029 2.0322
v  2.4468 2.7176 3.1361
v  2.8499 1.5981 3.8134
v  3.9523 0.7889 3.5751
# 110 vertices

vn 0.7688 -0.6299 0.1104
vn 0.4843 -0.5320 -0.6946
vn 0.5640 -0.4578 -0.6873
vn 0.8358 -0.5328 0.1325
vn -0.1685 -0.0917 -0.9814
vn -0.1144 -0.0039 -0.9934
vn -0.7309 0.3819 -0.5656
vn -0.6815 0.4840 -0.5490
vn -0.7915 0.5418 0.2828
vn -0.7109 0.6351 0.3021
vn -0.2678 0.2389 0.9334
vn -0.1847 0.3401 0.9221
vn 0.4404 -0.2908 0.8494
vn 0.5048 -0.1755 0.8452
vn 0.7867 0.0411 -0.6159
vn 0.5874 0.8092 -0.0080
vn 0.9955 -0.0392 0.0860
vn 0.2206 0.4305 -0.8752
vn -0.2677 0.8247 -0.4982
vn -0.3025 0.9270 0.2219
vn 0.1182 0.6579 0.7438
vn 0.6903 0.2350 0.6843
vn 0.9243 -0.1532 0.3497
vn 0.8366 0.5171 -0.1805
vn 0.7517 0.6592 0.0210
vn 0.8510 -0.0250 0.5246
vn 0.1664 0.7570 -0.6319
vn 0.0807 0.9023 -0.4235
vn -0.6030 0.4045 -0.6876
vn -0.6806 0.5417 -0.4934
vn -0.9079 -0.3009 -0.2918
vn -0.9744 -0.1840 -0.1294
vn -0.4899 -0.8292 0.2690
vn -0.5473 -0.7295 0.4102
vn 0.3348 -0.7602 0.5568
vn 0.2736 -0.6489 0.7099
vn 0.3926 0.8003 0.4531
vn -0.3175 0.5465 0.7749
vn 0.4753 0.2603 0.8404
vn -0.1208 0.9857 0.1176
vn -0.7032 0.7088 0.0555
vn -0.9330 0.1402 0.3315
vn -0.6052 -0.2887 0.7419
vn 0.0239 -0.2295 0.9730
vn 0.8536 0.4837 0.1935
vn 0.7246 0.2779 -0.6306
vn 0.5751 0.4901 -0.6551
vn 0.7231 0.6700 0.1678
vn 0.1150 -0.1915 -0.9747
vn -0.0374 0.0278 -0.9989
vn -0.5365 -0.5888 -0.6045
vn -0.6766 -0.3831 -0.6288
vn -0.7511 -0.6179 0.2323
vn -0.8703 -0.4454 0.2102
vn -0.3418 -0.2395 0.9088
vn -0.4445 -0.0902 0.8912
vn 0.3803 0.2566 0.8886
vn 0.2691 0.4200 0.8667
vn 0.1198 0.8306 -0.5438
vn -0.5666 0.8185 -0.0954
vn 0.2427 0.9649 0.1006
vn -0.3496 0.4806 -0.8043
vn -0.8368 0.1583 -0.5242
vn -0.9864 0.1017 0.1290
vn -0.6567 0.3667 0.6590
vn -0.1096 0.7579 0.6431
vn 0.9934 -0.1095 -0.0342
vn 0.6064 -0.0131 -0.7951
vn 0.6061 0.2448 -0.7568
vn 0.9931 0.1176 -0.0047
vn -0.2164 0.0131 -0.9762
vn -0.2147 0.2782 -0.9362
vn -0.8866 -0.0484 -0.4601
vn -0.8831 0.1992 -0.4249
vn -0.9044 -0.1547 0.3976
vn -0.9031 0.0543 0.4260
vn -0.2256 -0.2261 0.9476
vn -0.2239 -0.0458 0.9735
vn 0.6280 -0.2047 0.7508
vn 0.6304 -0.0075 0.7762
vn 0.4660 0.7383 -0.4876
vn 0.0071 0.9896 0.1437
vn 0.7707 0.6295 0.0987
vn -0.1599 0.7666 -0.6219
vn -0.6750 0.6994 -0.2347
vn -0.6944 0.5794 0.4266
vn -0.1738 0.4932 0.8524
vn 0.4818 0.5219 0.7039
vn 0.6648 -0.7430 -0.0779
vn 0.7165 -0.1364 -0.6841
vn 0.8549 0.0102 -0.5187
vn 0.7880 -0.6123 0.0640
vn 0.2034 0.5157 -0.8323
vn 0.3468 0.6647 -0.6617
vn -0.5028 0.7519 -0.4263
vn -0.3667 0.8906 -0.2689
vn -0.8876 0.3839 0.2546
vn -0.7734 0.5026 0.3863
vn -0.6379 -0.3318 0.6950
vn -0.5396 -0.2304 0.8098
vn 0.0618 -0.8370 0.5437
vn 0.1709 -0.7253 0.6668
vn 0.9483 0.3154 -0.0353
vn 0.5379 0.5580 0.6319
vn 0.8927 -0.1779 0.4141
vn 0.5616 0.8154 -0.1407
vn 0.0105 0.9882 0.1529
vn -0.3127 0.6846 0.6584
vn -0.1413 0.1147 0.9833
vn 0.4024 -0.2667 0.8757
# 110 vertex normals

vt 0.4984 0.4874 0.0000
vt 0.5099 0.4845 0.0000
vt 0.5136 0.5303 0.0000
vt 0.5009 0.5323 0.0000
vt 0.5217 0.4853 0.0000
vt 0.5273 0.5327 0.0000
vt 0.4399 0.4868 0.0000
vt 0.4514 0.4920 0.0000
vt 0.4494 0.5387 0.0000
vt 0.4356 0.5344 0.0000
vt 0.4630 0.4961 0.0000
vt 0.4623 0.5420 0.0000
vt 0.4748 0.4968 0.0000
vt 0.4751 0.5413 0.0000
vt 0.4868 0.4926 0.0000
vt 0.4882 0.5371 0.0000
vt 0.5128 0.5436 0.0000
vt 0.5069 0.5628 0.0000
vt 0.5005 0.5448 0.0000
vt 0.5248 0.5464 0.0000
vt 0.5171 0.5631 0.0000
vt 0.4507 0.5506 0.0000
vt 0.4442 0.5654 0.0000
vt 0.4384 0.5479 0.0000
vt 0.4630 0.5529 0.0000
vt 0.4563 0.5659 0.0000
vt 0.4754 0.5519 0.0000
vt 0.4706 0.5654 0.0000
vt 0.4881 0.5485 0.0000
vt 0.4831 0.5640 0.0000
vt 0.4953 0.5631 0.0000
vt 0.4960 0.5758 0.0000
vt 0.5071 0.5729 0.0000
vt 0.5107 0.6171 0.0000
vt 0.4984 0.6189 0.0000
vt 0.5184 0.5737 0.0000
vt 0.5238 0.6193 0.0000
vt 0.4397 0.5752 0.0000
vt 0.4508 0.5802 0.0000
vt 0.4488 0.6251 0.0000
vt 0.4356 0.6209 0.0000
vt 0.4620 0.5841 0.0000
vt 0.4613 0.6283 0.0000
vt 0.4733 0.5848 0.0000
vt 0.4736 0.6276 0.0000
vt 0.4848 0.5808 0.0000
vt 0.4862 0.6236 0.0000
vt 0.5098 0.6298 0.0000
vt 0.5042 0.6483 0.0000
vt 0.4980 0.6310 0.0000
vt 0.5214 0.6325 0.0000
vt 0.5140 0.6486 0.0000
vt 0.4502 0.6366 0.0000
vt 0.4439 0.6508 0.0000
vt 0.4383 0.6340 0.0000
vt 0.4620 0.6388 0.0000
vt 0.4555 0.6513 0.0000
vt 0.4739 0.6378 0.0000
vt 0.4693 0.6508 0.0000
vt 0.4861 0.6345 0.0000
vt 0.4813 0.6494 0.0000
vt 0.4931 0.6486 0.0000
vt 0.5547 0.7765 0.0000
vt 0.5636 0.7742 0.0000
vt 0.5665 0.8097 0.0000
vt 0.5566 0.8112 0.0000
vt 0.5728 0.7748 0.0000
vt 0.5771 0.8115 0.0000
vt 0.5094 0.7760 0.0000
vt 0.5182 0.7800 0.0000
vt 0.5167 0.8162 0.0000
vt 0.5060 0.8128 0.0000
vt 0.5273 0.7832 0.0000
vt 0.5267 0.8187 0.0000
vt 0.5364 0.7838 0.0000
vt 0.5367 0.8182 0.0000
vt 0.5457 0.7805 0.0000
vt 0.5467 0.8150 0.0000
vt 0.5658 0.8200 0.0000
vt 0.5613 0.8349 0.0000
vt 0.5563 0.8210 0.0000
vt 0.5751 0.8221 0.0000
vt 0.5692 0.8351 0.0000
vt 0.5178 0.8255 0.0000
vt 0.5127 0.8369 0.0000
vt 0.5082 0.8234 0.0000
vt 0.5273 0.8272 0.0000
vt 0.5221 0.8373 0.0000
vt 0.5368 0.8264 0.0000
vt 0.5332 0.8369 0.0000
vt 0.5467 0.8238 0.0000
vt 0.5428 0.8358 0.0000
vt 0.5523 0.8351 0.0000
vt 0.2081 0.3075 0.0000
vt 0.2234 0.3036 0.0000
vt 0.2283 0.3643 0.0000
vt 0.2113 0.3668 0.0000
vt 0.2390 0.3047 0.0000
vt 0.2463 0.3674 0.0000
vt 0.1307 0.3067 0.0000
vt 0.1458 0.3135 0.0000
vt 0.1432 0.3754 0.0000
vt 0.1250 0.3696 0.0000
vt 0.1613 0.3189 0.0000
vt 0.1603 0.3797 0.0000
vt 0.1769 0.3200 0.0000
vt 0.1773 0.3788 0.0000
vt 0.1927 0.3144 0.0000
vt 0.1945 0.3732 0.0000
vt 0.2271 0.3818 0.0000
vt 0.2193 0.4072 0.0000
vt 0.2108 0.3835 0.0000
vt 0.2430 0.3855 0.0000
vt 0.2328 0.4077 0.0000
vt 0.1450 0.3912 0.0000
vt 0.1364 0.4107 0.0000
vt 0.1286 0.3876 0.0000
vt 0.1613 0.3942 0.0000
vt 0.1524 0.4113 0.0000
vt 0.1776 0.3928 0.0000
vt 0.1713 0.4107 0.0000
vt 0.1944 0.3883 0.0000
vt 0.1879 0.4088 0.0000
vt 0.2040 0.4077 0.0000
vt 0.2242 0.4358 0.0000
vt 0.2330 0.4336 0.0000
vt 0.2358 0.4686 0.0000
vt 0.2260 0.4701 0.0000
vt 0.2420 0.4342 0.0000
vt 0.2462 0.4704 0.0000
vt 0.1794 0.4354 0.0000
vt 0.1882 0.4393 0.0000
vt 0.1867 0.4751 0.0000
vt 0.1762 0.4717 0.0000
vt 0.1971 0.4424 0.0000
vt 0.1965 0.4775 0.0000
vt 0.2062 0.4430 0.0000
vt 0.2064 0.4770 0.0000
vt 0.2153 0.4398 0.0000
vt 0.2163 0.4738 0.0000
vt 0.2352 0.4788 0.0000
vt 0.2307 0.4934 0.0000
vt 0.2258 0.4797 0.0000
vt 0.2443 0.4809 0.0000
vt 0.2384 0.4937 0.0000
vt 0.1877 0.4842 0.0000
vt 0.1828 0.4955 0.0000
vt 0.1783 0.4821 0.0000
vt 0.1971 0.4859 0.0000
vt 0.1920 0.4958 0.0000
vt 0.2066 0.4851 0.0000
vt 0.2029 0.4955 0.0000
vt 0.2163 0.4825 0.0000
vt 0.2125 0.4943 0.0000
vt 0.2218 0.4937 0.0000
# 155 texture coords

o Captus_03
g Captus_03
usemtl Material__8
s 2
f 1/1/1 2/2/2 3/3/3 4/4/4 
s 4
f 2/2/2 5/5/5 6/6/6 3/3/3 
s 2
f 5/7/5 7/8/7 8/9/8 6/10/6 
s 4
f 7/8/7 9/11/9 10/12/10 8/9/8 
s 2
f 9/11/9 11/13/11 12/14/12 10/12/10 
s 4
f 11/13/11 13/15/13 14/16/14 12/14/12 
s 8
f 13/15/13 1/1/1 4/4/4 14/16/14 
s 3
f 15/17/15 16/18/16 17/19/17 
s 5
f 18/20/18 16/21/16 15/17/15 
s 3
f 19/22/19 16/23/16 18/24/18 
s 5
f 20/25/20 16/26/16 19/22/19 
s 3
f 21/27/21 16/28/16 20/25/20 
s 5
f 22/29/22 16/30/16 21/27/21 
s 9
f 17/19/17 16/31/16 22/29/22 
s 2
f 3/3/3 15/17/15 17/19/17 4/4/4 
s 4
f 6/6/6 18/20/18 15/17/15 3/3/3 
s 2
f 8/9/8 19/22/19 18/24/18 6/10/6 
s 4
f 10/12/10 20/25/20 19/22/19 8/9/8 
s 2
f 12/14/12 21/27/21 20/25/20 10/12/10 
s 4
f 14/16/14 22/29/22 21/27/21 12/14/12 
s 8
f 4/4/4 17/19/17 22/29/22 14/16/14 
s 2
f 23/32/23 24/33/24 25/34/25 26/35/26 
s 4
f 24/33/24 27/36/27 28/37/28 25/34/25 
s 2
f 27/38/27 29/39/29 30/40/30 28/41/28 
s 4
f 29/39/29 31/42/31 32/43/32 30/40/30 
s 2
f 31/42/31 33/44/33 34/45/34 32/43/32 
s 4
f 33/44/33 35/46/35 36/47/36 34/45/34 
s 8
f 35/46/35 23/32/23 26/35/26 36/47/36 
s 3
f 37/48/37 38/49/38 39/50/39 
s 5
f 40/51/40 38/52/38 37/48/37 
s 3
f 41/53/41 38/54/38 40/55/40 
s 5
f 42/56/42 38/57/38 41/53/41 
s 3
f 43/58/43 38/59/38 42/56/42 
s 5
f 44/60/44 38/61/38 43/58/43 
s 9
f 39/50/39 38/62/38 44/60/44 
s 2
f 25/34/25 37/48/37 39/50/39 26/35/26 
s 4
f 28/37/28 40/51/40 37/48/37 25/34/25 
s 2
f 30/40/30 41/53/41 40/55/40 28/41/28 
s 4
f 32/43/32 42/56/42 41/53/41 30/40/30 
s 2
f 34/45/34 43/58/43 42/56/42 32/43/32 
s 4
f 36/47/36 44/60/44 43/58/43 34/45/34 
s 8
f 26/35/26 39/50/39 44/60/44 36/47/36 
s 2
f 45/63/45 46/64/46 47/65/47 48/66/48 
s 4
f 46/64/46 49/67/49 50/68/50 47/65/47 
s 2
f 49/69/49 51/70/51 52/71/52 50/72/50 
s 4
f 51/70/51 53/73/53 54/74/54 52/71/52 
s 2
f 53/73/53 55/75/55 56/76/56 54/74/54 
s 4
f 55/75/55 57/77/57 58/78/58 56/76/56 
s 8
f 57/77/57 45/63/45 48/66/48 58/78/58 
s 3
f 59/79/59 60/80/60 61/81/61 
s 5
f 62/82/62 60/83/60 59/79/59 
s 3
f 63/84/63 60/85/60 62/86/62 
s 5
f 64/87/64 60/88/60 63/84/63 
s 3
f 65/89/65 60/90/60 64/87/64 
s 5
f 66/91/66 60/92/60 65/89/65 
s 9
f 61/81/61 60/93/60 66/91/66 
s 2
f 47/65/47 59/79/59 61/81/61 48/66/48 
s 4
f 50/68/50 62/82/62 59/79/59 47/65/47 
s 2
f 52/71/52 63/84/63 62/86/62 50/72/50 
s 4
f 54/74/54 64/87/64 63/84/63 52/71/52 
s 2
f 56/76/56 65/89/65 64/87/64 54/74/54 
s 4
f 58/78/58 66/91/66 65/89/65 56/76/56 
s 8
f 48/66/48 61/81/61 66/91/66 58/78/58 
s 2
f 67/94/67 68/95/68 69/96/69 70/97/70 
s 4
f 68/95/68 71/98/71 72/99/72 69/96/69 
s 2
f 71/100/71 73/101/73 74/102/74 72/103/72 
s 4
f 73/101/73 75/104/75 76/105/76 74/102/74 
s 2
f 75/104/75 77/106/77 78/107/78 76/105/76 
s 4
f 77/106/77 79/108/79 80/109/80 78/107/78 
s 8
f 79/108/79 67/94/67 70/97/70 80/109/80 
s 3
f 81/110/81 82/111/82 83/112/83 
s 5
f 84/113/84 82/114/82 81/110/81 
s 3
f 85/115/85 82/116/82 84/117/84 
s 5
f 86/118/86 82/119/82 85/115/85 
s 3
f 87/120/87 82/121/82 86/118/86 
s 5
f 88/122/88 82/123/82 87/120/87 
s 9
f 83/112/83 82/124/82 88/122/88 
s 2
f 69/96/69 81/110/81 83/112/83 70/97/70 
s 4
f 72/99/72 84/113/84 81/110/81 69/96/69 
s 2
f 74/102/74 85/115/85 84/117/84 72/103/72 
s 4
f 76/105/76 86/118/86 85/115/85 74/102/74 
s 2
f 78/107/78 87/120/87 86/118/86 76/105/76 
s 4
f 80/109/80 88/122/88 87/120/87 78/107/78 
s 8
f 70/97/70 83/112/83 88/122/88 80/109/80 
s 2
f 89/125/89 90/126/90 91/127/91 92/128/92 
s 4
f 90/126/90 93/129/93 94/130/94 91/127/91 
s 2
f 93/131/93 95/132/95 96/133/96 94/134/94 
s 4
f 95/132/95 97/135/97 98/136/98 96/133/96 
s 2
f 97/135/97 99/137/99 100/138/100 98/136/98 
s 4
f 99/137/99 101/139/101 102/140/102 100/138/100 
s 8
f 101/139/101 89/125/89 92/128/92 102/140/102 
s 3
f 103/141/103 104/142/104 105/143/105 
s 5
f 106/144/106 104/145/104 103/141/103 
s 3
f 107/146/107 104/147/104 106/148/106 
s 5
f 108/149/108 104/150/104 107/146/107 
s 3
f 109/151/109 104/152/104 108/149/108 
s 5
f 110/153/110 104/154/104 109/151/109 
s 9
f 105/143/105 104/155/104 110/153/110 
s 2
f 91/127/91 103/141/103 105/143/105 92/128/92 
s 4
f 94/130/94 106/144/106 103/141/103 91/127/91 
s 2
f 96/133/96 107/146/107 106/148/106 94/134/94 
s 4
f 98/136/98 108/149/108 107/146/107 96/133/96 
s 2
f 100/138/100 109/151/109 108/149/108 98/136/98 
s 4
f 102/140/102 110/153/110 109/151/109 100/138/100 
s 8
f 92/128/92 105/143/105 110/153/110 102/140/102 
# 70 polygons - 35 triangles

