# 3ds Max Wavefront OBJ Exporter v0.97b - (c)2007 guruware
# File Created: 29.01.2020 11:46:16

mtllib Cerca_02.mtl

#
# object Cerca_02
#

v  13.4801 -0.3558 1.8530
v  12.8331 -0.2277 -0.3482
v  17.0457 21.0502 -0.3482
v  17.6927 20.9221 1.8530
v  10.5797 0.2184 -0.4011
v  14.7923 21.4964 -0.4012
v  9.8339 0.3661 1.7672
v  14.0465 21.6440 1.7672
v  11.6264 0.0112 3.1604
v  15.8390 21.2891 3.1604
v  16.7709 3.3460 1.3155
v  -0.3134 5.5853 0.4565
v  0.0626 7.8716 0.5803
v  17.4073 6.9273 1.5190
v  0.0490 7.8083 1.7376
v  17.3938 6.8639 2.6763
v  -0.3270 5.5220 1.6138
v  16.7574 3.2826 2.4728
v  -18.4027 7.5115 -0.5560
v  -18.4163 7.4482 0.6013
v  -17.6760 11.5462 0.8365
v  -17.6624 11.6096 -0.3208
v  -13.4468 -0.2014 1.7010
v  -12.0931 -0.2014 2.6758
v  -12.0915 21.4896 3.1609
v  -13.9562 21.4896 1.8182
v  -10.7477 -0.2014 1.6895
v  -10.2383 21.4896 1.8024
v  -11.2699 -0.2014 0.1052
v  -10.9577 21.4896 -0.3800
v  -12.9381 -0.2014 0.1123
v  -13.2555 21.4896 -0.3702
v  18.4163 13.2202 -1.3520
v  4.2454 11.3650 -1.3697
v  3.8202 14.2784 -1.5674
v  17.6917 17.6523 -1.6536
v  3.8087 14.3552 -0.4110
v  17.6802 17.7291 -0.4971
v  4.2339 11.4418 -0.2132
v  18.4048 13.2970 -0.1955
v  -16.4557 7.6646 -1.9539
v  -16.5228 8.0232 -0.8537
v  -17.2256 12.3305 -2.0607
v  -17.1585 11.9719 -3.1609
# 44 vertices

vn 0.9257 -0.1833 0.3309
vn 0.5947 -0.1177 -0.7953
vn 0.5934 0.4897 -0.6388
vn 0.8592 0.4372 0.2657
vn -0.5583 0.1105 -0.8223
vn -0.3326 0.6732 -0.6605
vn -0.9397 0.1860 0.2871
vn -0.6391 0.7338 0.2305
vn -0.0226 0.0045 0.9997
vn 0.0974 0.5879 0.8030
vn 0.5006 -0.6291 -0.5947
vn -0.0392 -0.6660 -0.7449
vn 0.1320 0.7162 -0.6853
vn 0.6600 0.5414 -0.5209
vn 0.0440 0.6484 0.7600
vn 0.6242 0.4768 0.6189
vn -0.1228 -0.7313 0.6709
vn 0.4636 -0.6840 0.5632
vn -0.6349 -0.4581 -0.6221
vn -0.6738 -0.5227 0.5223
vn -0.4757 0.6510 0.5915
vn -0.4382 0.7043 -0.5586
vn -0.9492 -0.0240 0.3138
vn 0.0043 -0.0224 0.9997
vn 0.0034 0.5873 0.8094
vn -0.7693 0.5867 0.2529
vn 0.9518 -0.0239 0.3057
vn 0.7714 0.5867 0.2463
vn 0.5846 -0.0266 -0.8109
vn 0.4733 0.5857 -0.6580
vn -0.5914 -0.0266 -0.8059
vn -0.4789 0.5857 -0.6539
vn 0.6617 -0.5248 -0.5355
vn 0.1246 -0.7410 -0.6599
vn -0.0860 0.6448 -0.7595
vn 0.4582 0.6437 -0.6129
vn -0.1465 0.7146 0.6840
vn 0.4470 0.7196 0.5313
vn 0.0831 -0.6454 0.7593
vn 0.6502 -0.4484 0.6133
vn -0.4384 -0.8068 -0.3960
vn -0.5222 -0.4759 0.7077
vn -0.6797 0.6426 0.3537
vn -0.6006 0.3049 -0.7391
# 44 vertex normals

vt 0.1246 0.0806 0.0000
vt 0.1458 0.0806 0.0000
vt 0.1458 0.2537 0.0000
vt 0.1246 0.2537 0.0000
vt 0.1669 0.0806 0.0000
vt 0.1669 0.2537 0.0000
vt 0.1881 0.0806 0.0000
vt 0.1881 0.2537 0.0000
vt 0.2093 0.0806 0.0000
vt 0.2093 0.2537 0.0000
vt 0.2304 0.0806 0.0000
vt 0.2304 0.2537 0.0000
vt 0.2220 0.0631 0.0000
vt 0.1978 0.0553 0.0000
vt 0.1978 0.0298 0.0000
vt 0.2220 0.0219 0.0000
vt 0.2370 0.0425 0.0000
vt 0.0275 0.2545 0.0000
vt 0.0275 0.1489 0.0000
vt 0.0542 0.1489 0.0000
vt 0.0542 0.2545 0.0000
vt 0.0647 0.1489 0.0000
vt 0.0647 0.2545 0.0000
vt 0.0141 0.2545 0.0000
vt 0.0141 0.1489 0.0000
vt 0.0275 0.0377 0.0000
vt 0.0275 0.0271 0.0000
vt 0.0542 0.0271 0.0000
vt 0.0542 0.0377 0.0000
vt 0.0275 0.2641 0.0000
vt 0.0542 0.2641 0.0000
vt 0.0141 0.0377 0.0000
vt 0.0647 0.0377 0.0000
vt 0.0735 0.2563 0.0000
vt 0.0736 0.1687 0.0000
vt 0.1002 0.1687 0.0000
vt 0.1002 0.2563 0.0000
vt 0.1107 0.1687 0.0000
vt 0.1107 0.2563 0.0000
vt 0.0735 0.1687 0.0000
vt 0.0141 0.1669 0.0000
vt 0.0275 0.1669 0.0000
vt 0.0736 0.0395 0.0000
vt 0.0736 0.0289 0.0000
vt 0.1002 0.0289 0.0000
vt 0.1002 0.0395 0.0000
vt 0.0735 0.2659 0.0000
vt 0.1002 0.2660 0.0000
vt 0.1107 0.0395 0.0000
vt 0.0735 0.0395 0.0000
# 50 texture coords

o Cerca_02
g Cerca_02
usemtl Material__8
s off
f 1/1/1 2/2/2 3/3/3 4/4/4 
f 2/2/2 5/5/5 6/6/6 3/3/3 
f 5/5/5 7/7/7 8/8/8 6/6/6 
f 7/7/7 9/9/9 10/10/10 8/8/8 
f 9/9/9 1/11/1 4/12/4 10/10/10 
f 4/13/4 3/14/3 6/15/6 8/16/8 10/17/10 
f 11/18/11 12/19/12 13/20/13 14/21/14 
f 14/21/14 13/20/13 15/22/15 16/23/16 
f 16/18/16 15/19/15 17/20/17 18/21/18 
f 18/24/18 17/25/17 12/19/12 11/18/11 
f 19/26/19 20/27/20 21/28/21 22/29/22 
f 18/30/18 11/18/11 14/21/14 16/31/16 
f 15/19/15 21/26/21 20/29/20 17/20/17 
f 12/19/12 17/25/17 20/32/20 19/26/19 
f 13/20/13 12/19/12 19/26/19 22/29/22 
f 15/22/15 13/20/13 22/29/22 21/33/21 
f 23/1/23 24/2/24 25/3/25 26/4/26 
f 24/2/24 27/5/27 28/6/28 25/3/25 
f 27/5/27 29/7/29 30/8/30 28/6/28 
f 29/7/29 31/9/31 32/10/32 30/8/30 
f 31/9/31 23/11/23 26/12/26 32/10/32 
f 26/13/26 25/14/25 28/15/28 30/16/30 32/17/32 
f 33/34/33 34/35/34 35/36/35 36/37/36 
f 36/37/36 35/36/35 37/38/37 38/39/38 
f 38/34/38 37/40/37 39/36/39 40/37/40 
f 40/24/40 39/41/39 34/42/34 33/18/33 
f 41/43/41 42/44/42 43/45/43 44/46/44 
f 40/47/40 33/34/33 36/37/36 38/48/38 
f 35/36/35 44/46/44 43/49/43 37/38/37 
f 39/36/39 37/40/37 43/50/43 42/46/42 
f 34/42/34 39/41/39 42/32/42 41/26/41 
f 35/36/35 34/35/34 41/43/41 44/46/44 
# 32 polygons

