# 3ds Max Wavefront OBJ Exporter v0.97b - (c)2007 guruware
# File Created: 29.01.2020 11:57:16

mtllib Poste_Luz.mtl

#
# object Poste_Luz
#

v  -0.7682 27.9365 -0.7807
v  0.7932 27.9365 -0.7807
v  0.7932 0.0540 -0.7807
v  -0.7682 0.0540 -0.7807
v  -0.7682 27.9365 0.7807
v  -0.7682 0.0540 0.7807
v  0.7932 27.9365 0.7807
v  0.7932 0.0540 0.7807
v  1.3689 38.4563 -0.7807
v  1.3689 38.4563 0.7807
v  0.8571 33.1366 0.7807
v  0.8571 33.1366 -0.7807
v  7.7558 55.2995 0.8949
v  9.2319 55.8505 1.2040
v  9.2319 55.8505 -1.2040
v  7.7558 55.2995 -0.8949
v  1.0652 43.1876 -0.7807
v  2.6055 43.3113 -0.7807
v  -0.1925 38.4563 -0.7807
v  1.0652 43.1876 0.7807
v  -0.1925 38.4563 0.7807
v  2.6055 43.3113 0.7807
v  9.4782 54.9958 -1.2040
v  9.4782 54.9958 1.2040
v  7.0130 51.4832 0.8949
v  7.0130 51.4832 -0.8949
v  7.9887 54.5744 -0.8949
v  7.9887 54.5744 0.8949
v  18.8436 58.3611 -1.6615
v  18.8436 58.3611 1.6615
v  18.9314 57.9603 1.6615
v  18.9314 57.9603 -1.6615
v  11.5042 55.6097 -2.3121
v  11.5042 55.6097 2.3121
v  11.2578 56.4645 -2.3121
v  11.2578 56.4645 2.3121
v  15.6717 56.7887 -2.6245
v  15.6717 56.7887 2.6245
v  15.4253 57.6434 -2.6245
v  15.4253 57.6434 2.6245
v  5.5082 51.1513 -0.7807
v  5.3348 48.5090 -0.7807
v  3.8171 48.2529 -0.7807
v  5.5082 51.1513 0.7807
v  3.8171 48.2529 0.7807
v  5.3348 48.5090 0.7807
v  -0.7042 33.1366 -0.7807
v  -0.7042 33.1366 0.7807
# 48 vertices

vn -0.7085 0.0044 -0.7057
vn 0.7057 -0.0043 -0.7085
vn 0.7071 0.0000 -0.7071
vn -0.7071 0.0000 -0.7071
vn -0.7085 0.0044 0.7057
vn -0.7071 -0.0000 0.7071
vn 0.7057 -0.0043 0.7085
vn 0.7071 0.0000 0.7071
vn 0.6787 -0.1184 -0.7248
vn 0.6787 -0.1184 0.7248
vn 0.6964 -0.0377 0.7166
vn 0.6964 -0.0377 -0.7166
vn -0.7824 0.3499 0.5151
vn -0.4462 0.6437 0.6217
vn -0.4462 0.6437 -0.6217
vn -0.7824 0.3499 -0.5151
vn -0.6801 0.2707 -0.6813
vn 0.6337 -0.2432 -0.7344
vn -0.7132 0.1282 -0.6892
vn -0.6801 0.2706 0.6814
vn -0.7132 0.1282 0.6891
vn 0.6337 -0.2432 0.7344
vn 0.1428 -0.6429 -0.7526
vn 0.1428 -0.6429 0.7526
vn 0.5539 -0.4040 0.7280
vn 0.5539 -0.4040 -0.7280
vn -0.6731 0.1254 -0.7289
vn -0.6731 0.1254 0.7289
vn 0.5022 0.7139 -0.4881
vn 0.5022 0.7139 0.4881
vn 0.7805 -0.3893 0.4892
vn 0.7805 -0.3893 -0.4892
vn -0.0125 -0.6928 -0.7211
vn -0.0125 -0.6928 0.7211
vn -0.3817 0.5829 -0.7173
vn -0.3817 0.5829 0.7173
vn 0.2733 -0.6260 -0.7304
vn 0.2733 -0.6260 0.7304
vn -0.0969 0.6764 -0.7301
vn -0.0969 0.6764 0.7301
vn -0.6335 0.4059 -0.6587
vn 0.6191 -0.3564 -0.6998
vn -0.6190 0.3486 -0.7037
vn -0.6335 0.4059 0.6587
vn -0.6191 0.3487 0.7037
vn 0.6191 -0.3564 0.6998
vn -0.7153 0.0387 -0.6978
vn -0.7152 0.0387 0.6979
# 48 vertex normals

vt 0.0868 0.7520 0.0000
vt 0.0743 0.7520 0.0000
vt 0.0762 0.5301 0.0000
vt 0.0886 0.5302 0.0000
vt 0.0993 0.7521 0.0000
vt 0.1011 0.5303 0.0000
vt 0.1117 0.7524 0.0000
vt 0.1135 0.5305 0.0000
vt 0.1315 0.8333 0.0000
vt 0.1203 0.8333 0.0000
vt 0.1203 0.7951 0.0000
vt 0.1315 0.7951 0.0000
vt 0.2148 0.7737 0.0000
vt 0.2202 0.7982 0.0000
vt 0.1820 0.7982 0.0000
vt 0.1874 0.7737 0.0000
vt 0.0858 0.8734 0.0000
vt 0.0749 0.8787 0.0000
vt 0.0740 0.8374 0.0000
vt 0.0861 0.8351 0.0000
vt 0.0981 0.8735 0.0000
vt 0.0984 0.8352 0.0000
vt 0.1089 0.8790 0.0000
vt 0.1105 0.8377 0.0000
vt 0.1345 0.9662 0.0000
vt 0.1173 0.9662 0.0000
vt 0.1195 0.9355 0.0000
vt 0.1323 0.9355 0.0000
vt 0.1687 0.7932 0.0000
vt 0.1763 0.7704 0.0000
vt 0.1872 0.7620 0.0000
vt 0.2148 0.7620 0.0000
vt 0.2259 0.7704 0.0000
vt 0.2334 0.7932 0.0000
vt 0.1751 0.9497 0.0000
vt 0.2270 0.9497 0.0000
vt 0.2268 0.9560 0.0000
vt 0.1754 0.9560 0.0000
vt 0.2807 0.9075 0.0000
vt 0.3649 0.9075 0.0000
vt 0.3447 0.9460 0.0000
vt 0.3009 0.9460 0.0000
vt 0.1657 0.8309 0.0000
vt 0.1529 0.8278 0.0000
vt 0.2365 0.8308 0.0000
vt 0.2492 0.8278 0.0000
vt 0.2750 0.8286 0.0000
vt 0.3706 0.8286 0.0000
vt 0.1608 0.8963 0.0000
vt 0.1477 0.8977 0.0000
vt 0.2413 0.8963 0.0000
vt 0.2544 0.8977 0.0000
vt 0.2925 0.7655 0.0000
vt 0.3530 0.7655 0.0000
vt 0.1685 0.9510 0.0000
vt 0.2337 0.9510 0.0000
vt 0.0849 0.9453 0.0000
vt 0.0759 0.9537 0.0000
vt 0.0756 0.9263 0.0000
vt 0.0852 0.9187 0.0000
vt 0.0975 0.9454 0.0000
vt 0.0977 0.9189 0.0000
vt 0.1063 0.9541 0.0000
vt 0.1072 0.9266 0.0000
vt 0.1203 0.8691 0.0000
vt 0.1315 0.8691 0.0000
vt 0.1315 0.9111 0.0000
vt 0.1203 0.9111 0.0000
vt 0.0864 0.7931 0.0000
vt 0.0740 0.7938 0.0000
vt 0.0989 0.7932 0.0000
vt 0.1112 0.7942 0.0000
vt 0.1203 0.5585 0.0000
vt 0.1315 0.5585 0.0000
vt 0.1315 0.7579 0.0000
vt 0.1203 0.7579 0.0000
vt 0.0830 0.9789 0.0000
vt 0.0732 0.9877 0.0000
vt 0.0985 0.9791 0.0000
vt 0.1079 0.9882 0.0000
# 80 texture coords

o Poste_Luz
g Poste_Luz
usemtl Material__8
s off
f 1/1/1 2/2/2 3/3/3 4/4/4 
f 5/5/5 1/1/1 4/4/4 6/6/6 
f 7/7/7 5/5/5 6/6/6 8/8/8 
f 9/9/9 10/10/10 11/11/11 12/12/12 
f 13/13/13 14/14/14 15/15/15 16/16/16 
f 17/17/17 18/18/18 9/19/9 19/20/19 
f 20/21/20 17/17/17 19/20/19 21/22/21 
f 22/23/22 20/21/20 21/22/21 10/24/10 
f 23/25/23 24/26/24 25/27/25 26/28/26 
f 16/16/16 15/15/15 23/29/23 27/30/27 
f 13/13/13 16/16/16 27/31/27 
f 28/32/28 13/13/13 27/31/27 
f 14/14/14 13/13/13 28/33/28 24/34/24 
f 29/35/29 30/36/30 31/37/31 32/38/32 
f 33/39/33 34/40/34 24/41/24 23/42/23 
f 35/43/35 33/44/33 23/29/23 15/15/15 
f 36/45/36 35/43/35 15/15/15 14/14/14 
f 34/46/34 36/45/36 14/14/14 24/34/24 
f 37/47/37 38/48/38 34/40/34 33/39/33 
f 39/49/39 37/50/37 33/44/33 35/43/35 
f 40/51/40 39/49/39 35/43/35 36/45/36 
f 38/52/38 40/51/40 36/45/36 34/46/34 
f 32/53/32 31/54/31 38/48/38 37/47/37 
f 29/35/29 32/55/32 37/50/37 39/49/39 
f 30/36/30 29/35/29 39/49/39 40/51/40 
f 31/56/31 30/36/30 40/51/40 38/52/38 
f 41/57/41 26/58/26 42/59/42 43/60/43 
f 44/61/44 41/57/41 43/60/43 45/62/45 
f 25/63/25 44/61/44 45/62/45 46/64/46 
f 22/65/22 18/66/18 42/67/42 46/68/46 
f 47/69/47 12/70/12 2/2/2 1/1/1 
f 48/71/48 47/69/47 1/1/1 5/5/5 
f 11/72/11 48/71/48 5/5/5 7/7/7 
f 8/73/8 3/74/3 2/75/2 7/76/7 
f 46/68/46 42/67/42 26/28/26 25/27/25 
f 27/77/27 23/78/23 26/58/26 41/57/41 
f 28/79/28 27/77/27 41/57/41 44/61/44 
f 24/80/24 28/79/28 44/61/44 25/63/25 
f 43/60/43 42/59/42 18/18/18 17/17/17 
f 45/62/45 43/60/43 17/17/17 20/21/20 
f 46/64/46 45/62/45 20/21/20 22/23/22 
f 10/10/10 9/9/9 18/66/18 22/65/22 
f 7/76/7 2/75/2 12/12/12 11/11/11 
f 19/20/19 9/19/9 12/70/12 47/69/47 
f 21/22/21 19/20/19 47/69/47 48/71/48 
f 10/24/10 21/22/21 48/71/48 11/72/11 
# 44 polygons - 2 triangles

