# 3ds Max Wavefront OBJ Exporter v0.97b - (c)2007 guruware
# File Created: 29.01.2020 12:12:54

mtllib poste_electrico_02.mtl

#
# object poste_electrico_02
#

v  -0.3541 -0.1661 1.3561
v  1.0688 -0.1661 1.3561
v  1.1250 67.3770 1.4535
v  -0.4103 67.3770 1.4535
v  1.7802 -0.1661 0.1238
v  1.8927 67.3770 0.1238
v  1.0688 -0.1661 -1.1084
v  1.1250 67.3770 -1.2058
v  -0.3541 -0.1661 -1.1084
v  -0.4103 67.3770 -1.2058
v  -1.0656 -0.1661 0.1238
v  -1.1781 67.3770 0.1238
v  -0.5916 71.1102 1.7674
v  1.3062 71.1102 1.7674
v  2.2552 71.1102 0.1238
v  1.3062 71.1102 -1.5197
v  -0.5916 71.1102 -1.5197
v  -1.5405 71.1102 0.1238
v  8.5287 69.1209 -3.3978
v  -7.8141 69.1209 -3.3978
v  -7.8141 70.0970 -3.3978
v  8.5287 70.0970 -3.3978
v  -7.8141 70.0970 -1.3638
v  8.5287 70.0970 -1.3638
v  -7.8141 69.1209 -1.3638
v  8.5287 69.1209 -1.3638
v  4.4575 70.0569 -2.7075
v  4.8062 70.0569 -1.6342
v  4.6852 71.2734 -1.4481
v  4.2617 71.2734 -2.7514
v  5.9346 70.0569 -1.6342
v  6.0556 71.2734 -1.4481
v  6.2833 70.0569 -2.7075
v  6.4791 71.2734 -2.7514
v  5.3704 70.0569 -3.3708
v  5.3704 71.2734 -3.5569
v  -5.3483 70.0569 -2.7075
v  -4.9996 70.0569 -1.6342
v  -5.1205 71.2734 -1.4481
v  -5.5440 71.2734 -2.7514
v  -3.8711 70.0569 -1.6342
v  -3.7502 71.2734 -1.4481
v  -3.5224 70.0569 -2.7075
v  -3.3267 71.2734 -2.7514
v  -4.4354 70.0569 -3.3708
v  -4.4354 71.2734 -3.5569
v  -4.1622 69.6821 -1.2419
v  -0.0657 63.3205 -1.4710
v  0.8198 64.0500 -1.4450
v  -3.2767 70.4116 -1.2159
v  3.8212 70.3027 -1.2007
v  -0.6879 63.8876 -1.5354
v  0.1778 63.1307 -1.5982
v  4.6945 69.5539 -1.1841
v  5.4712 70.2388 -270.3039
v  5.1364 70.2388 -270.3039
v  5.1364 63.7864 -182.0597
v  5.4713 63.7864 -182.0597
v  5.1364 63.7864 -92.8965
v  5.4712 63.7864 -92.8965
v  5.1364 70.2388 -3.7333
v  5.4712 70.2388 -3.7333
v  -4.2543 70.2388 -270.3039
v  -4.5892 70.2388 -270.3039
v  -4.5891 63.7864 -182.0597
v  -4.2542 63.7864 -182.0597
v  -4.5891 63.7864 -92.8965
v  -4.2542 63.7864 -92.8965
v  -4.5892 70.2388 -3.7333
v  -4.2543 70.2388 -3.7333
# 70 vertices

vn -0.5000 -0.0017 0.8660
vn 0.5000 -0.0017 0.8660
vn 0.4994 -0.0500 0.8649
vn -0.4994 -0.0500 0.8650
vn 1.0000 -0.0017 -0.0000
vn 0.9988 -0.0500 0.0000
vn 0.5000 -0.0017 -0.8660
vn 0.4994 -0.0500 -0.8649
vn -0.5000 -0.0017 -0.8660
vn -0.4994 -0.0500 -0.8650
vn -1.0000 -0.0017 -0.0000
vn -0.9988 -0.0500 -0.0000
vn -0.4096 0.5734 0.7095
vn 0.4096 0.5734 0.7095
vn 0.8193 0.5734 0.0000
vn 0.4096 0.5734 -0.7095
vn -0.4096 0.5734 -0.7095
vn -0.8193 0.5734 -0.0000
vn 0.5774 -0.5774 -0.5774
vn -0.5774 -0.5774 -0.5774
vn -0.5774 0.5774 -0.5774
vn 0.5774 0.5774 -0.5774
vn -0.5774 0.5774 0.5774
vn 0.5774 0.5774 0.5774
vn -0.5774 -0.5774 0.5774
vn 0.5774 -0.5774 0.5774
vn -0.9366 -0.1619 -0.3108
vn -0.5814 -0.1792 0.7937
vn -0.4971 0.5278 0.6887
vn -0.8052 0.5344 -0.2570
vn 0.5814 -0.1792 0.7937
vn 0.4971 0.5278 0.6887
vn 0.9366 -0.1619 -0.3108
vn 0.8052 0.5344 -0.2570
vn -0.0000 -0.1512 -0.9885
vn -0.0000 0.5386 -0.8426
vn -0.5813 -0.1792 0.7937
vn 0.4970 0.5278 0.6887
vn 0.0000 -0.1512 -0.9885
vn 0.0002 -0.0358 0.9994
vn -0.0002 0.0358 -0.9994
vn -0.0397 -0.0242 0.9989
vn 0.0167 -0.0638 0.9978
vn 0.0100 -0.0713 0.9974
vn -0.0462 -0.0318 0.9984
vn 0.0397 0.0242 -0.9989
vn 0.0462 0.0318 -0.9984
vn -0.0100 0.0713 -0.9974
vn -0.0167 0.0638 -0.9978
vn 0.0000 0.9973 0.0729
vn 0.0000 0.9993 0.0365
vn 0.0000 0.9993 -0.0361
vn 0.0000 0.9974 -0.0722
vn 0.0000 -0.9973 -0.0729
vn 0.0000 -0.9993 -0.0365
vn 0.0000 -0.9993 0.0361
vn -0.0000 -0.9974 0.0722
vn 0.0000 -0.9974 0.0722
# 58 vertex normals

vt 0.8165 0.4887 0.0000
vt 0.8286 0.4887 0.0000
vt 0.8286 0.6935 0.0000
vt 0.8165 0.6935 0.0000
vt 0.8406 0.4887 0.0000
vt 0.8406 0.6935 0.0000
vt 0.8527 0.4887 0.0000
vt 0.8527 0.6935 0.0000
vt 0.8046 0.4887 0.0000
vt 0.8166 0.4887 0.0000
vt 0.8166 0.6935 0.0000
vt 0.8046 0.6935 0.0000
vt 0.8287 0.4887 0.0000
vt 0.8287 0.6935 0.0000
vt 0.8407 0.4887 0.0000
vt 0.8407 0.6935 0.0000
vt 0.6470 0.7598 0.0000
vt 0.6273 0.7598 0.0000
vt 0.6174 0.7427 0.0000
vt 0.6273 0.7256 0.0000
vt 0.6470 0.7256 0.0000
vt 0.6569 0.7427 0.0000
vt 0.8407 0.7093 0.0000
vt 0.8287 0.7093 0.0000
vt 0.8166 0.7093 0.0000
vt 0.8046 0.7093 0.0000
vt 0.8527 0.7093 0.0000
vt 0.8406 0.7093 0.0000
vt 0.8286 0.7093 0.0000
vt 0.8165 0.7093 0.0000
vt 0.7976 0.7391 0.0000
vt 0.8627 0.7391 0.0000
vt 0.8627 0.7435 0.0000
vt 0.7976 0.7435 0.0000
vt 0.7976 0.7436 0.0000
vt 0.8627 0.7436 0.0000
vt 0.8627 0.7513 0.0000
vt 0.7976 0.7513 0.0000
vt 0.7976 0.7312 0.0000
vt 0.8627 0.7312 0.0000
vt 0.7971 0.7308 0.0000
vt 0.7971 0.7229 0.0000
vt 0.8012 0.7229 0.0000
vt 0.8012 0.7308 0.0000
vt 0.8044 0.7197 0.0000
vt 0.8110 0.7197 0.0000
vt 0.8110 0.7292 0.0000
vt 0.8044 0.7292 0.0000
vt 0.8176 0.7197 0.0000
vt 0.8176 0.7292 0.0000
vt 0.8242 0.7197 0.0000
vt 0.8242 0.7292 0.0000
vt 0.8308 0.7197 0.0000
vt 0.8308 0.7292 0.0000
vt 0.8374 0.7197 0.0000
vt 0.8374 0.7292 0.0000
vt 0.8327 0.8305 0.0000
vt 0.8069 0.8126 0.0000
vt 0.8159 0.7827 0.0000
vt 0.8472 0.7820 0.0000
vt 0.8576 0.8115 0.0000
vt 0.7972 0.7112 0.0000
vt 0.8433 0.7112 0.0000
vt 0.8433 0.7185 0.0000
vt 0.7972 0.7185 0.0000
vt 0.0606 0.2890 0.0000
vt 0.0678 0.2890 0.0000
vt 0.0678 0.3651 0.0000
vt 0.0606 0.3651 0.0000
vt 0.0678 0.4412 0.0000
vt 0.0606 0.4412 0.0000
vt 0.0678 0.5173 0.0000
vt 0.0606 0.5173 0.0000
# 73 texture coords

o poste_electrico_02
g poste_electrico_02
usemtl Material__8
s off
f 1/1/1 2/2/2 3/3/3 4/4/4 
f 2/2/2 5/5/5 6/6/6 3/3/3 
f 5/5/5 7/7/7 8/8/8 6/6/6 
f 7/9/7 9/10/9 10/11/10 8/12/8 
f 9/10/9 11/13/11 12/14/12 10/11/10 
f 11/13/11 1/15/1 4/16/4 12/14/12 
f 13/17/13 14/18/14 15/19/15 16/20/16 17/21/17 18/22/18 
f 12/14/12 4/16/4 13/23/13 18/24/18 
f 10/11/10 12/14/12 18/24/18 17/25/17 
f 8/12/8 10/11/10 17/25/17 16/26/16 
f 6/6/6 8/8/8 16/27/16 15/28/15 
f 3/3/3 6/6/6 15/28/15 14/29/14 
f 4/4/4 3/3/3 14/29/14 13/30/13 
f 19/31/19 20/32/20 21/33/21 22/34/22 
f 22/35/22 21/36/21 23/37/23 24/38/24 
f 24/31/24 23/32/23 25/33/25 26/34/26 
f 26/39/26 25/40/25 20/32/20 19/31/19 
f 20/41/20 25/42/25 23/43/23 21/44/21 
f 26/41/26 19/42/19 22/43/22 24/44/24 
f 27/45/27 28/46/28 29/47/29 30/48/30 
f 28/46/28 31/49/31 32/50/32 29/47/29 
f 31/49/31 33/51/33 34/52/34 32/50/32 
f 33/51/33 35/53/35 36/54/36 34/52/34 
f 35/53/35 27/55/27 30/56/30 36/54/36 
f 30/57/30 29/58/29 32/59/32 34/60/34 36/61/36 
f 37/45/27 38/46/37 39/47/29 40/48/30 
f 38/46/37 41/49/31 42/50/38 39/47/29 
f 41/49/31 43/51/33 44/52/34 42/50/38 
f 43/51/33 45/53/39 46/54/36 44/52/34 
f 45/53/39 37/55/27 40/56/30 46/54/36 
f 40/57/30 39/58/29 42/59/38 44/60/34 46/61/36 
f 47/62/40 48/63/40 49/64/40 50/65/40 
f 47/62/41 50/65/41 49/64/41 48/63/41 
f 51/62/42 52/63/43 53/64/44 54/65/45 
f 51/62/46 54/65/47 53/64/48 52/63/49 
f 55/66/50 56/67/50 57/68/51 58/69/51 
f 58/69/51 57/68/51 59/70/52 60/71/52 
f 60/71/52 59/70/52 61/72/53 62/73/53 
f 55/66/54 58/69/55 57/68/55 56/67/54 
f 58/69/55 60/71/56 59/70/56 57/68/55 
f 60/71/56 62/73/57 61/72/57 59/70/56 
f 63/66/50 64/67/50 65/68/51 66/69/51 
f 66/69/51 65/68/51 67/70/52 68/71/52 
f 68/71/52 67/70/52 69/72/53 70/73/53 
f 63/66/54 66/69/55 65/68/55 64/67/54 
f 66/69/55 68/71/56 67/70/56 65/68/55 
f 68/71/56 70/73/58 69/72/58 67/70/56 
# 47 polygons

