# 3ds Max Wavefront OBJ Exporter v0.97b - (c)2007 guruware
# File Created: 29.01.2020 12:10:58

mtllib Reposadero_Agua.mtl

#
# object Object001
#

v  -7.1285 0.0455 -6.4024
v  -7.1285 4.1367 -6.4024
v  -7.1285 4.1367 6.4024
v  -7.1285 0.0455 6.4024
v  -8.4132 4.1367 6.4024
v  -8.4132 0.0455 6.4024
v  -8.4132 4.1367 -6.4024
v  -8.4132 0.0455 -6.4024
v  7.0239 0.2642 6.5521
v  7.0239 3.9181 6.5521
v  7.0239 3.9181 -6.5521
v  7.0239 0.2642 -6.5521
v  8.5179 3.9181 -6.5521
v  8.5179 0.2642 -6.5521
v  8.5179 3.9181 6.5521
v  8.5179 0.2642 6.5521
v  -15.1281 1.6493 -3.4807
v  -14.8951 7.7614 -5.9103
v  14.8951 7.7614 -5.9103
v  15.1281 1.6493 -3.4807
v  14.8951 7.7614 5.9103
v  15.1281 1.6493 3.4807
v  -13.8452 7.9548 -5.0082
v  13.8452 7.9548 -5.0082
v  13.8452 7.9548 5.0082
v  -13.8452 5.6548 -3.9701
v  13.8452 5.6548 -3.9701
v  13.8452 5.6548 3.9701
v  -13.8452 5.6548 3.9701
v  -14.8951 7.7614 5.9103
v  -15.1281 1.6493 3.4807
v  -13.8452 7.9548 5.0082
# 32 vertices

vn 0.7071 -0.0000 -0.7071
vn 0.5774 0.5774 -0.5774
vn 0.5774 0.5774 0.5774
vn 0.7071 0.0000 0.7071
vn -0.5774 0.5774 0.5774
vn -0.7071 0.0000 0.7071
vn -0.5774 0.5774 -0.5774
vn -0.7071 -0.0000 -0.7071
vn -0.5773 0.5774 0.5773
vn -0.5773 0.5774 -0.5773
vn -0.7071 0.0000 -0.7071
vn 0.5773 0.5774 -0.5774
vn -0.7904 -0.2000 -0.5790
vn -0.5729 0.4297 -0.6980
vn 0.5729 0.4297 -0.6980
vn 0.7904 -0.2000 -0.5790
vn 0.5729 0.4297 0.6980
vn 0.7904 -0.2000 0.5790
vn 0.1367 0.9756 0.1718
vn -0.1367 0.9756 0.1718
vn -0.1367 0.9756 -0.1718
vn 0.6030 0.6702 0.4328
vn -0.6030 0.6702 0.4328
vn -0.6030 0.6702 -0.4328
vn 0.6030 0.6702 -0.4328
vn -0.5729 0.4297 0.6980
vn -0.7904 -0.2000 0.5790
vn 0.1367 0.9756 -0.1718
# 28 vertex normals

vt 0.3832 0.1612 0.0000
vt 0.4057 0.1612 0.0000
vt 0.4057 0.0878 0.0000
vt 0.3832 0.0878 0.0000
vt 0.3729 0.2027 0.0000
vt 0.3515 0.2027 0.0000
vt 0.3515 0.1936 0.0000
vt 0.3729 0.1936 0.0000
vt 0.3604 0.0878 0.0000
vt 0.3830 0.0878 0.0000
vt 0.3830 0.1612 0.0000
vt 0.3604 0.1612 0.0000
vt 0.3967 0.2027 0.0000
vt 0.3753 0.2027 0.0000
vt 0.3753 0.1936 0.0000
vt 0.3967 0.1936 0.0000
vt 0.4614 0.0994 0.0000
vt 0.4524 0.0994 0.0000
vt 0.4524 0.0284 0.0000
vt 0.4614 0.0284 0.0000
vt 0.4287 0.1606 0.0000
vt 0.4510 0.1606 0.0000
vt 0.4510 0.0878 0.0000
vt 0.4287 0.0878 0.0000
vt 0.4195 0.2023 0.0000
vt 0.3990 0.2023 0.0000
vt 0.3990 0.1936 0.0000
vt 0.4195 0.1936 0.0000
vt 0.4059 0.0878 0.0000
vt 0.4283 0.0878 0.0000
vt 0.4283 0.1606 0.0000
vt 0.4059 0.1606 0.0000
vt 0.4343 0.1717 0.0000
vt 0.4139 0.1717 0.0000
vt 0.4139 0.1629 0.0000
vt 0.4343 0.1629 0.0000
vt 0.3598 0.1613 0.0000
vt 0.3505 0.1613 0.0000
vt 0.3505 0.0878 0.0000
vt 0.3598 0.0878 0.0000
vt 0.4517 0.0284 0.0000
vt 0.4517 0.0569 0.0000
vt 0.2724 0.0569 0.0000
vt 0.2724 0.0284 0.0000
vt 0.4068 0.2114 0.0000
vt 0.4213 0.2426 0.0000
vt 0.3505 0.2426 0.0000
vt 0.3651 0.2114 0.0000
vt 0.4780 0.0354 0.0000
vt 0.4780 0.1922 0.0000
vt 0.4722 0.1981 0.0000
vt 0.4722 0.0294 0.0000
vt 0.4683 0.0335 0.0000
vt 0.4683 0.0905 0.0000
vt 0.4623 0.0956 0.0000
vt 0.4623 0.0284 0.0000
vt 0.2872 0.2441 0.0000
vt 0.2872 0.0858 0.0000
vt 0.3004 0.0858 0.0000
vt 0.3004 0.2441 0.0000
vt 0.4554 0.2159 0.0000
vt 0.4554 0.1708 0.0000
vt 0.4685 0.1649 0.0000
vt 0.4685 0.2218 0.0000
vt 0.3495 0.2416 0.0000
vt 0.3031 0.2416 0.0000
vt 0.3031 0.0858 0.0000
vt 0.3495 0.0858 0.0000
vt 0.4517 0.0571 0.0000
vt 0.4517 0.0856 0.0000
vt 0.2724 0.0856 0.0000
vt 0.2724 0.0571 0.0000
vt 0.4078 0.1620 0.0000
vt 0.4223 0.1932 0.0000
vt 0.3515 0.1932 0.0000
vt 0.3661 0.1620 0.0000
vt 0.4859 0.0354 0.0000
vt 0.4859 0.1922 0.0000
vt 0.4801 0.1981 0.0000
vt 0.4801 0.0294 0.0000
vt 0.4683 0.1048 0.0000
vt 0.4683 0.1617 0.0000
vt 0.4623 0.1668 0.0000
vt 0.4623 0.0996 0.0000
vt 0.2714 0.2441 0.0000
vt 0.2714 0.0858 0.0000
vt 0.2846 0.0858 0.0000
vt 0.2846 0.2441 0.0000
vt 0.4376 0.2119 0.0000
vt 0.4376 0.1669 0.0000
vt 0.4506 0.1610 0.0000
vt 0.4506 0.2178 0.0000
# 92 texture coords

o Object001
g Object001
usemtl Material__8
s off
f 1/1/1 2/2/2 3/3/3 4/4/4 
f 4/5/4 3/6/3 5/7/5 6/8/6 
f 6/9/6 5/10/5 7/11/7 8/12/8 
f 8/13/8 7/14/7 2/15/2 1/16/1 
f 2/17/2 7/18/7 5/19/5 3/20/3 
f 9/21/6 10/22/9 11/23/10 12/24/11 
f 12/25/11 11/26/10 13/27/12 14/28/1 
f 14/29/1 13/30/12 15/31/3 16/32/4 
f 16/33/4 15/34/3 10/35/9 9/36/6 
f 10/37/9 15/38/3 13/39/12 11/40/10 
f 17/41/13 18/42/14 19/43/15 20/44/16 
f 20/45/16 19/46/15 21/47/17 22/48/18 
f 23/49/19 24/50/20 19/51/15 18/52/14 
f 24/53/20 25/54/21 21/55/17 19/56/15 
f 26/57/22 27/58/23 24/59/20 23/60/19 
f 27/61/23 28/62/24 25/63/21 24/64/20 
f 26/65/22 29/66/25 28/67/24 27/68/23 
f 22/69/18 21/70/17 30/71/26 31/72/27 
f 31/73/27 30/74/26 18/75/14 17/76/13 
f 25/77/21 32/78/28 30/79/26 21/80/17 
f 32/81/28 23/82/19 18/83/14 30/84/26 
f 28/85/24 29/86/25 32/87/28 25/88/21 
f 29/89/25 26/90/22 23/91/19 32/92/28 
# 23 polygons

