# 3ds Max Wavefront OBJ Exporter v0.97b - (c)2007 guruware
# File Created: 29.01.2020 12:27:13

mtllib Roca_05.mtl

#
# object Roca_05
#

v  19.3920 3.8159 -1.3203
v  19.9900 9.8805 -8.1428
v  22.3959 13.4599 -3.5642
v  6.8090 -0.4073 8.8945
v  6.7778 3.3940 9.6083
v  5.6179 -0.6869 11.7810
v  5.3204 4.3378 10.1064
v  -0.2622 21.3169 -10.7479
v  2.6466 24.4085 -4.5784
v  5.1494 22.4325 -9.3139
v  -3.8589 2.6871 12.4119
v  -5.4191 -0.7093 10.5390
v  1.3221 -0.7052 13.3898
v  -20.2154 -0.7038 0.3126
v  -19.6340 -0.7080 4.2444
v  -21.4628 2.3326 1.1938
v  -4.9396 23.7960 -7.8707
v  -4.7607 24.3433 -1.2827
v  0.6845 24.2913 -7.4065
v  -11.5044 9.9351 4.0614
v  -14.0146 13.4588 2.7745
v  -15.8283 2.3975 7.2085
v  19.8765 5.9751 1.2770
v  14.2489 8.3079 5.6830
v  16.8685 -0.7054 6.7756
v  13.5897 10.7033 1.0027
v  6.0086 18.3773 -0.4470
v  -2.1933 19.1286 2.3054
v  3.2121 16.5494 2.3011
v  19.1459 13.5136 -1.1204
v  14.6223 17.9973 -13.7938
v  5.3971 18.6320 -13.3077
v  13.9386 19.8677 -11.2357
v  -8.6321 21.1027 -0.4044
v  -13.5670 20.3338 -3.5115
v  -8.1281 14.1035 1.8927
v  -4.7339 14.7171 0.0162
v  -10.1223 23.7324 -3.3050
v  -13.6973 22.1649 -8.1564
v  -18.7579 4.4226 -7.1223
v  -22.3959 17.7322 -5.5510
v  -20.1296 18.2202 -8.5393
v  -9.6653 3.9589 5.7567
v  -11.4842 -0.6213 4.2470
v  -7.5597 -0.6882 4.3732
v  1.3199 3.4291 13.7938
v  6.0895 4.3394 7.9228
v  -1.4069 4.8719 10.1635
v  -6.1954 10.2866 5.6930
v  0.9157 10.9662 6.8017
v  -1.7498 13.0005 2.4220
v  7.9646 19.9232 -8.5722
v  7.9865 20.1080 -3.8727
v  18.7912 19.9192 -4.5358
v  11.8598 15.8595 -1.5285
v  8.4979 17.3771 0.8968
v  11.3320 11.7003 2.1637
v  6.6426 14.3177 5.2889
v  6.6739 7.3914 6.1197
v  -5.1219 4.0355 7.9546
v  -5.2268 -0.6054 5.6233
v  19.0593 -0.7083 1.3574
v  15.3596 -0.9742 -4.6460
v  0.9843 13.6279 5.9296
v  8.8685 9.4797 3.7617
v  11.0018 10.0218 5.7535
v  8.2073 14.1806 1.5694
v  -19.9197 20.3873 -8.1222
v  -18.4421 22.8509 -5.2981
v  2.3800 7.4585 9.5723
v  -4.9012 8.7248 8.7439
v  2.8718 22.3891 -1.8162
v  6.2928 24.0602 -4.1944
v  -19.8804 2.4418 4.0664
v  -21.8003 11.5379 -3.5284
v  -20.9340 20.0947 -2.8502
v  -14.7788 18.2454 -1.0524
v  -20.6523 14.7267 -1.3157
v  -19.1971 11.6549 -0.9811
v  9.6506 5.7899 9.8686
v  -6.1629 21.4033 -1.4337
v  15.8762 18.8983 -5.2645
v  16.6918 19.4907 -9.1820
v  20.8024 16.8593 -9.9828
v  17.2387 15.0543 -9.8347
v  -9.9487 13.5983 3.4667
v  -3.2813 13.1996 3.7497
v  -20.1786 7.0519 -3.3745
v  -17.3756 22.0645 -2.6395
v  21.6260 18.6344 -4.8267
v  -7.7145 21.6168 -12.2366
v  -8.8751 9.4873 5.7605
v  -12.7023 18.6552 -10.2564
v  16.0438 4.9671 -6.8615
v  -6.5573 24.1204 -5.7687
v  3.5760 15.9401 4.7674
v  3.2782 18.2626 -11.4338
v  -16.2037 -0.7065 6.5413
v  8.4052 -0.7000 10.0113
v  10.0544 2.2113 10.5811
v  -17.5126 -0.7069 -2.2721
# 101 vertices

vn 0.9080 -0.3129 -0.2786
vn 0.5953 -0.3821 -0.7069
vn 0.9648 0.0317 0.2609
vn 0.2213 -0.1782 0.9588
vn 0.0960 0.4243 0.9004
vn 0.6781 0.0917 0.7292
vn 0.4036 0.7967 0.4498
vn 0.1128 0.7308 -0.6733
vn 0.1259 0.9877 0.0928
vn 0.3287 0.6866 -0.6485
vn -0.5558 0.3839 0.7374
vn -0.8922 -0.0126 0.4515
vn 0.0285 -0.1420 0.9895
vn -0.8794 -0.4092 -0.2433
vn -0.7867 -0.1398 0.6013
vn -0.9974 -0.0467 0.0556
vn -0.0511 0.9403 -0.3365
vn -0.3507 0.7836 0.5128
vn 0.3447 0.8227 -0.4520
vn -0.2038 0.2574 0.9446
vn -0.3539 0.4546 0.8174
vn -0.0658 0.0798 0.9946
vn 0.8821 0.1107 0.4579
vn 0.5459 0.5804 0.6043
vn 0.7003 0.0901 0.7081
vn 0.4102 0.6189 0.6699
vn 0.3219 0.7052 0.6318
vn -0.2059 0.2983 0.9320
vn 0.0916 0.7269 0.6806
vn 0.3380 0.3785 0.8617
vn 0.4361 0.6892 -0.5786
vn -0.1731 0.9605 -0.2179
vn 0.1685 0.9411 -0.2930
vn -0.0985 0.4861 0.8683
vn -0.0659 0.7583 0.6486
vn 0.1142 0.7930 0.5984
vn -0.1436 0.5003 0.8539
vn -0.2690 0.8773 0.3974
vn -0.2417 0.8637 -0.4422
vn -0.9002 -0.2633 -0.3469
vn -0.9762 0.1599 -0.1468
vn -0.6470 0.0957 -0.7564
vn -0.3299 -0.0614 0.9420
vn 0.1611 -0.1607 0.9738
vn -0.2715 -0.3856 0.8818
vn 0.0848 0.4923 0.8663
vn -0.0425 0.7027 0.7102
vn -0.2624 0.4935 0.8292
vn -0.2149 0.4772 0.8521
vn -0.0400 0.5692 0.8212
vn -0.2038 0.6219 0.7561
vn 0.2703 0.9125 -0.3070
vn 0.5963 0.6837 0.4207
vn 0.1347 0.9162 0.3773
vn 0.3306 0.6167 0.7144
vn 0.3687 0.7225 0.5849
vn 0.3562 0.6360 0.6846
vn 0.5234 0.5313 0.6662
vn 0.0932 0.5531 0.8279
vn -0.9490 0.1717 0.2643
vn -0.7828 -0.1609 0.6011
vn 0.9769 -0.2135 -0.0041
vn 0.7978 -0.3145 -0.5143
vn -0.4347 0.5129 0.7403
vn 0.1177 0.7043 0.7001
vn -0.0065 0.8429 0.5381
vn 0.3544 0.4205 0.8352
vn -0.5261 0.5086 -0.6816
vn -0.3183 0.9468 -0.0469
vn 0.3011 0.3308 0.8944
vn -0.5327 0.3875 0.7524
vn 0.2417 0.6490 0.7214
vn 0.5254 0.8197 0.2281
vn -0.7461 0.1729 0.6430
vn -0.9570 -0.2108 0.1991
vn -0.6903 0.4867 0.5353
vn -0.0653 0.5475 0.8343
vn -0.5748 0.0549 0.8164
vn -0.6715 0.1337 0.7288
vn 0.0133 0.4757 0.8795
vn -0.2807 0.4873 0.8269
vn -0.1538 0.9508 0.2688
vn 0.3180 0.8848 -0.3405
vn 0.5864 0.2395 -0.7738
vn 0.2536 -0.0589 -0.9655
vn -0.0527 0.6090 0.7914
vn 0.4304 0.5416 0.7221
vn -0.9908 -0.1208 -0.0605
vn 0.0011 0.7534 0.6576
vn 0.7505 0.6151 0.2417
vn -0.1561 0.8430 -0.5148
vn -0.2474 0.1973 0.9486
vn -0.3861 0.3906 -0.8357
vn 0.6167 -0.4762 -0.6268
vn -0.1084 0.9937 -0.0292
vn -0.0281 0.8429 0.5374
vn 0.0685 0.6973 -0.7135
vn -0.1135 -0.1957 0.9741
vn -0.1761 -0.2110 0.9615
vn 0.1748 0.0009 0.9846
vn -0.5268 -0.6480 -0.5501
# 101 vertex normals

vt 0.8936 0.4675 0.0000
vt 0.8306 0.5005 0.0000
vt 0.8142 0.4580 0.0000
vt 0.9739 0.3323 0.0000
vt 0.9426 0.3219 0.0000
vt 0.9820 0.3105 0.0000
vt 0.9405 0.3067 0.0000
vt 0.6737 0.2929 0.0000
vt 0.7299 0.2873 0.0000
vt 0.7065 0.3190 0.0000
vt 0.9604 0.2353 0.0000
vt 0.9804 0.2137 0.0000
vt 0.9902 0.2734 0.0000
vt 0.8948 0.0264 0.0000
vt 0.9161 0.0548 0.0000
vt 0.8799 0.0478 0.0000
vt 0.7060 0.2271 0.0000
vt 0.7522 0.2344 0.0000
vt 0.7093 0.2693 0.0000
vt 0.8641 0.1548 0.0000
vt 0.8294 0.1414 0.0000
vt 0.9125 0.1004 0.0000
vt 0.8840 0.4411 0.0000
vt 0.8904 0.3826 0.0000
vt 0.9538 0.4166 0.0000
vt 0.8487 0.3848 0.0000
vt 0.7881 0.3170 0.0000
vt 0.7938 0.2501 0.0000
vt 0.8143 0.2901 0.0000
vt 0.8222 0.4290 0.0000
vt 0.6888 0.4146 0.0000
vt 0.6697 0.3497 0.0000
vt 0.7104 0.4027 0.0000
vt 0.7700 0.1972 0.0000
vt 0.7538 0.1563 0.0000
vt 0.8270 0.1904 0.0000
vt 0.8170 0.2191 0.0000
vt 0.7419 0.1899 0.0000
vt 0.7099 0.1576 0.0000
vt 0.8276 0.0086 0.0000
vt 0.7537 0.0733 0.0000
vt 0.7371 0.0518 0.0000
vt 0.9163 0.1596 0.0000
vt 0.9464 0.1308 0.0000
vt 0.9586 0.1598 0.0000
vt 0.9590 0.2731 0.0000
vt 0.9260 0.3148 0.0000
vt 0.9335 0.2484 0.0000
vt 0.8756 0.2046 0.0000
vt 0.8747 0.2704 0.0000
vt 0.8391 0.2424 0.0000
vt 0.7155 0.3498 0.0000
vt 0.7563 0.3389 0.0000
vt 0.7667 0.4298 0.0000
vt 0.8006 0.3704 0.0000
vt 0.8047 0.3344 0.0000
vt 0.8489 0.3623 0.0000
vt 0.8464 0.3139 0.0000
vt 0.8961 0.3198 0.0000
vt 0.9325 0.2111 0.0000
vt 0.9630 0.1806 0.0000
vt 0.9351 0.4592 0.0000
vt 0.9269 0.5143 0.0000
vt 0.8532 0.2739 0.0000
vt 0.8706 0.3393 0.0000
vt 0.8808 0.3574 0.0000
vt 0.8302 0.3350 0.0000
vt 0.7098 0.1086 0.0000
vt 0.7302 0.1241 0.0000
vt 0.9098 0.2779 0.0000
vt 0.8988 0.2235 0.0000
vt 0.6735 0.2637 0.0000
vt 0.7576 0.2886 0.0000
vt 0.7391 0.3124 0.0000
vt 0.8936 0.0673 0.0000
vt 0.7981 0.0622 0.0000
vt 0.7497 0.0994 0.0000
vt 0.7797 0.1425 0.0000
vt 0.7894 0.0912 0.0000
vt 0.8145 0.0871 0.0000
vt 0.9233 0.3453 0.0000
vt 0.7663 0.2170 0.0000
vt 0.7619 0.4063 0.0000
vt 0.7302 0.4217 0.0000
vt 0.7331 0.4618 0.0000
vt 0.7068 0.4500 0.0000
vt 0.8373 0.1741 0.0000
vt 0.8453 0.2267 0.0000
vt 0.8291 0.0458 0.0000
vt 0.7487 0.1285 0.0000
vt 0.7730 0.4535 0.0000
vt 0.7742 0.4996 0.0000
vt 0.6708 0.2006 0.0000
vt 0.8759 0.1800 0.0000
vt 0.6771 0.1540 0.0000
vt 0.8765 0.5187 0.0000
vt 0.7236 0.2161 0.0000
vt 0.8343 0.2912 0.0000
vt 0.7220 0.0797 0.0000
vt 0.6709 0.3291 0.0000
vt 0.7921 0.5281 0.0000
vt 0.9330 0.0873 0.0000
vt 0.9728 0.3473 0.0000
vt 0.9481 0.3520 0.0000
vt 0.8810 0.0005 0.0000
vt 0.6967 0.0989 0.0000
# 106 texture coords

o Roca_05
g Roca_05
usemtl Rocas
s off
f 1/1/1 2/2/2 3/3/3 
f 4/4/4 5/5/5 6/6/6 
f 5/5/5 7/7/7 6/6/6 
f 8/8/8 9/9/9 10/10/10 
f 11/11/11 12/12/12 13/13/13 
f 14/14/14 15/15/15 16/16/16 
f 17/17/17 18/18/18 19/19/19 
f 20/20/20 21/21/21 22/22/22 
f 23/23/23 24/24/24 25/25/25 
f 24/24/24 23/23/23 26/26/26 
f 27/27/27 28/28/28 29/29/29 
f 23/23/23 30/30/30 26/26/26 
f 31/31/31 32/32/32 33/33/33 
f 34/34/34 35/35/35 36/36/36 
f 36/36/36 37/37/37 34/34/34 
f 35/35/35 38/38/38 39/39/39 
f 40/40/40 41/41/41 42/42/42 
f 43/43/43 44/44/44 45/45/45 
f 6/6/6 7/7/7 46/46/46 
f 47/47/47 48/48/48 7/7/7 
f 49/49/49 50/50/50 51/51/51 
f 52/52/52 53/53/53 33/33/33 
f 54/54/54 55/55/55 26/26/26 
f 56/56/56 57/57/57 55/55/55 
f 58/58/58 50/50/50 59/59/59 
f 60/60/60 61/61/61 12/12/12 
f 1/1/1 62/62/62 63/63/63 
f 51/51/51 64/64/64 29/29/29 
f 51/51/51 29/29/29 28/28/28 
f 65/65/65 66/66/66 57/57/57 
f 67/67/67 65/65/65 57/57/57 
f 20/20/20 22/22/22 44/44/44 
f 39/39/39 68/68/68 69/69/69 
f 48/48/48 47/47/47 70/70/70 
f 70/70/70 71/71/71 48/48/48 
f 8/72/8 17/17/17 19/19/19 
f 72/73/72 28/28/28 27/27/27 
f 73/74/73 53/53/53 52/52/52 
f 22/22/22 21/21/21 74/75/74 
f 41/41/41 40/40/40 75/76/75 
f 76/77/76 69/69/69 68/68/68 
f 77/78/77 78/79/78 79/80/79 
f 66/66/66 59/59/59 80/81/80 
f 80/81/80 25/25/25 24/24/24 
f 18/18/18 28/28/28 72/73/72 
f 28/28/28 81/82/81 37/37/37 
f 48/48/48 46/46/46 7/7/7 
f 11/11/11 60/60/60 12/12/12 
f 82/83/82 54/54/54 83/84/83 
f 84/85/84 85/86/85 83/84/83 
f 86/87/86 49/49/49 87/88/87 
f 43/43/43 20/20/20 44/44/44 
f 53/53/53 82/83/82 33/33/33 
f 27/27/27 56/56/56 55/55/55 
f 21/21/21 79/80/79 74/75/74 
f 88/89/88 14/14/14 16/16/16 
f 77/78/77 89/90/89 78/79/78 
f 89/90/89 35/35/35 39/39/39 
f 70/70/70 50/50/50 71/71/71 
f 50/50/50 70/70/70 59/59/59 
f 90/91/90 84/85/84 83/84/83 
f 84/92/84 3/3/3 2/2/2 
f 8/72/8 91/93/91 17/17/17 
f 49/49/49 92/94/92 61/61/61 
f 49/49/49 86/87/86 92/94/92 
f 3/3/3 30/30/30 23/23/23 
f 84/92/84 90/91/90 3/3/3 
f 91/93/91 93/95/93 39/39/39 
f 14/14/14 88/89/88 40/40/40 
f 49/49/49 71/71/71 50/50/50 
f 32/32/32 52/52/52 33/33/33 
f 94/96/94 1/1/1 63/63/63 
f 91/93/91 39/39/39 95/97/95 
f 39/39/39 38/38/38 95/97/95 
f 29/29/29 64/64/64 96/98/96 
f 27/27/27 29/29/29 56/56/56 
f 23/23/23 25/25/25 62/62/62 
f 46/46/46 11/11/11 13/13/13 
f 60/60/60 11/11/11 46/46/46 
f 86/87/86 36/36/36 35/35/35 
f 37/37/37 36/36/36 86/87/86 
f 86/87/86 35/35/35 77/78/77 
f 89/90/89 77/78/77 35/35/35 
f 71/71/71 60/60/60 48/48/48 
f 48/48/48 60/60/60 46/46/46 
f 41/99/41 76/77/76 68/68/68 
f 75/76/75 78/79/78 41/41/41 
f 62/62/62 1/1/1 23/23/23 
f 3/3/3 23/23/23 1/1/1 
f 10/10/10 73/74/73 52/52/52 
f 32/32/32 97/100/97 52/52/52 
f 85/101/85 84/92/84 2/2/2 
f 13/13/13 6/6/6 46/46/46 
f 82/83/82 83/84/83 33/33/33 
f 37/37/37 86/87/86 87/88/87 
f 28/28/28 37/37/37 51/51/51 
f 85/101/85 2/2/2 94/96/94 
f 81/82/81 34/34/34 37/37/37 
f 95/97/95 38/38/38 81/82/81 
f 59/59/59 70/70/70 47/47/47 
f 5/5/5 59/59/59 47/47/47 
f 28/28/28 18/18/18 81/82/81 
f 81/82/81 18/18/18 95/97/95 
f 97/100/97 8/8/8 10/10/10 
f 10/10/10 52/52/52 97/100/97 
f 58/58/58 67/67/67 29/29/29 
f 65/65/65 67/67/67 58/58/58 
f 55/55/55 82/83/82 53/53/53 
f 55/55/55 54/54/54 82/83/82 
f 67/67/67 56/56/56 29/29/29 
f 56/56/56 67/67/67 57/57/57 
f 15/15/15 22/22/22 74/75/74 
f 44/44/44 22/22/22 98/102/98 
f 99/103/99 5/5/5 4/4/4 
f 99/103/99 25/25/25 100/104/100 
f 78/79/78 88/89/88 79/80/79 
f 79/80/79 88/89/88 16/16/16 
f 61/61/61 43/43/43 45/45/45 
f 59/59/59 5/5/5 80/81/80 
f 100/104/100 5/5/5 99/103/99 
f 73/74/73 27/27/27 53/53/53 
f 55/55/55 53/53/53 27/27/27 
f 34/34/34 38/38/38 35/35/35 
f 34/34/34 81/82/81 38/38/38 
f 72/73/72 9/9/9 18/18/18 
f 9/9/9 73/74/73 10/10/10 
f 76/77/76 41/41/41 78/79/78 
f 89/90/89 76/77/76 78/79/78 
f 58/58/58 64/64/64 50/50/50 
f 50/50/50 64/64/64 51/51/51 
f 88/89/88 78/79/78 75/76/75 
f 75/76/75 40/40/40 88/89/88 
f 21/21/21 77/78/77 79/80/79 
f 86/87/86 77/78/77 21/21/21 
f 66/66/66 24/24/24 26/26/26 
f 24/24/24 66/66/66 80/81/80 
f 26/26/26 30/30/30 54/54/54 
f 90/91/90 83/84/83 54/54/54 
f 57/57/57 26/26/26 55/55/55 
f 57/57/57 66/66/66 26/26/26 
f 98/102/98 22/22/22 15/15/15 
f 69/69/69 76/77/76 89/90/89 
f 89/90/89 39/39/39 69/69/69 
f 90/91/90 54/54/54 30/30/30 
f 3/3/3 90/91/90 30/30/30 
f 101/105/101 14/14/14 40/40/40 
f 59/59/59 66/66/66 65/65/65 
f 65/65/65 58/58/58 59/59/59 
f 86/87/86 21/21/21 20/20/20 
f 92/94/92 86/87/86 20/20/20 
f 9/9/9 8/72/8 19/19/19 
f 19/19/19 18/18/18 9/9/9 
f 25/25/25 80/81/80 100/104/100 
f 80/81/80 5/5/5 100/104/100 
f 92/94/92 20/20/20 43/43/43 
f 61/61/61 92/94/92 43/43/43 
f 95/97/95 18/18/18 17/17/17 
f 17/17/17 91/93/91 95/97/95 
f 15/15/15 74/75/74 16/16/16 
f 16/16/16 74/75/74 79/80/79 
f 37/37/37 87/88/87 51/51/51 
f 87/88/87 49/49/49 51/51/51 
f 2/2/2 1/1/1 94/96/94 
f 73/74/73 72/73/72 27/27/27 
f 73/74/73 9/9/9 72/73/72 
f 64/64/64 58/58/58 96/98/96 
f 29/29/29 96/98/96 58/58/58 
f 42/106/42 41/99/41 68/68/68 
f 93/95/93 42/106/42 68/68/68 39/39/39 
f 71/71/71 49/49/49 61/61/61 60/60/60 
f 85/86/85 31/31/31 83/84/83 
f 83/84/83 31/31/31 33/33/33 
f 47/47/47 7/7/7 5/5/5 
# 2 polygons - 171 triangles

