# 3ds Max Wavefront OBJ Exporter v0.97b - (c)2007 guruware
# File Created: 29.01.2020 12:26:04

mtllib Roca_01.mtl

#
# object Roca_01
#

v  8.4384 21.0569 -4.6586
v  6.8965 18.5734 -1.1657
v  10.5145 20.6971 -3.8170
v  9.9554 19.3513 2.4455
v  9.2045 4.4960 4.8590
v  6.4846 -1.3326 2.7995
v  14.1744 -1.4711 3.5402
v  17.5720 15.4759 -0.6796
v  13.5140 14.8291 4.4676
v  16.0481 10.7352 1.0132
v  4.2291 0.4754 10.9604
v  8.2588 4.6725 9.0593
v  -1.7552 2.7263 12.3094
v  -11.0145 16.6551 -14.0041
v  -14.1894 21.5393 -11.1535
v  -8.8432 23.6496 -11.7133
v  -2.0904 13.1766 5.9649
v  4.9469 10.1590 8.4282
v  5.9267 10.0208 3.4254
v  20.0347 9.4147 -3.6965
v  15.6170 6.8496 -12.2205
v  20.8978 13.6753 -5.1235
v  6.9271 -1.5536 6.6243
v  -5.8055 0.7143 10.6412
v  -7.9623 -1.6645 5.6013
v  2.1660 -1.6561 9.6243
v  -10.8783 8.9216 6.0703
v  -8.8471 20.0102 1.2544
v  -12.6930 10.1823 2.8672
v  -19.7450 1.4039 -8.2203
v  -21.1060 9.4952 -5.0080
v  -17.1144 16.6020 -11.0763
v  -19.3514 16.5445 -8.4530
v  -9.1996 24.1715 -2.5109
v  -7.4233 24.0533 -8.4690
v  -12.3463 19.4783 -2.3517
v  -15.5717 9.0821 9.0980
v  -4.9846 18.4736 1.0933
v  -8.2213 9.1658 6.0624
v  -4.1930 19.6625 -1.5290
v  6.6670 15.0859 1.7672
v  11.2030 11.9134 3.7493
v  18.4584 7.1889 4.1062
v  13.1062 6.7822 5.6749
v  16.5244 -1.6379 -7.8205
v  18.5904 1.7758 2.3512
v  12.5442 19.0233 -11.4775
v  13.3297 15.0133 -14.5266
v  18.9140 15.9849 -11.3359
v  9.4384 14.7455 -12.3002
v  6.2486 18.8901 -8.7802
v  1.7250 21.7619 -4.5740
v  -0.9201 23.6046 -3.5482
v  4.5783 18.9321 -13.8008
v  0.8756 22.5039 -10.8959
v  0.4059 10.5823 10.1479
v  -4.4893 8.1873 9.0417
v  -9.1776 4.9351 7.7822
v  -6.8458 2.5151 8.1854
v  19.9611 4.5331 -6.9690
v  3.4591 19.2119 0.4151
v  1.2331 11.9863 3.4918
v  -4.4864 11.4169 3.7230
v  -0.3189 18.9503 -0.8142
v  -0.6329 12.6700 1.6664
v  -24.8033 3.9096 4.6695
v  -24.6267 7.0397 -1.6073
v  -25.5786 0.1121 -2.7656
v  -24.3826 0.4593 -6.0553
v  -13.0397 5.1577 10.8005
v  -23.0375 -1.7108 5.7250
v  0.2604 24.4797 -8.8385
v  -4.1239 24.9457 -5.2697
v  -5.9704 25.3128 -8.2195
v  -21.0743 6.1246 9.3919
v  -19.3586 1.2524 11.2821
v  -20.7485 10.0742 2.2921
v  20.8992 5.5312 -0.9006
v  -1.9361 24.6503 -11.9909
v  -6.3253 20.9625 -13.4504
v  -3.5149 21.4553 -13.1390
v  -15.3759 -1.4316 8.7158
v  8.0080 8.0217 5.4726
v  -14.6537 13.7887 -12.8526
v  15.8773 18.0174 -2.6045
v  -15.6671 19.6005 -2.3114
v  -20.2799 10.5602 -1.3350
v  -15.2847 12.1314 1.8704
v  10.3469 10.9827 5.2998
v  -17.4456 20.9889 -6.6508
v  -13.7219 22.5806 -8.2362
v  -14.8325 20.4882 -7.5497
v  -23.6237 7.7181 2.7605
v  18.3108 12.1260 0.4865
# 94 vertices

vn -0.2920 0.9524 0.0879
vn -0.1123 0.8961 0.4294
vn 0.1867 0.9735 0.1324
vn -0.1223 0.7384 0.6632
vn 0.5161 -0.2299 0.8251
vn 0.6474 -0.5041 0.5716
vn 0.3194 -0.4999 0.8050
vn 0.6866 0.5062 0.5219
vn 0.3227 0.1585 0.9331
vn 0.6323 0.3134 0.7085
vn 0.3645 -0.3418 0.8662
vn 0.7696 0.0744 0.6342
vn -0.1157 -0.0573 0.9916
vn -0.3376 0.2895 -0.8957
vn -0.6071 0.5963 -0.5252
vn 0.0101 0.8319 -0.5549
vn -0.2447 0.9397 0.2391
vn 0.4987 0.7011 0.5096
vn 0.1387 0.7273 0.6722
vn 0.9980 0.0612 0.0128
vn 0.7727 -0.1337 -0.6206
vn 0.9776 0.2093 0.0200
vn 0.8371 -0.4635 0.2904
vn -0.5733 -0.3253 0.7520
vn -0.1441 -0.5232 0.8400
vn 0.0862 -0.6767 0.7312
vn 0.0529 0.6367 0.7693
vn -0.2125 0.5589 0.8015
vn -0.3488 0.7175 0.6029
vn -0.6040 0.1783 -0.7768
vn -0.8753 0.3405 -0.3435
vn -0.6744 0.2856 -0.6809
vn -0.8801 0.3049 -0.3639
vn -0.0785 0.8984 0.4322
vn -0.2023 0.9778 -0.0547
vn -0.4525 0.6244 0.6367
vn 0.0151 0.7633 0.6459
vn 0.3028 0.5600 0.7712
vn -0.1184 0.5206 0.8456
vn 0.2251 0.7782 0.5863
vn -0.1792 0.3491 0.9198
vn 0.0471 0.4000 0.9153
vn 0.6472 0.2481 0.7208
vn 0.1343 -0.0302 0.9905
vn 0.8210 -0.5198 -0.2359
vn 0.7396 -0.4800 0.4718
vn 0.0578 0.8260 -0.5608
vn 0.1661 0.3733 -0.9127
vn 0.7647 0.4037 -0.5022
vn -0.1445 0.6228 -0.7689
vn 0.2447 0.9273 -0.2834
vn 0.4870 0.8017 0.3465
vn 0.3198 0.6430 0.6959
vn 0.5593 0.7682 -0.3116
vn 0.5770 0.6831 -0.4477
vn 0.0149 0.6037 0.7970
vn -0.4620 0.4646 0.7554
vn 0.1289 0.1404 0.9817
vn -0.6978 -0.0458 0.7148
vn 0.9106 -0.1371 -0.3899
vn 0.0524 0.6938 0.7183
vn 0.1858 0.8599 0.4755
vn -0.0929 0.7141 0.6938
vn -0.0401 0.6700 0.7413
vn -0.0394 0.7346 0.6773
vn -0.9286 0.0954 0.3587
vn -0.8684 0.4684 -0.1628
vn -0.9920 0.0752 -0.1016
vn -0.7449 0.2618 -0.6136
vn 0.3434 0.1668 0.9243
vn -0.7847 -0.3529 0.5096
vn 0.5966 0.8002 -0.0604
vn -0.2798 0.8378 0.4689
vn -0.4179 0.9080 0.0307
vn -0.5507 0.4229 0.7196
vn -0.2893 -0.2878 0.9130
vn -0.3604 0.9122 0.1950
vn 0.9868 -0.0781 0.1419
vn 0.1951 0.7342 -0.6503
vn -0.1408 0.5829 -0.8003
vn 0.1629 0.3654 -0.9165
vn 0.1898 -0.5394 0.8204
vn 0.3953 0.4584 0.7960
vn -0.5299 0.0701 -0.8451
vn 0.5535 0.8059 0.2102
vn -0.3178 0.7155 0.6221
vn -0.6778 0.6943 0.2420
vn -0.3426 0.2240 0.9124
vn -0.0607 0.6069 0.7924
vn -0.4897 0.8517 -0.1866
vn -0.6414 0.7642 0.0675
vn -0.5930 0.8042 -0.0406
vn -0.7533 0.6155 0.2318
vn 0.5650 -0.0128 0.8250
# 94 vertex normals

vt 0.2533 0.5876 0.0000
vt 0.2338 0.6231 0.0000
vt 0.2405 0.5807 0.0000
vt 0.2078 0.6016 0.0000
vt 0.0839 0.5862 0.0000
vt 0.0311 0.5715 0.0000
vt 0.0650 0.5165 0.0000
vt 0.1961 0.5493 0.0000
vt 0.1771 0.5840 0.0000
vt 0.1599 0.5507 0.0000
vt 0.0387 0.6450 0.0000
vt 0.0763 0.6188 0.0000
vt 0.0531 0.6900 0.0000
vt 0.3556 0.8299 0.0000
vt 0.3083 0.8285 0.0000
vt 0.3227 0.7846 0.0000
vt 0.1389 0.6980 0.0000
vt 0.1104 0.6475 0.0000
vt 0.1426 0.6323 0.0000
vt 0.1767 0.5053 0.0000
vt 0.2137 0.4413 0.0000
vt 0.2029 0.5155 0.0000
vt 0.0281 0.6013 0.0000
vt 0.0394 0.7212 0.0000
vt 0.0054 0.7530 0.0000
vt 0.0130 0.6547 0.0000
vt 0.1146 0.7797 0.0000
vt 0.2173 0.7628 0.0000
vt 0.1412 0.8039 0.0000
vt 0.1582 0.9849 0.0000
vt 0.1756 0.9119 0.0000
vt 0.2641 0.8976 0.0000
vt 0.2401 0.8854 0.0000
vt 0.2586 0.7693 0.0000
vt 0.3046 0.7614 0.0000
vt 0.2324 0.8035 0.0000
vt 0.0952 0.8152 0.0000
vt 0.2092 0.7298 0.0000
vt 0.1166 0.7563 0.0000
vt 0.2331 0.7220 0.0000
vt 0.1892 0.6296 0.0000
vt 0.1547 0.5934 0.0000
vt 0.1295 0.5385 0.0000
vt 0.1130 0.5684 0.0000
vt 0.1245 0.4304 0.0000
vt 0.1059 0.5128 0.0000
vt 0.2631 0.5311 0.0000
vt 0.2722 0.4894 0.0000
vt 0.2354 0.5048 0.0000
vt 0.3011 0.5209 0.0000
vt 0.2935 0.5778 0.0000
vt 0.2690 0.6720 0.0000
vt 0.2704 0.6981 0.0000
vt 0.3044 0.6251 0.0000
vt 0.3508 0.6393 0.0000
vt 0.3254 0.6794 0.0000
vt 0.1060 0.6802 0.0000
vt 0.0964 0.7197 0.0000
vt 0.0717 0.7633 0.0000
vt 0.0506 0.7424 0.0000
vt 0.1635 0.4687 0.0000
vt 0.2241 0.6560 0.0000
vt 0.1542 0.6707 0.0000
vt 0.1467 0.7233 0.0000
vt 0.2256 0.6888 0.0000
vt 0.1678 0.6896 0.0000
vt 0.0787 0.8968 0.0000
vt 0.1294 0.9162 0.0000
vt 0.0906 0.9596 0.0000
vt 0.1166 0.9747 0.0000
vt 0.0662 0.8002 0.0000
vt 0.0291 0.9026 0.0000
vt 0.3072 0.6910 0.0000
vt 0.2840 0.7247 0.0000
vt 0.3039 0.7455 0.0000
vt 0.0774 0.8523 0.0000
vt 0.0424 0.8445 0.0000
vt 0.1330 0.8702 0.0000
vt 0.1437 0.5058 0.0000
vt 0.3296 0.7074 0.0000
vt 0.3585 0.7418 0.0000
vt 0.3556 0.7156 0.0000
vt 0.0073 0.8220 0.0000
vt 0.1138 0.6109 0.0000
vt 0.3501 0.8653 0.0000
vt 0.3170 0.8710 0.0000
vt 0.2162 0.5554 0.0000
vt 0.2278 0.8283 0.0000
vt 0.1611 0.8790 0.0000
vt 0.1608 0.8251 0.0000
vt 0.1395 0.5973 0.0000
vt 0.3408 0.5883 0.0000
vt 0.2560 0.8492 0.0000
vt 0.2881 0.8209 0.0000
vt 0.2694 0.9312 0.0000
vt 0.2755 0.8398 0.0000
vt 0.1120 0.8895 0.0000
vt 0.1750 0.5408 0.0000
vt 0.3531 0.7796 0.0000
# 99 texture coords

o Roca_01
g Roca_01
usemtl Rocas
s off
f 1/1/1 2/2/2 3/3/3 
f 3/3/3 2/2/2 4/4/4 
f 5/5/5 6/6/6 7/7/7 
f 8/8/8 9/9/9 10/10/10 
f 11/11/11 12/12/12 13/13/13 
f 14/14/14 15/15/15 16/16/16 
f 17/17/17 18/18/18 19/19/19 
f 20/20/20 21/21/21 22/22/22 
f 23/23/23 6/6/6 5/5/5 
f 24/24/24 25/25/25 26/26/26 
f 27/27/27 28/28/28 29/29/29 
f 30/30/30 31/31/31 32/32/32 
f 32/32/32 31/31/31 33/33/33 
f 34/34/34 35/35/35 16/16/16 
f 29/29/29 28/28/28 36/36/36 
f 37/37/37 27/27/27 29/29/29 
f 38/38/38 28/28/28 39/39/39 
f 35/35/35 34/34/34 40/40/40 
f 4/4/4 2/2/2 41/41/41 
f 42/42/42 10/10/10 9/9/9 
f 7/7/7 43/43/43 44/44/44 
f 45/45/45 46/46/46 7/7/7 
f 1/1/1 3/3/3 47/47/47 
f 21/21/21 48/48/48 49/49/49 
f 50/50/50 51/51/51 47/47/47 
f 40/40/40 52/52/52 53/53/53 
f 51/54/51 54/55/54 55/56/55 
f 12/12/12 56/57/56 13/13/13 
f 17/17/17 57/58/57 56/57/56 
f 58/59/58 25/25/25 59/60/59 
f 59/60/59 25/25/25 24/24/24 
f 56/57/56 57/58/57 13/13/13 
f 60/61/60 21/21/21 20/20/20 
f 61/62/61 41/41/41 2/2/2 
f 61/62/61 2/2/2 52/52/52 
f 19/19/19 61/62/61 62/63/62 
f 63/64/63 38/38/38 39/39/39 
f 64/65/64 65/66/65 61/62/61 
f 61/62/61 52/52/52 64/65/64 
f 66/67/66 67/68/67 68/69/68 
f 30/30/30 69/70/69 31/31/31 
f 58/59/58 70/71/70 25/25/25 
f 66/67/66 68/69/68 71/72/71 
f 45/45/45 21/21/21 60/61/60 
f 72/73/72 53/53/53 52/52/52 
f 40/40/40 73/74/73 74/75/74 
f 75/76/75 76/77/76 37/37/37 
f 77/78/77 75/76/75 37/37/37 
f 42/42/42 43/43/43 10/10/10 
f 20/20/20 78/79/78 60/61/60 
f 74/75/74 73/74/73 79/80/79 
f 80/81/80 79/80/79 81/82/81 
f 82/83/82 70/71/70 76/77/76 
f 83/84/83 19/19/19 18/18/18 
f 9/9/9 41/41/41 42/42/42 
f 84/85/84 32/86/32 14/14/14 
f 3/3/3 4/4/4 85/87/85 
f 3/3/3 49/49/49 47/47/47 
f 86/88/86 87/89/87 88/90/88 
f 87/89/87 37/37/37 29/29/29 
f 71/72/71 76/77/76 66/67/66 
f 76/77/76 71/72/71 82/83/82 
f 43/43/43 89/91/89 44/44/44 
f 19/19/19 83/84/83 89/91/89 
f 50/92/50 54/55/54 51/54/51 
f 86/88/86 90/93/90 87/89/87 
f 34/34/34 16/16/16 91/94/91 
f 60/61/60 46/46/46 45/45/45 
f 36/36/36 86/88/86 88/90/88 
f 90/93/90 86/88/86 36/36/36 
f 83/84/83 18/18/18 12/12/12 
f 23/23/23 5/5/5 12/12/12 
f 54/55/54 81/82/81 55/56/55 
f 22/22/22 21/21/21 49/49/49 
f 3/3/3 85/87/85 49/49/49 
f 70/71/70 58/59/58 37/37/37 
f 70/71/70 37/37/37 76/77/76 
f 30/30/30 32/32/32 84/95/84 
f 87/89/87 77/78/77 37/37/37 
f 69/70/69 67/68/67 31/31/31 
f 52/52/52 2/2/2 51/54/51 
f 52/52/52 51/54/51 55/56/55 
f 14/14/14 32/86/32 15/15/15 
f 31/31/31 90/93/90 33/33/33 
f 15/15/15 32/86/32 92/96/92 
f 15/15/15 91/94/91 16/16/16 
f 76/77/76 75/76/75 66/67/66 
f 66/67/66 75/76/75 93/97/93 
f 13/13/13 57/58/57 24/24/24 
f 13/13/13 24/24/24 26/26/26 
f 9/9/9 4/4/4 41/41/41 
f 9/9/9 85/87/85 4/4/4 
f 58/59/58 27/27/27 37/37/37 
f 20/20/20 43/43/43 78/79/78 
f 46/46/46 43/43/43 7/7/7 
f 57/58/57 39/39/39 58/59/58 
f 63/64/63 39/39/39 57/58/57 
f 72/73/72 52/52/52 55/56/55 
f 79/80/79 55/56/55 81/82/81 
f 62/63/62 17/17/17 19/19/19 
f 63/64/63 57/58/57 17/17/17 
f 12/12/12 11/11/11 23/23/23 
f 38/38/38 40/40/40 34/34/34 
f 40/40/40 64/65/64 52/52/52 
f 31/31/31 67/68/67 87/89/87 
f 87/89/87 90/93/90 31/31/31 
f 8/8/8 94/98/94 22/22/22 
f 22/22/22 49/49/49 85/87/85 
f 70/71/70 82/83/82 25/25/25 
f 48/48/48 50/50/50 47/47/47 
f 48/48/48 47/47/47 49/49/49 
f 78/79/78 46/46/46 60/61/60 
f 78/79/78 43/43/43 46/46/46 
f 88/90/88 87/89/87 29/29/29 
f 88/90/88 29/29/29 36/36/36 
f 22/22/22 94/98/94 20/20/20 
f 20/20/20 10/10/10 43/43/43 
f 56/57/56 18/18/18 17/17/17 
f 12/12/12 18/18/18 56/57/56 
f 2/2/2 1/1/1 51/51/51 
f 51/51/51 1/1/1 47/47/47 
f 20/20/20 94/98/94 10/10/10 
f 8/8/8 10/10/10 94/98/94 
f 63/64/63 17/17/17 65/66/65 
f 65/66/65 64/65/64 63/64/63 
f 66/67/66 93/97/93 67/68/67 
f 67/68/67 77/78/77 87/89/87 
f 41/41/41 19/19/19 42/42/42 
f 41/41/41 61/62/61 19/19/19 
f 80/81/80 74/75/74 79/80/79 
f 89/91/89 83/84/83 44/44/44 
f 44/44/44 5/5/5 7/7/7 
f 40/40/40 38/38/38 64/65/64 
f 64/65/64 38/38/38 63/64/63 
f 62/63/62 61/62/61 65/66/65 
f 65/66/65 17/17/17 62/63/62 
f 73/74/73 53/53/53 72/73/72 
f 53/53/53 73/74/73 40/40/40 
f 11/11/11 13/13/13 26/26/26 
f 23/23/23 11/11/11 26/26/26 
f 92/96/92 90/93/90 36/36/36 
f 33/33/33 90/93/90 92/96/92 
f 36/36/36 28/28/28 34/34/34 
f 28/28/28 38/38/38 34/34/34 
f 33/33/33 92/96/92 32/32/32 
f 67/68/67 69/70/69 68/69/68 
f 79/80/79 72/73/72 55/56/55 
f 73/74/73 72/73/72 79/80/79 
f 28/28/28 27/27/27 39/39/39 
f 39/39/39 27/27/27 58/59/58 
f 42/42/42 19/19/19 89/91/89 
f 43/43/43 42/42/42 89/91/89 
f 59/60/59 57/58/57 58/59/58 
f 24/24/24 57/58/57 59/60/59 
f 8/8/8 85/87/85 9/9/9 
f 85/87/85 8/8/8 22/22/22 
f 80/99/80 14/14/14 16/16/16 
f 35/35/35 80/99/80 16/16/16 
f 44/44/44 83/84/83 5/5/5 
f 83/84/83 12/12/12 5/5/5 
f 35/35/35 40/40/40 74/75/74 
f 35/35/35 74/75/74 80/81/80 
f 67/68/67 93/97/93 77/78/77 
f 77/78/77 93/97/93 75/76/75 
f 15/15/15 92/96/92 91/94/91 
f 36/36/36 91/94/91 92/96/92 
f 34/34/34 91/94/91 36/36/36 
# 0 polygons - 167 triangles

