# 3ds Max Wavefront OBJ Exporter v0.97b - (c)2007 guruware
# File Created: 29.01.2020 12:27:32

mtllib Roca_06.mtl

#
# object Roca_06
#

v  -5.3473 4.2503 9.8909
v  -8.1446 2.3769 7.6735
v  -2.3910 2.3812 9.9271
v  8.0983 2.3713 -2.6334
v  6.1030 2.4149 -4.7269
v  6.5233 7.3559 -4.2137
v  -10.2915 7.7870 -1.2097
v  -10.0939 2.3808 -1.0347
v  -9.0557 8.7749 6.7013
v  4.5792 10.8253 5.9804
v  9.1956 9.1448 3.4070
v  4.6631 9.1030 -2.4138
v  6.5775 2.3834 -7.4164
v  0.4323 11.1326 -1.8071
v  -3.4416 10.0734 -2.2533
v  -4.7711 11.5447 3.0170
v  2.9179 2.3803 -11.4850
v  0.9055 7.2693 -8.3698
v  4.9603 8.3588 -6.6330
v  10.2915 2.4258 0.0406
v  8.5850 7.2163 -2.2743
v  8.4241 2.4640 6.4323
v  2.1976 9.4852 10.0934
v  2.8977 5.4758 11.4850
v  -2.2431 9.5003 7.8988
v  -6.3720 8.4588 8.0542
v  -1.6012 11.8350 3.1327
v  -6.2541 8.0096 -5.6758
v  -8.6139 2.3777 -3.1303
v  -4.5717 2.3779 -3.8700
v  0.0860 5.2549 11.2393
v  0.4540 11.6511 -4.8845
v  -0.2072 2.4233 9.6716
v  -5.0563 2.3784 -8.7270
v  -3.8655 6.2890 -8.2502
v  -1.0956 9.1975 -9.3135
v  -4.9041 10.5154 -4.4733
v  -5.2659 8.9351 -7.8684
# 38 vertices

vn -0.1906 0.0453 0.9806
vn -0.7936 -0.1299 0.5944
vn -0.1910 -0.0679 0.9792
vn 0.7408 -0.0131 -0.6716
vn 0.9652 -0.0555 -0.2557
vn 0.7627 0.4911 -0.4209
vn -0.8619 0.4270 -0.2735
vn -0.9764 -0.0605 -0.2072
vn -0.7251 0.5037 0.4696
vn 0.1901 0.9671 0.1688
vn 0.7711 0.6193 0.1478
vn 0.4309 0.8938 -0.1239
vn 0.9131 0.1694 -0.3708
vn 0.1567 0.9870 0.0362
vn -0.3177 0.9466 -0.0542
vn -0.2657 0.9602 0.0859
vn 0.2239 0.4319 -0.8737
vn 0.1949 0.4547 -0.8690
vn 0.5792 0.6266 -0.5215
vn 0.9786 0.0759 -0.1913
vn 0.7456 0.4407 -0.4998
vn 0.8082 -0.0028 0.5889
vn 0.1143 0.6807 0.7236
vn 0.3223 -0.0892 0.9424
vn -0.1780 0.7693 0.6136
vn -0.2062 0.5792 0.7887
vn 0.2299 0.9450 0.2328
vn -0.8531 0.2816 -0.4392
vn -0.6097 -0.1451 -0.7792
vn -0.7195 -0.3975 -0.5694
vn -0.2964 -0.0078 0.9550
vn 0.1567 0.9654 -0.2086
vn 0.1326 -0.5553 0.8210
vn -0.7605 0.0666 -0.6459
vn -0.4283 0.1056 -0.8974
vn 0.1361 0.3979 -0.9073
vn -0.6417 0.7511 0.1550
vn -0.6631 0.3643 -0.6539
# 38 vertex normals

vt 0.8261 0.5546 0.0000
vt 0.7919 0.5630 0.0000
vt 0.8385 0.5281 0.0000
vt 0.9810 0.7033 0.0000
vt 0.9717 0.7269 0.0000
vt 0.9298 0.7073 0.0000
vt 0.7967 0.6462 0.0000
vt 0.7581 0.6330 0.0000
vt 0.8232 0.5988 0.0000
vt 0.9171 0.6233 0.0000
vt 0.9443 0.6452 0.0000
vt 0.9104 0.6847 0.0000
vt 0.9502 0.7486 0.0000
vt 0.9305 0.7624 0.0000
vt 0.8748 0.6717 0.0000
vt 0.8423 0.6707 0.0000
vt 0.8468 0.6289 0.0000
vt 0.8844 0.7822 0.0000
vt 0.8701 0.7321 0.0000
vt 0.9048 0.7173 0.0000
vt 0.9902 0.6721 0.0000
vt 0.9448 0.6871 0.0000
vt 0.9832 0.6099 0.0000
vt 0.9117 0.5931 0.0000
vt 0.9306 0.5769 0.0000
vt 0.8737 0.5893 0.0000
vt 0.8395 0.5873 0.0000
vt 0.8680 0.6311 0.0000
vt 0.8081 0.6959 0.0000
vt 0.7549 0.6574 0.0000
vt 0.7479 0.6934 0.0000
vt 0.9187 0.5626 0.0000
vt 0.8702 0.6925 0.0000
vt 0.9351 0.5416 0.0000
vt 0.8095 0.7613 0.0000
vt 0.7695 0.7420 0.0000
vt 0.8279 0.7310 0.0000
vt 0.8541 0.7198 0.0000
vt 0.8329 0.6876 0.0000
vt 0.8270 0.7086 0.0000
vt 0.9146 0.5318 0.0000
# 41 texture coords

o Roca_06
g Roca_06
usemtl Rocas
s off
f 1/1/1 2/2/2 3/3/3 
f 4/4/4 5/5/5 6/6/6 
f 7/7/7 8/8/8 9/9/9 
f 10/10/10 11/11/11 12/12/12 
f 5/13/5 13/14/13 6/6/6 
f 14/15/14 15/16/15 16/17/16 
f 17/18/17 18/19/18 19/20/19 
f 11/11/11 20/21/20 21/22/21 
f 11/11/11 22/23/22 20/21/20 
f 23/24/23 24/25/24 11/11/11 
f 9/9/9 8/8/8 2/2/2 
f 7/7/7 9/9/9 16/17/16 
f 3/3/3 25/26/25 26/27/26 
f 26/27/26 25/26/25 27/28/27 
f 25/26/25 12/12/12 27/28/27 
f 28/29/28 7/7/7 16/17/16 
f 7/7/7 28/29/28 29/30/29 
f 13/14/13 19/20/19 6/6/6 
f 27/28/27 12/12/12 14/15/14 
f 30/31/30 29/30/29 28/29/28 
f 19/20/19 12/12/12 6/6/6 
f 11/11/11 21/22/21 12/12/12 
f 23/24/23 25/26/25 31/32/31 
f 10/10/10 12/12/12 25/26/25 
f 17/18/17 19/20/19 13/14/13 
f 24/25/24 22/23/22 11/11/11 
f 19/20/19 32/33/32 12/12/12 
f 18/19/18 32/33/32 19/20/19 
f 24/25/24 23/24/23 31/32/31 
f 33/34/33 22/23/22 24/25/24 
f 34/35/34 30/36/30 28/29/28 
f 34/35/34 35/37/35 17/18/17 
f 23/24/23 11/11/11 10/10/10 
f 23/24/23 10/10/10 25/26/25 
f 35/37/35 34/35/34 28/29/28 
f 32/33/32 36/38/36 37/39/37 
f 38/40/38 36/38/36 35/37/35 
f 32/33/32 18/19/18 36/38/36 
f 18/19/18 17/18/17 35/37/35 
f 36/38/36 18/19/18 35/37/35 
f 4/4/4 21/22/21 20/21/20 
f 14/15/14 16/17/16 27/28/27 
f 26/27/26 27/28/27 16/17/16 
f 14/15/14 12/12/12 32/33/32 
f 14/15/14 32/33/32 15/16/15 
f 3/41/3 31/32/31 25/26/25 
f 32/33/32 37/39/37 15/16/15 
f 38/40/38 35/37/35 28/29/28 
f 37/39/37 28/29/28 15/16/15 
f 15/16/15 28/29/28 16/17/16 
f 9/9/9 2/2/2 1/1/1 
f 3/3/3 26/27/26 1/1/1 
f 38/40/38 28/29/28 37/39/37 
f 36/38/36 38/40/38 37/39/37 
f 9/9/9 26/27/26 16/17/16 
f 9/9/9 1/1/1 26/27/26 
f 4/4/4 6/6/6 21/22/21 
f 21/22/21 6/6/6 12/12/12 
f 8/8/8 7/7/7 29/30/29 
f 3/41/3 33/34/33 31/32/31 
f 24/25/24 31/32/31 33/34/33 
# 0 polygons - 61 triangles

