# 3ds Max Wavefront OBJ Exporter v0.97b - (c)2007 guruware
# File Created: 29.01.2020 12:26:55

mtllib Roca_04.mtl

#
# object Roca_04
#

v  9.9307 -0.2428 5.6138
v  12.1521 -0.2430 -1.5802
v  10.9228 6.5661 5.3373
v  -8.5537 10.1730 -5.7779
v  -7.8959 9.3182 -2.1254
v  -8.5617 14.6176 -4.6759
v  0.6380 -0.2008 -9.0105
v  -2.8173 3.2510 -10.3844
v  0.9444 3.9049 -8.1692
v  -0.3373 14.6344 3.8064
v  -7.4294 15.1796 -2.0610
v  -4.6505 9.9779 2.4829
v  8.3729 11.4407 -0.1369
v  7.6167 9.5138 -5.8638
v  5.3850 11.7247 -5.7084
v  2.1497 14.3334 -8.4048
v  -0.0442 15.5708 2.3046
v  -5.5373 15.0153 -9.4894
v  8.5031 6.3382 8.8784
v  3.5450 5.2346 11.4453
v  7.5390 -0.1473 9.9147
v  -3.0670 5.9055 6.7219
v  -8.4083 4.5879 4.5844
v  -5.8961 -0.1132 7.2911
v  -11.9437 3.6371 -3.6535
v  -5.8763 5.6513 -9.2164
v  -4.4158 -0.2386 -10.8279
v  -8.6858 8.3889 4.0325
v  -8.7264 6.2370 -0.1068
v  -10.6891 -0.2425 -4.9273
v  11.8124 2.5038 -2.0408
v  11.1240 5.8979 1.4884
v  -1.7230 -0.2413 11.3917
v  3.8775 -0.2416 11.2992
v  -1.5682 6.1129 11.5935
v  4.1701 6.8784 6.2218
v  9.1542 7.7705 -2.1109
v  9.7280 9.9669 0.8003
v  8.4386 7.2441 1.9520
v  1.7770 8.9574 6.9061
v  3.5971 10.7016 5.2715
v  -5.0994 9.1793 6.4556
v  2.8586 9.3490 -9.0284
v  2.7866 5.2687 -8.9550
v  7.2506 -0.0002 -5.2674
v  4.7260 0.1810 -8.7240
v  6.9548 5.0923 -7.0177
v  4.0982 11.7829 0.0498
v  -0.1999 11.5254 3.5523
v  5.7723 10.7147 5.0922
v  -6.3940 6.4365 6.2343
v  6.2139 6.3923 -5.1443
v  -4.7073 11.7788 -10.8927
v  -4.5237 9.1808 -10.1730
v  3.5166 11.1811 -8.5868
v  -0.4273 14.2274 -11.4037
v  0.0251 10.2856 -11.1074
v  3.5457 14.8622 -1.3510
v  4.4709 13.3407 -0.6881
v  -11.6648 4.8635 -1.2816
v  -12.1521 -0.2074 2.0052
v  -9.7013 4.2442 4.4940
v  -9.2337 -0.2402 4.8995
v  4.5944 12.9116 -7.4460
v  9.3324 -0.4239 -4.6804
v  9.7767 5.2755 -4.5208
v  -8.5252 6.0845 -5.4697
v  -1.3718 -0.2239 -10.4794
v  -7.7050 9.0279 -8.1013
v  -2.8898 7.7346 -11.5935
v  0.3474 8.6137 -11.3163
v  1.2561 4.8362 -10.8702
v  -4.9821 -0.2423 6.8581
# 73 vertices

vn 0.9108 -0.1166 0.3961
vn 0.9719 -0.0067 -0.2355
vn 0.7460 0.6019 0.2850
vn -0.9604 -0.1947 -0.1995
vn -0.9630 0.2077 0.1718
vn -0.8461 0.5279 -0.0732
vn 0.2734 0.1319 -0.9528
vn 0.0300 -0.0616 -0.9977
vn 0.1106 -0.3499 -0.9302
vn 0.1090 0.4463 0.8882
vn -0.5995 0.7216 0.3463
vn -0.5241 0.7233 0.4497
vn 0.5138 0.8579 0.0064
vn 0.8048 0.1532 -0.5734
vn 0.7553 0.5979 -0.2685
vn 0.4461 0.8039 -0.3933
vn 0.1791 0.9201 0.3482
vn -0.4418 0.7240 -0.5297
vn 0.5119 0.6188 0.5958
vn 0.2064 0.3676 0.9068
vn 0.6278 -0.0160 0.7782
vn -0.4230 0.3766 0.8241
vn -0.5340 0.3790 0.7558
vn -0.5761 -0.3798 0.7238
vn -0.8992 0.2334 -0.3702
vn -0.6232 -0.0351 -0.7813
vn -0.2998 0.0932 -0.9495
vn -0.8046 0.4875 0.3392
vn -0.8308 0.5545 0.0472
vn -0.8260 -0.0841 -0.5574
vn 0.9327 0.1580 -0.3242
vn 0.8317 0.5536 -0.0421
vn -0.3747 -0.0185 0.9270
vn 0.1936 -0.0144 0.9810
vn -0.3785 0.6144 0.6923
vn 0.2482 0.7455 0.6185
vn 0.9089 0.2818 -0.3074
vn 0.9410 0.2539 0.2238
vn 0.7210 0.5790 0.3807
vn 0.1396 0.2838 0.9487
vn 0.0976 0.7056 0.7018
vn -0.3200 0.5791 0.7498
vn 0.5637 0.0010 -0.8260
vn 0.5233 -0.0880 -0.8476
vn 0.6046 -0.0047 -0.7965
vn 0.4420 -0.0313 -0.8965
vn 0.8099 0.4027 -0.4265
vn 0.4957 0.7575 0.4247
vn 0.0694 0.5908 0.8038
vn 0.4212 0.5732 0.7029
vn -0.3977 -0.1423 0.9064
vn 0.7421 0.0649 -0.6671
vn -0.4749 -0.0305 -0.8795
vn -0.4664 0.0742 -0.8814
vn 0.6282 0.1252 -0.7679
vn 0.2214 0.5674 -0.7931
vn 0.2413 -0.4169 -0.8763
vn 0.5509 0.8273 0.1100
vn 0.8805 0.2896 0.3753
vn -0.7941 0.6048 0.0606
vn -0.9408 0.0813 0.3291
vn -0.5702 0.5175 0.6380
vn -0.6375 -0.0581 0.7682
vn 0.7888 0.3875 -0.4772
vn 0.5265 -0.0172 -0.8500
vn 0.5958 0.3356 -0.7296
vn -0.8474 0.4119 -0.3352
vn 0.4049 0.1929 -0.8938
vn -0.7698 0.2922 -0.5675
vn -0.2067 0.1231 -0.9706
vn 0.2684 0.4657 -0.8432
vn 0.4659 -0.4504 -0.7617
vn -0.0689 -0.9865 0.1486
# 73 vertex normals

vt 0.2678 0.2902 0.0000
vt 0.2284 0.3398 0.0000
vt 0.2234 0.2682 0.0000
vt 0.0759 0.1018 0.0000
vt 0.1086 0.1097 0.0000
vt 0.0663 0.1362 0.0000
vt 0.1187 0.4058 0.0000
vt 0.0779 0.3911 0.0000
vt 0.1075 0.3751 0.0000
vt 0.1302 0.1964 0.0000
vt 0.0824 0.1503 0.0000
vt 0.1428 0.1495 0.0000
vt 0.1609 0.2661 0.0000
vt 0.1379 0.3019 0.0000
vt 0.1187 0.2851 0.0000
vt 0.0792 0.2867 0.0000
vt 0.0124 0.2296 0.0000
vt 0.0741 0.2025 0.0000
vt 0.0244 0.1212 0.0000
vt 0.2364 0.2450 0.0000
vt 0.2506 0.2128 0.0000
vt 0.2843 0.2515 0.0000
vt 0.2107 0.1325 0.0000
vt 0.1789 0.0943 0.0000
vt 0.2263 0.0806 0.0000
vt 0.1241 0.0501 0.0000
vt 0.0569 0.0520 0.0000
vt 0.0521 0.0005 0.0000
vt 0.1600 0.1172 0.0000
vt 0.1355 0.0903 0.0000
vt 0.1201 0.0171 0.0000
vt 0.2106 0.3265 0.0000
vt 0.2082 0.2901 0.0000
vt 0.2838 0.1672 0.0000
vt 0.2905 0.2165 0.0000
vt 0.2423 0.1817 0.0000
vt 0.2143 0.1599 0.0000
vt 0.2591 0.1251 0.0000
vt 0.2088 0.2216 0.0000
vt 0.1722 0.2968 0.0000
vt 0.1747 0.2707 0.0000
vt 0.1953 0.2690 0.0000
vt 0.1924 0.2014 0.0000
vt 0.1764 0.2183 0.0000
vt 0.1800 0.1454 0.0000
vt 0.0967 0.3242 0.0000
vt 0.1144 0.3562 0.0000
vt 0.1818 0.3698 0.0000
vt 0.1486 0.3881 0.0000
vt 0.1479 0.3454 0.0000
vt 0.1418 0.2412 0.0000
vt 0.1526 0.1933 0.0000
vt 0.1801 0.2338 0.0000
vt 0.1861 0.1203 0.0000
vt 0.1490 0.3275 0.0000
vt 0.0229 0.0928 0.0000
vt 0.0346 0.0752 0.0000
vt 0.0210 0.2900 0.0000
vt 0.0972 0.3066 0.0000
vt 0.0305 0.3214 0.0000
vt 0.0579 0.3014 0.0000
vt 0.0688 0.3221 0.0000
vt 0.0984 0.2349 0.0000
vt 0.1286 0.2435 0.0000
vt 0.1359 0.0643 0.0000
vt 0.1746 0.0385 0.0000
vt 0.1762 0.0839 0.0000
vt 0.2017 0.0587 0.0000
vt 0.1013 0.2875 0.0000
vt 0.1996 0.3630 0.0000
vt 0.1777 0.3242 0.0000
vt 0.0931 0.0681 0.0000
vt 0.0993 0.4144 0.0000
vt 0.0638 0.0830 0.0000
vt 0.0218 0.0592 0.0000
vt 0.0785 0.3438 0.0000
vt 0.0959 0.3634 0.0000
vt 0.0574 0.3581 0.0000
vt 0.0400 0.3439 0.0000
vt 0.0005 0.2494 0.0000
vt 0.0354 0.0262 0.0000
vt 0.1146 0.2396 0.0000
vt 0.1183 0.2020 0.0000
vt 0.2340 0.0778 0.0000
vt 0.0753 0.4230 0.0000
# 85 texture coords

o Roca_04
g Roca_04
usemtl Rocas
s off
f 1/1/1 2/2/2 3/3/3 
f 4/4/4 5/5/5 6/6/6 
f 7/7/7 8/8/8 9/9/9 
f 10/10/10 11/11/11 12/12/12 
f 13/13/13 14/14/14 15/15/15 
f 16/16/16 11/17/11 17/18/17 
f 6/6/6 18/19/18 4/4/4 
f 19/20/19 20/21/20 21/22/21 
f 22/23/22 23/24/23 24/25/24 
f 25/26/25 26/27/26 27/28/27 
f 28/29/28 29/30/29 23/24/23 
f 30/31/30 25/26/25 27/28/27 
f 3/3/3 31/32/31 32/33/32 
f 20/21/20 33/34/33 34/35/34 
f 35/36/35 22/37/22 24/38/24 
f 36/39/36 22/37/22 35/36/35 
f 37/40/37 38/41/38 39/42/39 
f 40/43/40 41/44/41 42/45/42 
f 43/46/43 14/14/14 44/47/44 
f 45/48/45 46/49/46 47/50/47 
f 3/3/3 32/33/32 39/42/39 
f 36/39/36 35/36/35 19/20/19 
f 15/15/15 48/51/48 13/13/13 
f 48/51/48 49/52/49 50/53/50 
f 49/52/49 42/45/42 41/44/41 
f 51/54/51 28/29/28 23/24/23 
f 40/43/40 42/45/42 22/37/22 
f 51/54/51 23/24/23 22/23/22 
f 52/55/52 44/47/44 14/14/14 
f 38/41/38 37/40/37 14/14/14 
f 53/56/53 54/57/54 4/4/4 
f 16/16/16 18/58/18 11/17/11 
f 55/59/55 14/14/14 43/46/43 
f 53/60/53 56/61/56 57/62/57 
f 12/12/12 28/29/28 42/45/42 
f 5/5/5 12/12/12 11/11/11 
f 7/7/7 44/47/44 46/49/46 
f 47/50/47 46/49/46 44/47/44 
f 58/63/58 16/16/16 17/18/17 
f 10/10/10 49/52/49 59/64/59 
f 60/65/60 61/66/61 62/67/62 
f 24/25/24 62/67/62 63/68/63 
f 57/62/57 56/61/56 55/59/55 
f 64/69/64 16/16/16 58/63/58 
f 65/70/65 66/71/66 2/2/2 
f 59/64/59 48/51/48 15/15/15 
f 49/52/49 48/51/48 59/64/59 
f 25/26/25 67/72/67 26/27/26 
f 29/30/29 60/65/60 62/67/62 
f 50/53/50 39/42/39 38/41/38 
f 13/13/13 48/51/48 50/53/50 
f 7/7/7 68/73/68 8/8/8 
f 39/42/39 36/39/36 3/3/3 
f 36/39/36 39/42/39 50/53/50 
f 26/27/26 69/74/69 70/75/70 
f 8/8/8 71/76/71 72/77/72 
f 3/3/3 21/22/21 1/1/1 
f 57/62/57 55/59/55 43/46/43 
f 70/78/70 71/76/71 8/8/8 
f 28/29/28 5/5/5 29/30/29 
f 5/5/5 28/29/28 12/12/12 
f 19/20/19 21/22/21 3/3/3 
f 3/3/3 36/39/36 19/20/19 
f 71/76/71 54/79/54 43/46/43 
f 44/47/44 71/76/71 43/46/43 
f 25/26/25 30/31/30 61/66/61 
f 6/6/6 5/5/5 11/11/11 
f 18/58/18 6/80/6 11/17/11 
f 52/55/52 14/14/14 37/40/37 
f 52/55/52 66/71/66 65/70/65 45/48/45 
f 35/36/35 24/38/24 33/34/33 
f 54/79/54 57/62/57 43/46/43 
f 54/79/54 53/60/53 57/62/57 
f 37/40/37 66/71/66 52/55/52 
f 37/40/37 31/32/31 66/71/66 
f 10/10/10 12/12/12 49/52/49 
f 49/52/49 12/12/12 42/45/42 
f 26/27/26 8/81/8 27/28/27 
f 26/27/26 70/75/70 8/81/8 
f 31/32/31 37/40/37 32/33/32 
f 32/33/32 37/40/37 39/42/39 
f 20/21/20 35/36/35 33/34/33 
f 35/36/35 20/21/20 19/20/19 
f 69/74/69 26/27/26 67/72/67 
f 5/5/5 69/74/69 67/72/67 
f 47/50/47 44/47/44 52/55/52 
f 47/50/47 52/55/52 45/48/45 
f 36/39/36 40/43/40 22/37/22 
f 41/44/41 40/43/40 36/39/36 
f 53/60/53 18/58/18 56/61/56 
f 4/4/4 18/19/18 53/56/53 
f 44/47/44 72/77/72 71/76/71 
f 72/77/72 9/9/9 8/8/8 
f 20/21/20 34/35/34 21/22/21 
f 67/72/67 29/30/29 5/5/5 
f 67/72/67 60/65/60 29/30/29 
f 9/9/9 44/47/44 7/7/7 
f 72/77/72 44/47/44 9/9/9 
f 59/64/59 64/69/64 58/82/58 
f 17/83/17 59/64/59 58/82/58 
f 24/25/24 63/68/63 73/84/73 
f 69/74/69 4/4/4 54/57/54 
f 69/74/69 5/5/5 4/4/4 
f 38/41/38 14/14/14 13/13/13 
f 38/41/38 13/13/13 50/53/50 
f 10/10/10 17/83/17 11/11/11 
f 10/10/10 59/64/59 17/83/17 
f 60/65/60 67/72/67 25/26/25 
f 60/65/60 25/26/25 61/66/61 
f 56/61/56 18/58/18 16/16/16 
f 16/16/16 55/59/55 56/61/56 
f 41/44/41 50/53/50 49/52/49 
f 50/53/50 41/44/41 36/39/36 
f 63/68/63 62/67/62 61/66/61 
f 70/78/70 54/79/54 71/76/71 
f 54/57/54 70/75/70 69/74/69 
f 31/32/31 3/3/3 2/2/2 
f 31/32/31 2/2/2 66/71/66 
f 42/45/42 51/54/51 22/23/22 
f 51/54/51 42/45/42 28/29/28 
f 16/16/16 64/69/64 55/59/55 
f 15/15/15 14/14/14 55/59/55 
f 27/85/27 8/8/8 68/73/68 
f 23/24/23 62/67/62 24/25/24 
f 29/30/29 62/67/62 23/24/23 
f 55/59/55 64/69/64 15/15/15 
f 64/69/64 59/64/59 15/15/15 
# 1 polygons - 126 triangles

