# 3ds Max Wavefront OBJ Exporter v0.97b - (c)2007 guruware
# File Created: 29.01.2020 12:26:40

mtllib Roca_03.mtl

#
# object Roca_003
#

v  7.0759 8.9809 -5.4002
v  2.9670 7.8737 -8.0608
v  1.6259 9.6452 -4.2827
v  3.6345 7.8965 0.8714
v  8.2760 7.9746 -0.1667
v  0.7458 8.7598 -1.0387
v  6.6944 3.2893 1.9143
v  -8.6458 5.3484 2.1063
v  -6.7464 1.3893 4.5912
v  -4.7573 4.0475 4.8201
v  7.9766 1.2684 -7.6695
v  3.6877 1.2794 -9.5405
v  5.9803 5.6134 -8.3159
v  -0.0404 3.6244 -7.6939
v  -1.6632 6.2077 -8.3956
v  0.4795 6.0535 -6.0036
v  -2.8444 7.9671 1.4195
v  -1.3841 10.2551 -3.8751
v  -6.8193 7.5693 0.9735
v  -5.4123 7.2517 -8.0186
v  -8.6770 6.9228 -3.9249
v  -2.9854 1.2687 -8.2329
v  -9.0959 2.4905 -4.8528
v  -8.3404 1.2963 -1.1644
v  -9.4647 1.2776 0.5370
v  -9.6519 2.8409 0.2727
v  7.6276 1.2680 0.3261
v  9.6519 1.3166 -5.4562
v  8.9661 5.9406 -1.5127
v  8.2832 7.2481 -6.7063
v  -1.3829 7.0039 7.7032
v  -4.2380 1.2673 6.4460
v  1.5785 4.7478 9.2294
v  4.1713 8.0789 2.1148
v  5.3302 1.3513 8.5006
v  -4.3991 3.5301 6.3137
v  1.5215 7.5488 7.8322
v  0.2081 7.0503 -0.1937
v  2.2410 8.5685 2.6374
v  -8.9243 4.9466 -2.0132
v  1.8655 6.0365 -7.6801
v  0.2741 8.3796 -4.3423
v  -3.4481 5.1429 2.5369
v  -6.4903 6.4971 1.4690
v  -4.9959 1.7842 4.8577
v  -8.0100 1.2678 -4.4320
v  -8.3679 3.1210 -1.5073
v  -0.9342 1.2678 -7.8617
v  3.3302 1.2680 9.5405
# 49 vertices

vn 0.4117 0.8773 -0.2466
vn -0.2383 0.5022 -0.8313
vn -0.2972 0.9444 -0.1407
vn 0.2176 0.9639 0.1535
vn 0.6307 0.5977 0.4949
vn 0.0616 0.8652 0.4976
vn 0.8583 0.2484 0.4490
vn -0.7522 0.6182 0.2280
vn -0.5500 0.1236 0.8260
vn -0.6253 0.5577 0.5459
vn 0.6174 0.0648 -0.7839
vn -0.0128 0.2002 -0.9797
vn 0.2554 0.2362 -0.9376
vn 0.0197 0.2032 -0.9789
vn 0.3084 0.3447 -0.8866
vn -0.0561 0.5755 -0.8159
vn 0.1387 0.6345 0.7604
vn 0.1720 0.9697 -0.1736
vn -0.5599 0.5984 0.5731
vn -0.3819 0.4817 -0.7888
vn -0.8106 0.5588 -0.1753
vn -0.1529 -0.1424 -0.9779
vn -0.8933 -0.3558 -0.2746
vn -0.9215 -0.1017 -0.3748
vn -0.9922 -0.1082 0.0624
vn -0.9770 0.1817 -0.1119
vn 0.9188 -0.0002 0.3946
vn 0.9783 0.0501 -0.2011
vn 0.9694 0.1053 0.2218
vn 0.7175 0.4452 -0.5356
vn -0.5013 0.6544 0.5661
vn -0.6838 0.0078 0.7296
vn 0.0208 0.2264 0.9738
vn 0.6471 0.7618 -0.0322
vn 0.7100 0.4094 0.5729
vn -0.7974 0.1586 0.5823
vn 0.2292 0.7759 0.5877
vn -0.0344 0.7848 0.6188
vn -0.0763 0.9955 -0.0563
vn -0.9535 0.0394 0.2988
vn -0.4831 0.2988 -0.8230
vn 0.0114 0.8445 -0.5354
vn -0.2154 0.8471 0.4858
vn -0.4534 0.5633 0.6907
vn -0.5769 0.0744 0.8134
vn -0.7905 -0.5616 -0.2443
vn -0.9950 0.0208 -0.0979
vn 0.0007 0.0328 -0.9995
vn 0.1489 0.1622 0.9755
# 49 vertex normals

vt 0.8495 0.9420 0.0000
vt 0.8191 0.9429 0.0000
vt 0.8276 0.9139 0.0000
vt 0.8697 0.8998 0.0000
vt 0.8782 0.9293 0.0000
vt 0.8412 0.8909 0.0000
vt 0.9129 0.9224 0.0000
vt 0.8239 0.8034 0.0000
vt 0.8607 0.7822 0.0000
vt 0.8657 0.8132 0.0000
vt 0.8549 0.9995 0.0000
vt 0.8067 0.9963 0.0000
vt 0.8334 0.9653 0.0000
vt 0.7587 0.9249 0.0000
vt 0.7748 0.9072 0.0000
vt 0.7930 0.9281 0.0000
vt 0.8355 0.8549 0.0000
vt 0.8137 0.8906 0.0000
vt 0.8149 0.8339 0.0000
vt 0.7758 0.8816 0.0000
vt 0.7816 0.8496 0.0000
vt 0.7333 0.8970 0.0000
vt 0.7531 0.8428 0.0000
vt 0.7957 0.7681 0.0000
vt 0.8149 0.7674 0.0000
vt 0.8107 0.7800 0.0000
vt 0.9223 0.9467 0.0000
vt 0.8810 0.9905 0.0000
vt 0.8826 0.9429 0.0000
vt 0.8514 0.9559 0.0000
vt 0.8913 0.8438 0.0000
vt 0.8932 0.7970 0.0000
vt 0.9184 0.8508 0.0000
vt 0.8798 0.8953 0.0000
vt 0.9512 0.8726 0.0000
vt 0.8810 0.8116 0.0000
vt 0.8997 0.8584 0.0000
vt 0.8499 0.8771 0.0000
vt 0.8749 0.8823 0.0000
vt 0.7786 0.8312 0.0000
vt 0.7795 0.9582 0.0000
vt 0.8033 0.9460 0.0000
vt 0.8138 0.9091 0.0000
vt 0.8517 0.8365 0.0000
vt 0.8197 0.8242 0.0000
vt 0.8743 0.7933 0.0000
vt 0.8719 0.7924 0.0000
vt 0.7416 0.8396 0.0000
vt 0.7691 0.8184 0.0000
vt 0.7357 0.9171 0.0000
vt 0.7933 0.7851 0.0000
vt 0.7637 0.9760 0.0000
vt 0.9480 0.8495 0.0000
vt 0.7543 0.8105 0.0000
# 54 texture coords

o Roca_003
g Roca_003
usemtl Rocas
s off
f 1/1/1 2/2/2 3/3/3 
f 4/4/4 5/5/5 6/6/6 
f 7/7/7 5/5/5 4/4/4 
f 8/8/8 9/9/9 10/10/10 
f 11/11/11 12/12/12 13/13/13 
f 14/14/14 15/15/15 16/16/16 
f 17/17/17 18/18/18 19/19/19 
f 20/20/20 21/21/21 18/18/18 
f 22/22/22 23/23/23 20/20/20 
f 20/20/20 23/23/23 21/21/21 
f 24/24/24 25/25/25 26/26/26 
f 27/27/27 28/28/28 29/29/29 
f 28/28/28 30/30/30 29/29/29 
f 1/1/1 3/3/3 5/5/5 
f 31/31/31 32/32/32 33/33/33 
f 7/7/7 34/34/34 35/35/35 
f 36/36/36 32/32/32 31/31/31 
f 37/37/37 35/35/35 34/34/34 
f 4/4/4 38/38/38 39/39/39 
f 6/6/6 38/38/38 4/4/4 
f 19/19/19 18/18/18 21/21/21 
f 21/21/21 23/23/23 40/40/40 
f 14/41/14 16/16/16 41/42/41 
f 12/12/12 41/42/41 13/13/13 
f 14/41/14 41/42/41 12/12/12 
f 42/43/42 15/15/15 18/18/18 
f 6/6/6 18/18/18 17/17/17 
f 22/22/22 20/20/20 15/15/15 
f 18/18/18 15/15/15 20/20/20 
f 43/44/43 10/10/10 31/31/31 
f 44/45/44 10/10/10 43/44/43 
f 43/44/43 17/17/17 44/45/44 
f 17/17/17 38/38/38 6/6/6 
f 10/10/10 9/9/9 45/46/45 
f 45/47/45 32/32/32 10/10/10 
f 46/48/46 47/49/47 40/40/40 
f 42/43/42 18/18/18 6/6/6 
f 5/5/5 3/3/3 6/6/6 
f 15/15/15 48/50/48 22/22/22 
f 38/38/38 43/44/43 31/31/31 
f 43/44/43 38/38/38 17/17/17 
f 30/30/30 2/2/2 1/1/1 
f 5/5/5 30/30/30 1/1/1 
f 26/26/26 44/45/44 47/51/47 
f 26/26/26 9/9/9 8/8/8 
f 7/7/7 35/35/35 27/27/27 
f 29/29/29 7/7/7 27/27/27 
f 44/45/44 26/26/26 8/8/8 
f 10/10/10 44/45/44 8/8/8 
f 29/29/29 30/30/30 5/5/5 
f 29/29/29 5/5/5 7/7/7 
f 19/19/19 44/45/44 17/17/17 
f 40/40/40 47/49/47 44/45/44 
f 12/12/12 48/52/48 14/41/14 
f 15/15/15 14/14/14 48/50/48 
f 40/40/40 44/45/44 19/19/19 
f 19/19/19 21/21/21 40/40/40 
f 37/37/37 34/34/34 39/39/39 
f 38/38/38 31/31/31 39/39/39 
f 30/30/30 28/28/28 11/11/11 
f 42/43/42 3/3/3 2/2/2 
f 3/3/3 42/43/42 6/6/6 
f 37/37/37 39/39/39 31/31/31 
f 37/37/37 31/31/31 33/33/33 
f 23/23/23 22/22/22 46/48/46 
f 23/23/23 46/48/46 40/40/40 
f 42/43/42 41/42/41 16/16/16 
f 16/16/16 15/15/15 42/43/42 
f 33/33/33 35/35/35 37/37/37 
f 26/26/26 25/25/25 9/9/9 
f 13/13/13 30/30/30 11/11/11 
f 2/2/2 30/30/30 13/13/13 
f 35/35/35 33/33/33 49/53/49 
f 49/53/49 33/33/33 32/32/32 
f 46/48/46 24/54/24 47/49/47 
f 24/24/24 26/26/26 47/51/47 
f 42/43/42 2/2/2 41/42/41 
f 2/2/2 13/13/13 41/42/41 
f 34/34/34 4/4/4 39/39/39 
f 4/4/4 34/34/34 7/7/7 
f 36/36/36 10/10/10 32/32/32 
f 36/36/36 31/31/31 10/10/10 
# 0 polygons - 82 triangles

