# 3ds Max Wavefront OBJ Exporter v0.97b - (c)2007 guruware
# File Created: 29.01.2020 12:06:39

mtllib Señal_Transito_02.mtl

#
# object Señal_Transito_02
#

v  0.0001 40.0061 0.4406
v  7.5670 43.1404 0.4409
v  8.1904 40.0061 0.4411
v  5.7916 45.7976 0.4406
v  3.1344 47.5730 0.4402
v  0.0001 48.1965 0.4400
v  -3.1343 47.5730 0.4398
v  -5.7914 45.7976 0.4398
v  -7.5669 43.1404 0.4398
v  -8.1903 40.0061 0.4400
v  -7.5669 36.8718 0.4402
v  -5.7914 34.2147 0.4406
v  -3.1343 32.4392 0.4409
v  0.0001 31.8158 0.4411
v  3.1344 32.4392 0.4413
v  5.7916 34.2147 0.4414
v  7.5670 36.8718 0.4413
v  7.5669 43.1405 1.1108
v  8.1903 40.0062 1.1111
v  5.7915 45.7977 1.1105
v  3.1343 47.5731 1.1102
v  -0.0000 48.1966 1.1099
v  -3.1343 47.5731 1.1098
v  -5.7915 45.7977 1.1097
v  -7.5669 43.1405 1.1098
v  -8.1904 40.0062 1.1099
v  -7.5669 36.8719 1.1102
v  -5.7915 34.2147 1.1105
v  -3.1343 32.4393 1.1108
v  0.0000 31.8158 1.1111
v  3.1343 32.4393 1.1113
v  5.7915 34.2147 1.1113
v  7.5669 36.8719 1.1113
v  -0.0000 40.0062 1.1105
v  -0.1058 -1.1819 -0.8337
v  -0.7845 -1.1819 -0.3409
v  -1.0763 44.7680 -0.4065
v  -0.1057 44.7680 -1.1113
v  -0.5255 -1.1819 0.4569
v  -0.7060 44.7680 0.7344
v  0.3133 -1.1819 0.4571
v  0.4936 44.7680 0.7347
v  0.5727 -1.1819 -0.3405
v  0.8646 44.7680 -0.4060
# 44 vertices

vn 0.0001 -0.0001 -1.0000
vn 0.6895 0.2855 -0.6657
vn 0.7463 -0.0000 -0.6657
vn 0.5277 0.5276 -0.6657
vn 0.2856 0.6893 -0.6658
vn 0.0001 0.7462 -0.6657
vn -0.2855 0.6893 -0.6658
vn -0.5276 0.5276 -0.6658
vn -0.6893 0.2855 -0.6658
vn -0.7462 -0.0001 -0.6658
vn -0.6893 -0.2856 -0.6658
vn -0.5276 -0.5277 -0.6657
vn -0.2855 -0.6895 -0.6657
vn 0.0000 -0.7463 -0.6657
vn 0.2856 -0.6895 -0.6656
vn 0.5277 -0.5277 -0.6656
vn 0.6895 -0.2856 -0.6656
vn 0.6893 0.2856 0.6658
vn 0.7461 0.0001 0.6658
vn 0.5276 0.5277 0.6657
vn 0.2855 0.6894 0.6657
vn -0.0001 0.7463 0.6656
vn -0.2856 0.6894 0.6657
vn -0.5277 0.5277 0.6656
vn -0.6895 0.2856 0.6656
vn -0.7463 0.0000 0.6656
vn -0.6894 -0.2855 0.6657
vn -0.5277 -0.5276 0.6657
vn -0.2856 -0.6893 0.6658
vn -0.0001 -0.7462 0.6657
vn 0.2855 -0.6893 0.6658
vn 0.5276 -0.5276 0.6658
vn 0.6894 -0.2855 0.6658
vn -0.0001 0.0001 1.0000
vn 0.0003 -0.0060 -1.0000
vn -0.9509 -0.0065 -0.3095
vn -0.7656 0.5933 -0.2488
vn 0.0002 0.5934 -0.8049
vn -0.5881 -0.0072 0.8087
vn -0.4734 0.5930 0.6514
vn 0.5877 -0.0072 0.8091
vn 0.4730 0.5930 0.6516
vn 0.9510 -0.0065 -0.3090
vn 0.7657 0.5933 -0.2484
# 44 vertex normals

vt 0.5708 0.9131 0.0000
vt 0.5462 0.8542 0.0000
vt 0.5706 0.8493 0.0000
vt 0.5255 0.8681 0.0000
vt 0.5117 0.8889 0.0000
vt 0.5070 0.9133 0.0000
vt 0.5119 0.9377 0.0000
vt 0.5258 0.9584 0.0000
vt 0.5465 0.9722 0.0000
vt 0.5710 0.9769 0.0000
vt 0.5954 0.9720 0.0000
vt 0.6160 0.9581 0.0000
vt 0.6298 0.9374 0.0000
vt 0.6346 0.9129 0.0000
vt 0.6297 0.8885 0.0000
vt 0.6158 0.8679 0.0000
vt 0.5950 0.8541 0.0000
vt 0.0034 0.6855 1.0000
vt 0.0033 0.6639 1.0000
vt 0.0103 0.6639 1.0000
vt 0.0104 0.6855 1.0000
vt 0.0032 0.6423 1.0000
vt 0.0103 0.6423 1.0000
vt 0.0032 0.6207 1.0000
vt 0.0102 0.6207 1.0000
vt 0.0042 0.9664 1.0000
vt 0.0042 0.9447 1.0000
vt 0.0112 0.9447 1.0000
vt 0.0113 0.9663 1.0000
vt 0.0041 0.9231 1.0000
vt 0.0111 0.9231 1.0000
vt 0.0040 0.9015 1.0000
vt 0.0111 0.9015 1.0000
vt 0.0040 0.8799 1.0000
vt 0.0110 0.8799 1.0000
vt 0.0039 0.8583 1.0000
vt 0.0109 0.8583 1.0000
vt 0.0038 0.8367 1.0000
vt 0.0109 0.8367 1.0000
vt 0.0038 0.8151 1.0000
vt 0.0108 0.8151 1.0000
vt 0.0037 0.7935 1.0000
vt 0.0107 0.7935 1.0000
vt 0.0036 0.7719 1.0000
vt 0.0107 0.7719 1.0000
vt 0.0036 0.7503 1.0000
vt 0.0106 0.7503 1.0000
vt 0.0035 0.7287 1.0000
vt 0.0105 0.7287 1.0000
vt 0.0034 0.7071 1.0000
vt 0.0105 0.7071 1.0000
vt 0.0221 0.2936 0.0000
vt 0.0271 0.2936 0.0000
vt 0.0271 0.5089 0.0000
vt 0.0221 0.5089 0.0000
vt 0.0320 0.2936 0.0000
vt 0.0320 0.5089 0.0000
vt 0.0370 0.2936 0.0000
vt 0.0370 0.5089 0.0000
vt 0.0420 0.2936 0.0000
vt 0.0420 0.5089 0.0000
vt 0.0470 0.2936 0.0000
vt 0.0470 0.5089 0.0000
vt 0.0594 0.2838 0.0000
vt 0.0515 0.2812 0.0000
vt 0.0515 0.2728 0.0000
vt 0.0594 0.2702 0.0000
vt 0.0643 0.2770 0.0000
# 68 texture coords

o Señal_Transito_02
g Señal_Transito_02
usemtl Material__8
s 1
f 1/1/1 2/2/2 3/3/3 
f 1/1/1 4/4/4 2/2/2 
f 1/1/1 5/5/5 4/4/4 
f 1/1/1 6/6/6 5/5/5 
f 1/1/1 7/7/7 6/6/6 
f 1/1/1 8/8/8 7/7/7 
f 1/1/1 9/9/9 8/8/8 
f 1/1/1 10/10/10 9/9/9 
f 1/1/1 11/11/11 10/10/10 
f 1/1/1 12/12/12 11/11/11 
f 1/1/1 13/13/13 12/12/12 
f 1/1/1 14/14/14 13/13/13 
f 1/1/1 15/15/15 14/14/14 
f 1/1/1 16/16/16 15/15/15 
f 1/1/1 17/17/17 16/16/16 
f 1/1/1 3/3/3 17/17/17 
s 8
f 3/18/3 2/19/2 18/20/18 19/21/19 
f 2/19/2 4/22/4 20/23/20 18/20/18 
f 4/22/4 5/24/5 21/25/21 20/23/20 
f 5/26/5 6/27/6 22/28/22 21/29/21 
f 6/27/6 7/30/7 23/31/23 22/28/22 
f 7/30/7 8/32/8 24/33/24 23/31/23 
f 8/32/8 9/34/9 25/35/25 24/33/24 
f 9/34/9 10/36/10 26/37/26 25/35/25 
f 10/36/10 11/38/11 27/39/27 26/37/26 
f 11/38/11 12/40/12 28/41/28 27/39/27 
f 12/40/12 13/42/13 29/43/29 28/41/28 
f 13/42/13 14/44/14 30/45/30 29/43/29 
f 14/44/14 15/46/15 31/47/31 30/45/30 
f 15/46/15 16/48/16 32/49/32 31/47/31 
f 16/48/16 17/50/17 33/51/33 32/49/32 
f 17/50/17 3/18/3 19/21/19 33/51/33 
s 1
f 19/3/19 18/17/18 34/1/34 
f 18/17/18 20/16/20 34/1/34 
f 20/16/20 21/15/21 34/1/34 
f 21/15/21 22/14/22 34/1/34 
f 22/14/22 23/13/23 34/1/34 
f 23/13/23 24/12/24 34/1/34 
f 24/12/24 25/11/25 34/1/34 
f 25/11/25 26/10/26 34/1/34 
f 26/10/26 27/9/27 34/1/34 
f 27/9/27 28/8/28 34/1/34 
f 28/8/28 29/7/29 34/1/34 
f 29/7/29 30/6/30 34/1/34 
f 30/6/30 31/5/31 34/1/34 
f 31/5/31 32/4/32 34/1/34 
f 32/4/32 33/2/33 34/1/34 
f 33/2/33 19/3/19 34/1/34 
s off
f 35/52/35 36/53/36 37/54/37 38/55/38 
f 36/53/36 39/56/39 40/57/40 37/54/37 
f 39/56/39 41/58/41 42/59/42 40/57/40 
f 41/58/41 43/60/43 44/61/44 42/59/42 
f 43/60/43 35/62/35 38/63/38 44/61/44 
f 38/64/38 37/65/37 40/66/40 42/67/42 44/68/44 
# 22 polygons - 32 triangles

