# 3ds Max Wavefront OBJ Exporter v0.97b - (c)2007 guruware
# File Created: 29.01.2020 12:05:39

mtllib Señal_Transito_01.mtl

#
# object Señal_Transito_01
#

v  0.0002 -0.2603 -0.9472
v  -0.6785 -0.2603 -0.4544
v  -0.9704 45.6896 -0.5200
v  0.0003 45.6896 -1.2248
v  -0.4195 -0.2603 0.3433
v  -0.6000 45.6896 0.6209
v  0.4193 -0.2603 0.3436
v  0.5995 45.6896 0.6212
v  0.6786 -0.2603 -0.4540
v  0.9706 45.6896 -0.5195
v  -9.1573 41.8239 0.6136
v  0.0000 32.6665 0.6136
v  0.0000 32.6665 1.2248
v  -9.1573 41.8239 1.2248
v  9.1573 41.8239 1.2248
v  0.0000 50.9812 1.2248
v  9.1573 41.8239 0.6136
v  0.0000 50.9812 0.6136
# 18 vertices

vn 0.0003 -0.0060 -1.0000
vn -0.9509 -0.0065 -0.3095
vn -0.7656 0.5933 -0.2488
vn 0.0002 0.5934 -0.8049
vn -0.5881 -0.0072 0.8087
vn -0.4734 0.5930 0.6514
vn 0.5877 -0.0072 0.8091
vn 0.4730 0.5930 0.6516
vn 0.9510 -0.0065 -0.3090
vn 0.7657 0.5933 -0.2484
vn -0.8165 0.0000 -0.5774
vn -0.0000 -0.8165 -0.5774
vn 0.0000 -0.8166 0.5772
vn -0.8165 -0.0001 0.5773
vn 0.8165 -0.0001 0.5773
vn 0.0000 0.8165 0.5774
vn 0.8165 0.0000 -0.5774
vn -0.0000 0.8164 -0.5774
# 18 vertex normals

vt 0.0221 0.2936 0.0000
vt 0.0271 0.2936 0.0000
vt 0.0271 0.5089 0.0000
vt 0.0221 0.5089 0.0000
vt 0.0320 0.2936 0.0000
vt 0.0320 0.5089 0.0000
vt 0.0370 0.2936 0.0000
vt 0.0370 0.5089 0.0000
vt 0.0420 0.2936 0.0000
vt 0.0420 0.5089 0.0000
vt 0.0470 0.2936 0.0000
vt 0.0470 0.5089 0.0000
vt 0.0594 0.2838 0.0000
vt 0.0515 0.2812 0.0000
vt 0.0515 0.2728 0.0000
vt 0.0594 0.2702 0.0000
vt 0.0643 0.2770 0.0000
vt 0.8342 0.9823 0.0000
vt 0.8342 0.8579 0.0000
vt 0.8373 0.8579 0.0000
vt 0.8373 0.9823 0.0000
vt 0.9618 0.8579 0.0000
vt 0.9618 0.9823 0.0000
vt 0.9649 0.8579 0.0000
vt 0.9649 0.9823 0.0000
vt 0.7373 1.0042 0.0000
vt 0.6496 0.9159 0.0000
vt 0.7379 0.8282 0.0000
vt 0.8256 0.9166 0.0000
vt 0.8373 0.8545 0.0000
vt 0.9618 0.8545 0.0000
vt 0.9618 0.9857 0.0000
vt 0.8373 0.9857 0.0000
# 33 texture coords

o Señal_Transito_01
g Señal_Transito_01
usemtl Material__8
s off
f 1/1/1 2/2/2 3/3/3 4/4/4 
f 2/2/2 5/5/5 6/6/6 3/3/3 
f 5/5/5 7/7/7 8/8/8 6/6/6 
f 7/7/7 9/9/9 10/10/10 8/8/8 
f 9/9/9 1/11/1 4/12/4 10/10/10 
f 4/13/4 3/14/3 6/15/6 8/16/8 10/17/10 
f 11/18/11 12/19/12 13/20/13 14/21/14 
f 14/21/14 13/20/13 15/22/15 16/23/16 
f 16/23/16 15/22/15 17/24/17 18/25/18 
f 18/26/18 17/27/17 12/28/12 11/29/11 
f 12/30/12 17/31/17 15/22/15 13/20/13 
f 18/32/18 11/33/11 14/21/14 16/23/16 
# 12 polygons

